<svg width="484" height="369" viewBox="0 0 484 369" fill="none" xmlns="http://www.w3.org/2000/svg">
<path d="M417.105 233.379C415.759 217.846 409.729 203.518 402.705 189.755C400.084 184.543 396.784 179.754 393.094 175.179C397.103 164.784 399.904 153.969 400.545 142.689C401.43 126.838 396.608 109.955 387.668 96.8301C369.334 70.0176 339.896 55.2988 308.363 50.5101C277.969 45.8638 245.94 44.2663 215.299 47.7088C199.23 49.4826 183.199 52.1788 167.914 57.8863C152.381 63.7401 138.938 71.2588 125.993 81.5076C119.254 86.8626 113.119 92.8588 107.655 99.5976C81.7988 124.708 65.7338 158.578 63.0038 195.215C59.7375 239.694 79.7438 287.075 114.36 315.309C149.4 343.79 194.693 356.84 239.595 353.72C263.674 352.051 287.366 346.839 309.994 338.364C332.093 330.133 354.649 320.131 374.156 306.83C398.486 290.446 419.91 264.414 417.105 233.379Z" fill="#DEEFF7"/>
<path d="M30.3525 310.914L24.4537 316.591" stroke="#333333" stroke-width="2" stroke-linecap="round" stroke-linejoin="round"/>
<path d="M14.295 326.637L8.61749 332.645" stroke="#333333" stroke-width="2" stroke-linecap="round" stroke-linejoin="round"/>
<path d="M8.61749 310.914L14.295 316.591" stroke="#333333" stroke-width="2" stroke-linecap="round" stroke-linejoin="round"/>
<path d="M24.4537 326.637L30.3525 332.645" stroke="#333333" stroke-width="2" stroke-linecap="round" stroke-linejoin="round"/>
<path d="M472.898 294.204L467.216 300.099" stroke="#333333" stroke-width="2" stroke-linecap="round" stroke-linejoin="round"/>
<path d="M457.061 309.927L451.162 315.826" stroke="#333333" stroke-width="2" stroke-linecap="round" stroke-linejoin="round"/>
<path d="M451.162 294.204L457.061 300.099" stroke="#333333" stroke-width="2" stroke-linecap="round" stroke-linejoin="round"/>
<path d="M467.216 309.927L472.898 315.826" stroke="#333333" stroke-width="2" stroke-linecap="round" stroke-linejoin="round"/>
<path d="M170.258 92.8063L164.359 98.8138" stroke="#333333" stroke-width="2" stroke-linecap="round" stroke-linejoin="round"/>
<path d="M154.312 108.864L148.631 114.541" stroke="#333333" stroke-width="2" stroke-linecap="round" stroke-linejoin="round"/>
<path d="M148.631 92.8063L154.312 98.8138" stroke="#333333" stroke-width="2" stroke-linecap="round" stroke-linejoin="round"/>
<path d="M164.359 108.864L170.258 114.541" stroke="#333333" stroke-width="2" stroke-linecap="round" stroke-linejoin="round"/>
<path d="M361.714 17.6675L355.815 23.345" stroke="#333333" stroke-width="2" stroke-linecap="round" stroke-linejoin="round"/>
<path d="M345.769 33.5038L340.088 39.3988" stroke="#333333" stroke-width="2" stroke-linecap="round" stroke-linejoin="round"/>
<path d="M340.088 17.6675L345.769 23.345" stroke="#333333" stroke-width="2" stroke-linecap="round" stroke-linejoin="round"/>
<path d="M355.815 33.5038L361.714 39.3988" stroke="#333333" stroke-width="2" stroke-linecap="round" stroke-linejoin="round"/>
<path d="M219.649 163.839V182.008C192.746 190.621 173.28 215.87 173.28 245.6C173.28 282.53 203.246 312.384 240.06 312.384C276.87 312.384 306.84 282.414 306.84 245.6C306.84 215.87 287.37 190.621 260.471 182.008V116.998H219.649V156.403" fill="white"/>
<path d="M219.649 163.839V182.008C192.746 190.621 173.28 215.87 173.28 245.6C173.28 282.53 203.246 312.384 240.06 312.384C276.87 312.384 306.84 282.414 306.84 245.6C306.84 215.87 287.37 190.621 260.471 182.008V116.998H219.649V156.403" stroke="#333333" stroke-width="2" stroke-linecap="round" stroke-linejoin="round"/>
<path d="M240.06 312.5C276.99 312.5 306.84 282.53 306.84 245.72C306.84 242.18 306.604 238.64 306.015 235.22C305.895 235.336 283.361 254.806 237.934 237.106C196.875 221.06 173.516 241.828 173.28 242.064C173.16 243.361 173.16 244.539 173.16 245.836C173.16 282.65 203.13 312.5 240.06 312.5Z" fill="#1C5F37" stroke="#333333" stroke-width="2" stroke-linecap="round" stroke-linejoin="round"/>
<path d="M207.848 242.889C213.514 242.889 218.115 238.299 218.115 232.625C218.115 226.959 213.514 222.358 207.848 222.358C202.174 222.358 197.584 226.959 197.584 232.625C197.584 238.299 202.174 242.889 207.848 242.889Z" fill="#FFC930" stroke="#333333" stroke-width="2" stroke-linecap="round" stroke-linejoin="round"/>
<path d="M274.511 212.802C276.161 214.216 277.226 216.342 277.226 218.701C277.226 222.95 273.803 226.486 269.438 226.486C265.073 226.486 261.649 223.066 261.649 218.701C261.649 214.452 265.073 210.912 269.438 210.912" fill="#FFC930"/>
<path d="M274.511 212.802C276.161 214.216 277.226 216.342 277.226 218.701C277.226 222.95 273.803 226.486 269.438 226.486C265.073 226.486 261.649 223.066 261.649 218.701C261.649 214.452 265.073 210.912 269.438 210.912" stroke="#333333" stroke-width="2" stroke-linecap="round" stroke-linejoin="round"/>
<path d="M260.471 87.5H219.649L225.428 126.08H254.573L260.471 87.5Z" fill="#1C5F37" stroke="#333333" stroke-width="2" stroke-linecap="round" stroke-linejoin="round"/>
<path d="M207.848 116.998H272.153" stroke="#333333" stroke-width="2" stroke-linecap="round" stroke-linejoin="round"/>
<path d="M383.059 340.974L423.42 329.585V277.295L383.059 288.616L380.835 288.009V340.299L383.059 340.974Z" fill="#FE4F32" stroke="#333333" stroke-width="2" stroke-linecap="round" stroke-linejoin="round"/>
<path d="M383.059 340.974L342.829 329.585V277.295L383.059 288.616V340.974Z" fill="#FE4F32" stroke="#333333" stroke-width="2" stroke-linecap="round" stroke-linejoin="round"/>
<path d="M383.059 340.974C383.059 340.974 379.215 327.834 363.517 323.994C347.884 320.15 342.694 329.653 342.694 329.653L383.059 340.974Z" fill="#FE4F32" stroke="#333333" stroke-width="2" stroke-linecap="round" stroke-linejoin="round"/>
<path d="M383.059 340.974C383.059 340.974 386.899 327.834 402.6 323.994C418.23 320.15 423.42 329.653 423.42 329.653L383.059 340.974Z" fill="#FE4F32" stroke="#333333" stroke-width="2" stroke-linecap="round" stroke-linejoin="round"/>
<path d="M413.314 292.996L393.165 298.655" stroke="#333333" stroke-width="2" stroke-linecap="round" stroke-linejoin="round"/>
<path d="M413.314 301.554L393.165 307.213" stroke="#333333" stroke-width="2" stroke-linecap="round" stroke-linejoin="round"/>
<path d="M407.516 311.795L393.165 315.838" stroke="#333333" stroke-width="2" stroke-linecap="round" stroke-linejoin="round"/>
<path d="M413.314 310.179L410.078 311.056" stroke="#333333" stroke-width="2" stroke-linecap="round" stroke-linejoin="round"/>
</svg>
