<svg width="803" height="531" viewBox="0 0 803 531" fill="none" xmlns="http://www.w3.org/2000/svg">
<g clip-path="url(#clip0_191_182)">
<path d="M173.987 88.3213C197.103 88.3213 215.844 68.5412 215.844 44.1437C215.844 19.7462 197.103 -0.0270996 173.987 -0.0270996C150.871 -0.0270996 132.129 19.7462 132.129 44.1437C132.129 68.5412 150.871 88.3213 173.987 88.3213Z" fill="#FFC930"/>
<path d="M178.407 26.9778L173.987 44.1436L188.398 64.1274" stroke="white" stroke-width="4" stroke-linecap="round" stroke-linejoin="round"/>
<path d="M173.987 12.3719C175.171 12.3719 176.129 11.3534 176.129 10.1108C176.129 8.86136 175.171 7.84961 173.987 7.84961C172.81 7.84961 171.844 8.86136 171.844 10.1108C171.844 11.3534 172.81 12.3719 173.987 12.3719Z" fill="#E7AB02"/>
<path d="M173.987 80.3903C175.171 80.3903 176.129 79.3785 176.129 78.1291C176.129 76.8797 175.171 75.8748 173.987 75.8748C172.81 75.8748 171.844 76.8797 171.844 78.1291C171.844 79.3785 172.81 80.3903 173.987 80.3903Z" fill="#E7AB02"/>
<path d="M206.187 46.4049C207.371 46.4049 208.33 45.3932 208.33 44.1438C208.33 42.8944 207.371 41.8894 206.187 41.8894C205.004 41.8894 204.045 42.8944 204.045 44.1438C204.045 45.3932 205.004 46.4049 206.187 46.4049Z" fill="#E7AB02"/>
<path d="M141.735 46.4049C142.925 46.4049 143.877 45.3932 143.877 44.1438C143.877 42.8944 142.925 41.8894 141.735 41.8894C140.551 41.8894 139.599 42.8944 139.599 44.1438C139.599 45.3932 140.551 46.4049 141.735 46.4049Z" fill="#E7AB02"/>
<path d="M173.89 47.4573C175.544 47.4573 176.888 46.0449 176.888 44.293C176.888 42.5479 175.544 41.1355 173.89 41.1355C172.237 41.1355 170.892 42.5479 170.892 44.293C170.892 46.0449 172.237 47.4573 173.89 47.4573Z" fill="#2B2616"/>
<path d="M526.693 531.373H511.13V352.062C511.13 332.303 494.133 316.203 473.281 316.203H209.687C188.829 316.203 171.838 332.303 171.838 352.062V531.373H156.269V352.062C156.269 324.969 180.24 302.921 209.687 302.921H473.281C502.728 302.921 526.693 324.969 526.693 352.062V531.373Z" fill="#3C2C5B"/>
<path d="M403.36 303.139L393.87 246.168L334.526 246.155L342.24 292.328C342.736 295.371 344.235 298.121 346.461 300.11C348.706 302.093 351.537 303.159 354.458 303.139H403.36Z" fill="#FF4F32"/>
<path opacity="0.3" d="M397.981 271.102L393.806 246.168L334.468 246.155L341.333 287.365L397.981 271.102Z" fill="#1D0C09"/>
<path d="M454.881 267.646C457.866 267.734 460.826 267.123 463.553 265.853C466.275 264.583 468.707 262.675 470.656 260.299C472.586 257.786 473.969 254.846 474.69 251.695C475.404 248.545 475.456 245.258 474.832 242.087L455.035 123.651C452.68 109.554 439.903 98.106 426.566 98.106H256.325C253.34 98.0177 250.38 98.6289 247.659 99.8986C244.931 101.168 242.505 103.056 240.556 105.446C238.62 107.966 237.243 110.899 236.522 114.05C235.802 117.2 235.757 120.473 236.381 123.651L256.171 242.101C258.545 256.191 271.315 267.646 284.646 267.646H454.881Z" fill="#FF4F32"/>
<path d="M457.441 218.036L441.923 125.165C441.261 121.695 439.504 118.545 436.944 116.256C434.383 113.948 431.166 112.63 427.814 112.495H259.863C258.377 112.447 256.904 112.753 255.546 113.391C254.189 114.022 252.986 114.973 252.021 116.155C251.056 117.397 250.38 118.857 250.014 120.426C249.66 121.981 249.64 123.597 249.943 125.179L265.493 218.036H457.441Z" fill="#F7E8E5"/>
<path d="M367.402 253.278C368.65 253.325 369.898 253.081 371.057 252.544C372.202 252.021 373.225 251.227 374.055 250.229C374.865 249.231 375.47 248.049 375.798 246.766C376.139 245.482 376.184 244.151 375.965 242.848C375.489 239.745 374.003 236.92 371.777 234.842C369.545 232.764 366.701 231.569 363.722 231.454C362.519 231.433 361.316 231.664 360.19 232.153C359.071 232.649 358.067 233.382 357.231 234.319C353.705 238.38 354.58 245.285 359.18 249.733C361.406 251.933 364.333 253.203 367.402 253.278Z" fill="#1D0C09"/>
<path d="M397.595 267.734H338.264" stroke="#1D0C09" stroke-width="4" stroke-linecap="round" stroke-linejoin="round"/>
<path d="M401.591 292.906H342.266" stroke="#1D0C09" stroke-width="4" stroke-linecap="round" stroke-linejoin="round"/>
<path d="M424.006 303.138L423.896 302.622C423.427 299.811 422.024 297.258 419.946 295.432C417.868 293.585 415.249 292.58 412.541 292.58H342.266C342.761 295.54 344.222 298.216 346.403 300.151C348.584 302.079 351.344 303.138 354.187 303.138H424.006Z" fill="#FF4F32"/>
<path d="M704.076 87.0107H660.803C644.893 87.0107 631.955 100.666 631.955 117.458C631.955 132.411 642.242 145.108 656.209 147.499V163.13L677.363 147.906H704.076C719.993 147.906 732.925 134.251 732.925 117.458C732.925 100.598 719.993 87.0107 704.076 87.0107Z" fill="#FFA0DC"/>
<path d="M666.24 121.145C668.414 121.145 670.183 119.278 670.183 116.976C670.183 114.681 668.414 112.814 666.24 112.814C664.059 112.814 662.289 114.681 662.289 116.976C662.289 119.278 664.059 121.145 666.24 121.145Z" fill="white"/>
<path d="M682.407 121.145C684.588 121.145 686.351 119.278 686.351 116.976C686.351 114.681 684.588 112.814 682.407 112.814C680.226 112.814 678.464 114.681 678.464 116.976C678.464 119.278 680.226 121.145 682.407 121.145Z" fill="white"/>
<path d="M698.646 121.145C700.821 121.145 702.59 119.278 702.59 116.976C702.59 114.681 700.821 112.814 698.646 112.814C696.465 112.814 694.696 114.681 694.696 116.976C694.696 119.278 696.465 121.145 698.646 121.145Z" fill="white"/>
<path d="M386.504 120.84H313.173L327.584 209.433H400.909L386.504 120.84Z" fill="#2C7D4C"/>
<path d="M371.661 184.723C366.308 180.791 362.596 174.795 361.593 168.474L359.103 153.141C357.758 144.884 364.809 145.631 368.412 149.359C372.723 153.813 381.55 163.87 382.669 179.922C383.351 189.476 377.407 188.878 371.661 184.723Z" fill="white"/>
<path d="M348.815 184.723C352.894 180.791 354.651 174.795 353.602 168.474L351.106 153.141C349.761 144.884 342.954 145.631 340.567 149.359C337.704 153.813 332.152 163.87 336.244 179.922C338.669 189.476 344.421 188.878 348.815 184.723Z" fill="white"/>
<path d="M365.755 166.803L359.322 162.03C358.035 161.079 357.173 159.687 356.928 158.193L353.531 137.32L353.267 135.697C353.177 135.154 352.682 134.706 352.161 134.706C351.646 134.706 351.292 135.154 351.382 135.697L351.646 137.32L355.043 158.193C355.281 159.687 354.876 161.079 353.917 162.002L348.796 166.783C348.429 167.102 348.461 167.754 348.86 168.175C349.266 168.623 349.864 168.698 350.211 168.351L355.326 163.571C357.456 161.283 355.519 161.283 358.389 163.571C358.646 163.673 365.298 168.949 365.453 168.575C366.308 168.596 366.553 167.353 365.755 166.803Z" fill="white"/>
<path d="M355.12 199.431H370.214" stroke="white" stroke-width="4" stroke-linecap="round" stroke-linejoin="round"/>
<path d="M427.634 245.156C412.862 242.596 384.574 237.123 374.923 236.363C365.144 233.382 359.566 243.635 370.857 247.791C373.675 249.108 362.718 250.419 368.232 260.393C367.769 261.086 364.488 266.491 370.265 272.032C369.017 275.773 369.409 280.343 374.659 283.738C374.074 285.613 375.843 290.529 381.814 293.021C385.886 294.963 389.431 291.846 387.462 287.276C389.296 286.305 389.888 284.506 389.431 282.496C397.57 285.816 409.118 290.047 420.679 293.435C420.872 293.578 427.962 244.946 427.634 245.156Z" fill="#E59763"/>
<path d="M371.32 248.341L379.066 250.352" stroke="#030202" stroke-width="4" stroke-linecap="round" stroke-linejoin="round"/>
<path d="M394.488 501.109L435.509 498.827L438.462 493.701C440.566 483.312 442.863 470.634 444.831 456.157H382.019C381.164 462.594 379.594 469.181 377.555 475.34V475.414L394.488 501.109Z" fill="#E59763"/>
<path d="M535.34 291.568H505.346C505.346 291.568 433.277 296.484 407.291 323.984C387.662 344.702 386.941 387.718 384.844 425.397C384.188 436.411 383.396 446.943 382.019 456.361H444.896C445.024 455.186 445.224 454.005 445.352 452.83C446.536 443.201 447.456 433.919 448.113 425.397C450.081 398.107 449.361 378.225 449.361 378.225L496.88 377.118C496.88 377.118 526.146 376.079 535.533 350.792C544.656 325.512 535.34 291.568 535.34 291.568Z" fill="#FFC930"/>
<path d="M403.875 493.701L405.322 483.515C405.843 479.638 403.354 475.965 399.609 475.415C399.281 475.34 398.953 475.34 398.56 475.34H377.69C377.555 475.34 377.49 475.415 377.426 475.55C376.313 478.735 374.801 481.716 373.096 484.554C365.086 496.885 350.713 501.802 341.719 513.44C340.078 515.382 338.702 518.709 338.245 520.787C338.245 520.855 338.245 520.855 338.309 520.855H432.691C432.691 520.855 432.755 520.855 432.755 520.787C434.396 514.622 436.3 504.022 438.462 493.769C438.462 493.701 438.462 493.701 438.398 493.701H403.875Z" fill="#2C7D4C"/>
<path d="M338.965 518.431C337.389 522.654 336.797 527.156 337.325 531.658C337.325 531.726 337.325 531.726 337.389 531.726H428.619C428.619 531.726 430.259 527.224 432.755 518.363L338.965 518.431C339.03 518.363 338.965 518.363 338.965 518.431Z" fill="black"/>
<path opacity="0.2" d="M437.941 342.278C402.562 342.278 412.406 396.512 414.509 456.361C415.951 496.471 394.488 490.863 378.475 513.372C377.362 514.968 376.442 516.557 375.657 518.288C374.08 522.519 373.424 527.089 373.945 531.659H421.857C421.857 531.659 423.497 527.157 425.994 518.288C427.634 512.123 429.732 503.954 431.9 493.633C434.004 483.237 436.23 470.838 438.198 456.293C438.333 455.118 438.526 453.937 438.662 452.762C439.845 443.134 440.759 433.851 441.415 425.33C443.384 398.039 442.663 378.157 442.663 378.157C442.663 378.157 490.839 342.278 437.941 342.278Z" fill="#505050"/>
<path d="M446.472 502.426L490.903 499.866L492.543 493.979C494.12 482.891 495.567 469.731 496.417 456.361L455.788 447.982L429.931 456.015C430.195 462.805 430.195 469.663 429.867 475.415C429.867 475.34 446.536 502.012 446.472 502.426Z" fill="#E59763"/>
<path d="M457.235 493.701L458.677 483.515C459.204 479.638 456.708 475.965 452.97 475.415C452.642 475.34 452.314 475.34 451.921 475.34H429.995C429.931 475.34 429.931 475.34 429.931 475.415C429.802 478.185 429.539 480.745 429.21 483.169C427.177 498.135 406.107 502.426 398.232 514.689C396.856 516.143 396.064 519.056 395.607 520.787C395.607 520.855 395.607 520.855 395.672 520.855L488.606 518.363C488.606 518.363 488.67 518.363 488.67 518.288C490.054 511.987 491.231 503.811 492.543 494.047C492.543 493.979 492.543 493.979 492.479 493.979L457.235 493.701Z" fill="#2C7D4C"/>
<path d="M592.703 291.568H519.912C519.912 291.568 462.614 297.176 437.214 323.984C420.808 341.306 424.681 385.151 427.898 425.397C428.747 436.207 429.603 446.664 429.931 456.361H496.416C496.481 455.186 496.552 454.005 496.616 452.83C497.272 442.719 497.401 433.573 497.465 425.397C497.665 396.308 495.303 378.986 495.104 377.668C495.104 377.6 495.104 377.601 495.168 377.601H553.979C553.979 377.601 583.316 376.079 592.703 350.792C602.083 325.512 592.703 291.568 592.703 291.568Z" fill="#FFC930"/>
<path d="M596.312 312.421C596.312 312.346 596.312 312.346 596.248 312.346H572.881V312.556C572.881 312.835 570.256 346.569 591.127 354.466H591.191C591.783 353.291 592.304 352.178 592.767 350.935C597.296 338.393 597.425 323.984 596.312 312.421Z" fill="#2C7D4C"/>
<path opacity="0.2" d="M592.703 291.568H527.266C527.266 291.568 505.675 321.424 515.647 320.386C522.344 319.693 533.957 305.63 539.278 305.63C555.748 303.967 570.713 332.649 596.576 332.649C598.281 311.796 592.703 291.568 592.703 291.568Z" fill="#505050"/>
<path d="M463.669 306.255C453.691 310.757 444.24 316.508 437.214 323.917C420.808 341.232 424.681 385.083 427.898 425.329C428.747 436.133 429.539 446.597 429.931 456.293C430.195 463.083 430.195 469.453 429.867 475.272C429.732 478.042 429.474 480.677 429.146 483.101C427.177 497.856 408.076 501.734 399.152 513.372C398.033 514.893 397.113 516.557 396.328 518.288" stroke="#505050" stroke-width="4" stroke-linecap="round" stroke-linejoin="round"/>
<path d="M396.392 518.363C394.816 522.587 394.16 527.156 394.687 531.726H485.917C485.917 531.726 485.981 531.726 485.981 531.658C486.116 531.108 487.165 526.26 488.67 518.363H396.392Z" fill="black"/>
<path d="M422.976 494.461L429.867 498.828" stroke="black" stroke-width="4" stroke-linecap="round" stroke-linejoin="round"/>
<path d="M416.15 499.799L422.513 505.957" stroke="black" stroke-width="4" stroke-linecap="round" stroke-linejoin="round"/>
<path d="M451.986 300.986C440.366 299.119 429.603 296.002 420.679 293.435L420.609 293.367C420.872 291.568 427.634 245.224 427.634 245.224C448.569 248.551 462.878 251.322 464.847 251.668C465.503 249.522 472.2 230.265 481.915 205.392C493.335 176.303 505.803 169.166 521.945 165.221C521.945 165.221 521.945 165.146 522.016 165.146L523 158.567L561.654 157.392L563.558 158.567C563.23 160.644 563.101 163.143 562.966 163.761C569.008 164.943 574.386 167.02 579.835 169.927C596.769 179.141 607.204 195.838 615.999 237.952C622.497 271.754 617.511 300.436 587.646 300.504L544.199 300.225C544.135 300.293 536.582 292.471 536.582 292.471L505.411 291.568C476.993 294.895 474.825 295.377 451.986 300.986Z" fill="#2C7D4C"/>
<path opacity="0.2" d="M495.239 377.601C496.745 377.601 522.145 377.601 525.818 377.601C525.889 377.601 525.889 377.465 525.818 377.465C511.709 373.099 503.043 356.062 491.43 355.987C491.366 355.987 491.366 356.062 491.366 356.062C493.792 368.665 495.04 376.84 495.239 377.601C495.168 377.601 495.168 377.601 495.239 377.601Z" fill="#505050"/>
<path d="M495.168 377.601C494.248 371.992 491.366 355.987 491.366 355.987" stroke="#505050" stroke-width="4" stroke-linecap="round" stroke-linejoin="round"/>
<path d="M523 158.499L523.985 151.708C523.985 151.64 523.92 151.64 523.92 151.64C517.551 154.343 506.395 152.333 503.178 146.86C499.106 140.837 498.977 133.768 502.85 120.887V120.819C499.177 115.414 498.057 111.741 506.196 110.77C506.196 110.77 506.26 110.77 506.26 110.702C508.3 104.4 509.741 99.3417 511.709 95.2539C514.27 89.8489 517.751 86.1821 524.577 83.5475C536.91 78.2171 553.914 80.777 563.365 89.9915C574.129 100.523 571.105 115.068 569.271 126.36C568.088 133.49 563.886 157.181 563.693 158.431C563.693 158.431 563.693 158.499 563.623 158.499H523.193C523.065 158.567 523 158.499 523 158.499Z" fill="#E59763"/>
<path d="M563.693 146.378C560.74 146.378 553.515 145.753 549.906 140.559C549.842 140.423 549.842 140.28 549.977 140.144C553.715 137.164 565.855 125.043 557.324 115.964C551.218 108.346 537.045 117.974 535.533 119.502C535.533 119.502 535.533 119.502 535.469 119.502C534.877 119.291 528.578 112.501 530.74 99.2737C530.94 98.0922 529.955 97.128 528.842 97.3996C522.145 99.4095 513.813 98.649 511.51 95.3965V95.3218C519.912 73.0225 550.041 72.5336 564.806 86.25C574.521 95.3965 572.224 109.181 569.928 122.34C569.928 122.34 567.103 138.827 565.662 146.31C565.662 146.31 565.662 146.378 565.591 146.378C565.463 146.378 564.871 146.378 563.693 146.378Z" fill="#231F20"/>
<path d="M512.893 126.842C511.774 129.2 508.493 129.546 506.852 128.921" stroke="#030202" stroke-width="4" stroke-linecap="round" stroke-linejoin="round"/>
<path d="M513.678 115C514.765 115 515.647 114.063 515.647 112.922C515.647 111.768 514.765 110.844 513.678 110.844C512.591 110.844 511.709 111.768 511.709 112.922C511.709 114.063 512.591 115 513.678 115Z" fill="#231F20"/>
<path d="M542.295 130.516L547.545 125.667" stroke="#030202" stroke-width="4" stroke-linecap="round" stroke-linejoin="round"/>
<path d="M562.966 163.761H555.42" stroke="#2D2D2D" stroke-width="4" stroke-linecap="round" stroke-linejoin="round"/>
<path opacity="0.2" d="M551.875 256.238C559.428 250.84 562.445 240.308 564.279 233.171C565.791 221.743 571.176 221.811 571.697 221.879C571.832 221.811 576.426 254.228 576.49 254.228C568.808 254.785 556.34 255.892 551.945 256.381C551.875 256.381 551.81 256.238 551.875 256.238Z" fill="#2D2D2D"/>
<path opacity="0.2" d="M532.78 147.553C528.443 149.841 524.834 151.226 524.113 151.505C524.049 151.505 523.985 151.64 523.985 151.708L523 158.567L522.608 161.269C522.537 161.547 522.801 161.615 523 161.48L533.108 147.967C533.236 147.763 533.043 147.417 532.78 147.553Z" fill="#030202"/>
<path d="M365.343 493.422L372.691 498.827" stroke="black" stroke-width="4" stroke-linecap="round" stroke-linejoin="round"/>
<path d="M358.524 499.377L365.35 505.957" stroke="black" stroke-width="4" stroke-linecap="round" stroke-linejoin="round"/>
<path d="M437.741 229.158C455.395 217.309 491.694 210.037 514.926 216.617C514.99 216.617 515.055 216.685 515.055 216.827C515.518 221.743 531.795 322.878 531.139 321.839C531.068 321.771 522.08 319.204 509.084 319.279C490.51 318.654 461.109 327.38 452.314 335.623C452.249 335.623 452.249 335.623 452.179 335.623C450.866 331.882 437.941 229.987 437.741 229.158Z" fill="#CECECE"/>
<path d="M454.411 245.088C465.175 237.673 489.198 232.893 503.442 237.327C503.635 237.191 513.742 303.967 513.813 303.967H513.742C513.549 303.899 513.614 303.967 513.614 303.899C513.614 303.899 507.836 302.235 499.698 302.303C487.493 302.099 472.792 306.323 463.534 312.489C463.341 311.171 454.411 245.088 454.411 245.088Z" fill="white"/>
<path d="M571.761 221.879L576.49 254.228" stroke="#2D2D2D" stroke-width="4" stroke-linecap="round" stroke-linejoin="round"/>
<path d="M483.556 328.072C481.651 328.072 479.29 326.898 478.891 321.146C478.827 321.146 478.698 321.146 478.634 321.146C469.311 320.175 481.124 298.562 485.196 292.192C485.261 292.05 485.125 291.982 485.061 291.982C483.62 291.704 479.354 290.739 478.499 288.24C477.978 287.134 478.763 285.124 479.618 284.159C489.462 272.243 520.633 259.497 541.246 257.555C541.246 257.555 541.311 257.555 541.311 257.623C541.703 259.219 544.328 297.869 544.392 300.225C544.392 300.293 544.392 300.293 544.328 300.293C543.151 300.293 529.563 300.436 529.428 300.436C520.832 300.436 515.846 321.357 509.741 321.907C505.539 321.425 506.196 315.537 506.852 311.796C506.852 311.728 506.788 311.653 506.723 311.653C506.524 311.653 506.524 311.864 506.459 311.932C503.114 318.097 495.696 331.332 487.622 326.965C486.965 326.965 485.46 328.072 483.556 328.072Z" fill="#E59763"/>
<path d="M541.311 257.555C541.311 257.555 551.547 255.62 576.49 254.228" stroke="#2D2D2D" stroke-width="4" stroke-linecap="round" stroke-linejoin="round"/>
<path d="M479.026 321.01C485.196 306.459 497.665 289.144 497.665 289.144" stroke="#030202" stroke-width="4" stroke-linecap="round" stroke-linejoin="round"/>
<path d="M487.557 326.551C492.415 315.47 505.539 293.992 505.539 293.992" stroke="#030202" stroke-width="4" stroke-linecap="round" stroke-linejoin="round"/>
<path d="M506.788 311.45L512.102 301.753" stroke="black" stroke-width="4" stroke-linecap="round" stroke-linejoin="round"/>
<path d="M437.741 229.158C420.216 215.231 388.846 203.043 369.551 207.131C369.416 206.988 372.697 230.055 376.242 254.785C376.242 254.785 376.242 254.853 376.313 254.853C378.211 255.274 381.492 256.238 383.596 258.044C387.205 260.815 387.469 264.902 384.973 267.394C389.373 270.647 390.75 275.638 387.469 278.612C390.158 281.939 390.486 285.748 387.469 287.276C388.717 290.318 387.662 293.51 384.381 293.578C383.596 293.578 382.74 293.367 381.82 293.021C383.66 305.63 384.972 314.431 385.037 314.288C417.984 309.786 448.968 333.131 451.986 335.487C452.05 335.555 452.114 335.487 452.114 335.419C451.522 329.179 437.806 229.084 437.741 229.158Z" fill="#CECECE"/>
<path d="M383.596 258.044C387.205 260.815 387.469 264.902 384.973 267.394C389.373 270.647 390.75 275.638 387.469 278.612C390.158 281.939 390.486 285.749 387.469 287.276C388.717 290.318 387.662 293.51 384.381 293.578" stroke="#030202" stroke-width="4" stroke-linecap="round" stroke-linejoin="round"/>
<path d="M384.78 267.394C376.898 267.673 368.367 260.394 368.367 260.394" stroke="#030202" stroke-width="4" stroke-linecap="round" stroke-linejoin="round"/>
<path d="M387.269 278.612C381.492 279.447 370.4 272.032 370.4 272.032" stroke="#030202" stroke-width="4" stroke-linecap="round" stroke-linejoin="round"/>
<path d="M387.269 287.134C382.148 287.758 374.801 283.671 374.801 283.671" stroke="#030202" stroke-width="4" stroke-linecap="round" stroke-linejoin="round"/>
<path d="M532.78 147.553C532.78 147.553 526.738 150.398 523.985 151.573" stroke="#030202" stroke-width="4" stroke-linecap="round" stroke-linejoin="round"/>
<path d="M437.741 229.158L452.179 335.623" stroke="black" stroke-width="4" stroke-linecap="round" stroke-linejoin="round"/>
<path d="M586.938 395.33L617.948 530.382" stroke="#231F20" stroke-width="4" stroke-linecap="round" stroke-linejoin="round"/>
<path d="M526.681 395.33L495.677 530.382" stroke="#231F20" stroke-width="4" stroke-linecap="round" stroke-linejoin="round"/>
<path d="M514.862 447.215H598.692" stroke="#231F20" stroke-width="4" stroke-linecap="round" stroke-linejoin="round"/>
<path d="M509.863 378.001H603.691C610.653 378.001 616.256 382.456 616.256 387.983C616.256 393.504 610.653 397.958 603.691 397.958H509.863C502.902 397.958 497.298 393.504 497.298 387.983C497.298 382.51 502.972 378.001 509.863 378.001Z" fill="#3C2C5B"/>
<path opacity="0.3" d="M497.568 389.912C498.713 394.475 503.783 397.958 509.863 397.958H603.691C610.653 397.958 616.256 393.504 616.256 387.983C616.256 385.729 615.311 383.685 613.76 382.021C597.341 386.319 577.751 389.484 556.539 390.984C534.993 392.485 514.791 392.003 497.568 389.912Z" fill="#1C1C1C"/>
<path d="M288.332 303.125L274.828 222.226H190.882L204.386 303.125H288.332Z" fill="#2C7D4C"/>
<path d="M232.932 222.226L246.469 303.125" stroke="black" stroke-width="4" stroke-linecap="round" stroke-linejoin="round"/>
<path d="M251.217 285.402H277.202L273.007 260.36H247.022L251.217 285.402Z" fill="white"/>
<path d="M205.956 267.68H231.948L227.747 242.644H201.761L205.956 267.68Z" fill="white"/>
<path d="M278.663 293.877H252.748" stroke="black" stroke-width="4" stroke-linecap="round" stroke-linejoin="round"/>
<path d="M268.446 231.854H242.531" stroke="black" stroke-width="4" stroke-linecap="round" stroke-linejoin="round"/>
<path d="M225.739 231.854H199.824" stroke="black" stroke-width="4" stroke-linecap="round" stroke-linejoin="round"/>
<path d="M236.323 293.877H210.408" stroke="black" stroke-width="4" stroke-linecap="round" stroke-linejoin="round"/>
<path d="M254.388 242.644H243.992" stroke="black" stroke-width="4" stroke-linecap="round" stroke-linejoin="round"/>
<path d="M269.906 242.644H259.503" stroke="black" stroke-width="4" stroke-linecap="round" stroke-linejoin="round"/>
<path d="M255.489 249.577H245.085" stroke="black" stroke-width="4" stroke-linecap="round" stroke-linejoin="round"/>
<path d="M271 249.577H260.597" stroke="black" stroke-width="4" stroke-linecap="round" stroke-linejoin="round"/>
<path d="M218.257 278.083H207.854" stroke="black" stroke-width="4" stroke-linecap="round" stroke-linejoin="round"/>
<path d="M233.768 278.083H223.365" stroke="black" stroke-width="4" stroke-linecap="round" stroke-linejoin="round"/>
<path d="M219.351 285.015H208.954" stroke="black" stroke-width="4" stroke-linecap="round" stroke-linejoin="round"/>
<path d="M234.862 285.015H224.465" stroke="black" stroke-width="4" stroke-linecap="round" stroke-linejoin="round"/>
<path d="M116.727 426.762C113.781 415.178 97.7222 411.715 91.1148 434.082C85.3631 453.598 77.2374 456.456 73.5316 475.761C70.0189 494.217 80.139 520.896 106.08 518.995C133.403 516.985 116.727 426.762 116.727 426.762Z" stroke="white" stroke-width="4" stroke-linecap="round" stroke-linejoin="round"/>
<path d="M127.697 377.363L162.792 446.848L101.57 481.295L66.4739 411.81L127.697 377.363Z" fill="#FFC930"/>
<path d="M144.81 386.591H144.617C134.072 386.591 125.516 395.622 125.516 406.752V425.561H163.912V406.752C163.912 395.622 155.361 386.591 144.81 386.591Z" stroke="white" stroke-width="4" stroke-linecap="round" stroke-linejoin="round"/>
<path d="M144.765 405.502H144.334C116.965 405.502 94.8206 428.922 94.8206 457.76V520C94.8206 526.668 99.9547 532.087 106.273 532.087H182.827C189.145 532.087 194.279 526.668 194.279 520V457.815C194.324 428.922 172.134 405.502 144.765 405.502Z" fill="#FF4F32"/>
<path opacity="0.3" d="M164.388 469.698H124.801C118.387 469.698 113.163 475.218 113.163 481.988V508.314C113.163 515.084 118.387 520.604 124.801 520.604H164.388C170.802 520.604 176.026 515.084 176.026 508.314V481.988C176.026 475.218 170.802 469.698 164.388 469.698Z" fill="#8E3526"/>
<path d="M164.227 472.488H124.801C119.346 472.149 118.065 475.829 113.137 483.353V502.8C113.163 509.57 118.387 515.084 124.801 515.084H164.388C170.802 515.084 176.026 509.57 176.026 502.8V483.122C172.237 473.554 170.41 472.821 164.227 472.149V472.488Z" fill="#D69E00"/>
<path d="M164.388 464.184H124.801C118.387 464.184 113.163 469.698 113.163 476.467V483.088H176.026V476.467C176.026 469.698 170.802 464.184 164.388 464.184Z" fill="#FFC930" stroke="#272459" stroke-width="4"/>
<path d="M176.026 483.088H113.118" stroke="#FCFCFC" stroke-width="4" stroke-linecap="round" stroke-linejoin="round"/>
<path d="M144.572 448.335C139.322 448.335 135.07 443.84 135.07 438.306C135.07 432.758 139.322 428.27 144.572 428.27C149.816 428.27 154.075 432.758 154.075 438.306C154.075 443.84 149.816 448.335 144.572 448.335Z" fill="#FFC930"/>
<path d="M726.478 501.157L718.565 501.062L723.666 484.365C722.328 481.771 720.681 479.347 718.822 477.16L713.205 470.499C709.66 466.255 708.972 460.055 711.52 455.078L716.274 445.68H674.565H674.52L679.319 455.078C681.828 460.096 681.134 466.303 677.55 470.499L671.927 477.16C670.029 479.347 668.382 481.771 666.999 484.365L671.412 500.519L664.58 500.424L662.116 505.258C662.334 515.661 666.265 525.514 673.181 532.949H717.574C724.49 525.561 728.421 515.756 728.64 505.353L726.478 501.157Z" fill="#FF4F32"/>
<path d="M709.648 511.56C710.181 512.042 704.822 507.357 700.332 505.673C698.685 505.082 696.96 504.756 695.23 504.756C688.661 504.756 682.781 509.183 680.773 510.433C680.168 510.758 672.538 504.756 665.969 504.756C664.67 504.756 663.377 504.939 662.122 505.258C661.948 497.959 663.679 490.666 667.05 484.324C673.272 484.779 678.283 490.204 680.619 490.082C682.71 490.204 685.637 486.877 690.128 485.186C691.775 484.596 693.499 484.276 695.23 484.276C701.798 484.276 707.724 489.512 709.879 489.43C712.491 489.464 717.361 484.691 723.673 484.324C727.083 490.707 728.813 498.006 728.64 505.353C727.301 504.987 725.873 504.756 724.49 504.756C717.966 504.756 714.003 507.153 710.67 510.555L709.648 511.56Z" fill="#FFC930"/>
<path d="M695.358 454.854C683.733 454.854 677.016 448.729 676.328 445.741H714.518C714.563 447.799 707.074 454.854 695.358 454.854Z" fill="#3F231E"/>
<path d="M698.472 453.53C699.334 448.009 703.182 426.253 712.909 414.391" stroke="#FFC930" stroke-width="4" stroke-linecap="round" stroke-linejoin="round"/>
<path d="M693.975 453.666C693.93 447.419 693.287 416.761 687.535 398.468" stroke="#FFC930" stroke-width="4" stroke-linecap="round" stroke-linejoin="round"/>
<path d="M706.765 430.45C705.684 428.942 705.382 427.754 705.858 426.98C706.637 425.656 709.487 425.567 713.9 426.708C718.307 427.849 723.712 430.131 729.154 433.091C736.849 437.288 743.161 442.122 745.708 445.68C746.789 447.188 747.091 448.376 746.615 449.15C745.837 450.474 742.987 450.563 738.58 449.422C734.166 448.281 728.768 446.006 723.319 443.039C715.624 438.843 709.313 434.049 706.765 430.45Z" fill="#FFC930"/>
<path d="M639.212 407.044C638.871 406.636 638.697 406.181 638.652 405.767C638.478 404.402 639.688 403.214 642.023 402.44C644.359 401.618 647.556 401.299 651.011 401.523C656.936 401.89 662.341 403.716 664.065 406.039C664.412 406.453 664.586 406.908 664.631 407.322C664.972 410.099 659.439 412.014 652.266 411.607C646.347 411.199 640.987 409.373 639.212 407.044Z" fill="#FFC930"/>
<path d="M652.999 441.124C647.299 442.17 643.754 441.762 643.278 439.983C642.371 436.649 652.394 429.533 665.712 424.107C671.457 421.778 677.164 419.999 681.79 419.137C687.49 418.085 691.035 418.492 691.511 420.271C691.942 421.873 689.87 424.427 685.637 427.435C681.397 430.45 675.523 433.505 669.083 436.147C663.332 438.523 657.625 440.302 652.999 441.124Z" fill="#FFC930"/>
<path d="M711.861 366.689C712.845 363.586 711.031 360.15 707.807 359.023C704.591 357.896 701.187 359.505 700.216 362.608C699.238 365.718 701.052 369.147 704.269 370.274C707.486 371.408 710.883 369.799 711.861 366.689Z" fill="#FFC930"/>
<path d="M688.474 401.394C697.218 398.176 702.152 389.029 699.482 380.962C696.819 372.902 687.567 368.971 678.824 372.196C670.074 375.415 665.146 384.561 667.816 392.628C670.479 400.688 679.731 404.62 688.474 401.394Z" fill="#FFA0DC"/>
<path d="M684.376 388.988C685.682 388.513 686.416 387.134 686.017 385.926C685.618 384.71 684.228 384.12 682.922 384.595C681.616 385.077 680.883 386.455 681.281 387.664C681.687 388.88 683.07 389.47 684.376 388.988Z" fill="#615C5F"/>
<path d="M731.155 415.728C734.932 409.4 732.436 400.566 725.571 395.989C718.706 391.426 710.079 392.852 706.296 399.18C702.513 405.509 705.009 414.343 711.874 418.913C718.738 423.483 727.372 422.057 731.155 415.728Z" fill="#FFA0DC"/>
<path d="M720.842 408.863C721.498 407.777 721.074 406.263 719.903 405.482C718.732 404.708 717.252 404.959 716.602 406.039C715.952 407.125 716.377 408.639 717.548 409.42C718.719 410.201 720.192 409.95 720.842 408.863Z" fill="#615C5F"/>
<path opacity="0.2" d="M723.711 484.365C722.328 481.771 720.688 479.394 718.873 477.16L713.257 470.499C709.667 466.255 709.017 460.096 711.571 455.078L716.19 445.735H704.134L699.379 455.078C696.832 460.055 697.52 466.255 701.065 470.499L706.682 477.16C708.541 479.347 710.188 481.771 711.526 484.324C714.942 490.707 716.628 497.959 716.454 505.306C716.236 515.708 712.305 525.561 705.388 532.949H705.562H717.574L717.619 532.908C724.535 525.514 728.466 515.708 728.685 505.306C728.858 498.006 727.128 490.754 723.711 484.365Z" fill="#3F231E"/>
</g>
<defs>
<clipPath id="clip0_191_182">
<rect width="803" height="531" fill="white"/>
</clipPath>
</defs>
</svg>
