<svg width="51" height="51" viewBox="0 0 51 51" fill="none" xmlns="http://www.w3.org/2000/svg">
<path d="M38.5625 12.4375H38.585M13.625 1.75H37.375C43.9334 1.75 49.25 7.06662 49.25 13.625V37.375C49.25 43.9334 43.9334 49.25 37.375 49.25H13.625C7.06662 49.25 1.75 43.9334 1.75 37.375V13.625C1.75 7.06662 7.06662 1.75 13.625 1.75ZM35 24.0037C35.2931 25.9803 34.9555 27.999 34.0352 29.7727C33.1149 31.5463 31.6587 32.9846 29.8739 33.883C28.089 34.7813 26.0663 35.094 24.0935 34.7766C22.1207 34.4591 20.2982 33.5277 18.8852 32.1148C17.4723 30.7018 16.5409 28.8793 16.2234 26.9065C15.906 24.9337 16.2187 22.911 17.117 21.1261C18.0154 19.3413 19.4537 17.8851 21.2273 16.9648C23.001 16.0445 25.0197 15.7069 26.9962 16C29.0124 16.299 30.879 17.2385 32.3203 18.6797C33.7615 20.121 34.701 21.9876 35 24.0037Z" stroke="black" stroke-width="2" stroke-linecap="round" stroke-linejoin="round"/>
</svg>
