<svg id="Layer_1" data-name="Layer 1" xmlns="http://www.w3.org/2000/svg" viewBox="0 0 400 300" width="406" height="306" class="illustration styles_illustrationTablet__1DWOa"><path d="M104.49,79.36C72,91.5,47.94,122.29,43.2,159.53c-4,31.38,4.72,77.61,61.84,75.94,129-3.77,212.07,24.71,238.25-27.16S361.42,67.59,305.85,61.84C261.66,57.27,167.9,55.64,104.49,79.36Z" fill="#e6e6e6" opacity="0.3"></path><path d="M284.21,128V104.67H288V99.16H272.48v5.51h2.91v23.49a20.07,20.07,0,1,0,8.82-.15Z" fill="#e6e6e6"></path><path d="M266.34,141.12a15.26,15.26,0,1,0,27.49,0Z" fill="#fff"></path><path d="M310.27,203.4,299.37,151H259.93L249,203.4l-1-.21,11-52.78a.5.5,0,0,1,.49-.4h40.26a.49.49,0,0,1,.49.4l11,52.78Z" fill="#c7c9c9"></path><path d="M208.47,177.76h5a0,0,0,0,1,0,0v18.82a2.49,2.49,0,0,1-2.49,2.49h0a2.49,2.49,0,0,1-2.49-2.49V177.76A0,0,0,0,1,208.47,177.76Z" fill="#c7c9c9"></path><rect x="207.3" y="175.9" width="7.32" height="1.86" fill="#c7c9c9"></rect><path d="M218.19,177.76h5a0,0,0,0,1,0,0v18.82a2.49,2.49,0,0,1-2.49,2.49h0a2.49,2.49,0,0,1-2.49-2.49V177.76A0,0,0,0,1,218.19,177.76Z" fill="#c7c9c9"></path><rect x="217.01" y="175.9" width="7.32" height="1.86" fill="#c7c9c9"></rect><path d="M227.9,177.76h5a0,0,0,0,1,0,0v18.82a2.49,2.49,0,0,1-2.49,2.49h0a2.49,2.49,0,0,1-2.49-2.49V177.76a0,0,0,0,1,0,0Z" fill="#c7c9c9"></path><rect x="226.73" y="175.9" width="7.32" height="1.86" fill="#c7c9c9"></rect><path d="M114.66,240.92H96.54s-31.38-74.71-25.38-92,48-17.37,56.49-2.31,13.29,94.28,13.29,94.28Z" fill="#ffd200"></path><path d="M105.67,143.73s-16.86-3-18,6.34,13.52,46.18,12.77,54.44-2.63,34.16,10.88,35.29,9.2-60,6-75.09S105.67,143.73,105.67,143.73Z" opacity="0.08"></path><path d="M133.14,69a7.75,7.75,0,0,0-7-1.39c-2.36.69-4.22,2.45-6.05,4.08s-3.87,3.26-6.3,3.59-5.27-1.22-5.44-3.67c-1.54,2.69-1.21,6.12,0,9a11.89,11.89,0,0,0,6.42,6.62c3.87,1.46,8.22.19,11.94-1.62a20.43,20.43,0,0,0,6.07-4.18C136.12,77.92,137.32,72.41,133.14,69Z" fill="#24285b"></path><path d="M184.07,99.58s4.22-5.49,6.9-9.57,7.69-6,8.93-5.78c2.37.33,10.76,6,8.95,6.81s-8.62-1.32-9.38-.61,1.41,3.46,1.63,5-4.17-1.7-5.11.37-4.18,7.86-4.18,7.86Z" fill="#f4a28c"></path><path d="M135.22,120.06s19.29,5.42,26,5.42S184,98.16,184,98.16l12,3.22s-13.65,39.41-22.34,41.56c-14.78,3.66-48.18-2.82-48.18-2.82Z" fill="#68e1fd"></path><path d="M135.22,120.06s19.29,5.42,26,5.42S184,98.16,184,98.16l12,3.22s-13.65,39.41-22.34,41.56c-14.78,3.66-48.18-2.82-48.18-2.82Z" opacity="0.08"></path><rect x="194.44" y="113.75" width="4.44" height="12.61" fill="#ffd200"></rect><rect x="193.85" y="112.27" width="5.62" height="1.48" fill="#ffd200"></rect><rect x="201.69" y="113.9" width="4.44" height="12.61" fill="#ffd200"></rect><rect x="201.1" y="112.42" width="5.62" height="1.48" fill="#ffd200"></rect><path d="M185.74,147.05s6.83-6,7.51-7.19,2.89-9.65,4-9.1,2.79,1.6.89,6.28c0,0,15.22-7.7,15.67-6.35,1.24,3.69-1.49,5-6.17,9.12s-6.25,5.3-7.3,6.3S190.85,159,190.85,159Z" fill="#f4a28c"></path><polygon points="132.5 86.07 125.47 110.89 138.17 116.7 137.64 95.28 132.5 86.07" fill="#f4a28c"></polygon><path d="M137.81,99.46a10.43,10.43,0,0,1-4.74-3.65s-.4,5.25,4.72,11.08Z" fill="#ce8172" opacity="0.31"></path><path d="M148.6,86.88s-.78,8.73-3.24,14.2a4.41,4.41,0,0,1-5.85,2.18c-2.74-1.28-6.06-3.8-6.21-8.53l-1.24-8s-.6-5,4.89-7.68S149.35,81.58,148.6,86.88Z" fill="#f4a28c"></path><path d="M147.83,92.36l1.81,3.75a1.41,1.41,0,0,1-1.25,2l-3.41,0Z" fill="#f4a28c"></path><path d="M114.66,240.92h85.65l.44-25.45-49.44-6.59H107.46S103.38,233.85,114.66,240.92Z" fill="#24285b"></path><rect x="173.62" y="202.3" width="156.01" height="13.17" transform="translate(503.26 417.76) rotate(-180)" fill="#e6e6e6"></rect><path d="M148.66,82.6s2.41,9.31-10.55,10l-8.37,3.17s-3.41-7.68-1.52-14.38S146.1,68.92,148.66,82.6Z" fill="#24285b"></path><path d="M138.11,92.64s.53-3.34-2-3.52-3.34,4.62,0,5.68Z" fill="#f4a28c"></path><path d="M138.17,116.7l-12.7-5.81s-20.73-.2-27.33,16.09,9.32,81.9,9.32,81.9h43.85a356.06,356.06,0,0,1,5.82-45C161.79,140.57,157.64,132,138.17,116.7Z" fill="#68e1fd"></path><path d="M138.17,116.7l-2.95-1.4c3.77,7.28,13.89,15,14.59,29,.78,15.24-6,64.63-6,64.63h4.86s6.3-57.75,5.08-68.19c-.88-7.66-9.12-16.57-13.3-21A15.87,15.87,0,0,1,138.17,116.7Z" fill="#24285b"></path><path d="M123.21,124.73s15.27,6.36,15.21,21.91.39,27.64,11,27.46l4.06,8.44-2.19,26.34h-29s-12.88-.94-15-36.21S123.21,124.73,123.21,124.73Z" opacity="0.08"></path><path d="M135.22,115.3l-.14-2.16-9.61-6.25-2.11,4.1S121,114.76,135.22,115.3Z" fill="#68e1fd"></path><rect x="190.27" y="215.47" width="124.35" height="25.46" fill="#c7c9c9"></rect><polygon points="314.62 215.47 314.62 236.18 190.27 222.9 190.27 215.47 314.62 215.47" opacity="0.08"></polygon><path d="M123,118.55s38.5,44.66,40.75,44.66S187,142.28,187,142.28l9,12.48s-23,32.82-34.54,32.29S105.86,149.18,109,136.79,117.17,114.44,123,118.55Z" fill="#68e1fd"></path><path d="M123,118.55s38.5,44.66,40.75,44.66S187,142.28,187,142.28l9,12.48s-23,32.82-34.54,32.29S105.86,149.18,109,136.79,117.17,114.44,123,118.55Z" fill="#fff" opacity="0.44"></path><circle cx="144.98" cy="91.22" r="4.04" fill="#c7c9c9"></circle><rect x="189.94" y="118.62" width="27.94" height="15.47" rx="1.22" fill="#24285b"></rect><path d="M203.38,92.37h4.44a0,0,0,0,1,0,0v15.47a2.22,2.22,0,0,1-2.22,2.22h0a2.22,2.22,0,0,1-2.22-2.22V92.37A0,0,0,0,1,203.38,92.37Z" transform="translate(-22.36 77.81) rotate(-20.35)" fill="#ffd200"></path><rect x="199.46" y="91.49" width="5.62" height="1.48" transform="translate(-19.45 76.09) rotate(-20.35)" fill="#ffd200"></rect><rect x="199.76" y="183.27" width="39.88" height="3.29" fill="#e6e6e6"></rect><rect x="202.37" y="186.56" width="3.23" height="15.74" fill="#e6e6e6"></rect><rect x="234.82" y="186.56" width="3.23" height="15.74" fill="#e6e6e6"></rect><rect x="266.7" y="192.21" width="25.9" height="10.08" fill="#c7c9c9"></rect><circle cx="269.33" cy="87.17" r="4.68" fill="#e6e6e6"></circle><circle cx="280.12" cy="70.81" r="3.47" fill="#e6e6e6"></circle><circle cx="274.45" cy="146.12" r="2.06" fill="#e6e6e6" opacity="0.3"></circle><circle cx="281.72" cy="155.3" r="2.06" fill="#e6e6e6" opacity="0.3"></circle><circle cx="284.49" cy="147.2" r="1.08" fill="#e6e6e6"></circle></svg>