<svg xmlns="http://www.w3.org/2000/svg" height="1200" width="1600" version="1.1" xmlns:xlink="http://www.w3.org/1999/xlink" xmlns:svgjs="http://svgjs.com/svgjs"><rect fill="#ffffff" width="1600" height="1200"></rect><g><path d="M424.31 362.07C460.24 362.07 489.37 332.94 489.37 297.01 489.37 261.08 460.24 231.96 424.31 231.96 388.38 231.96 359.25 261.08 359.25 297.01 359.25 332.94 388.38 362.07 424.31 362.07Z" fill="#ffc930" opacity="1" stroke-width="4" stroke="none"></path><path d="M431.18 271.73L424.31 297.01 446.71 326.44" stroke="#ffffff" stroke-width="4" stroke-linecap="round" stroke-linejoin="round" opacity="1" fill="none"></path><path d="M424.31 250.22C426.15 250.22 427.64 248.72 427.64 246.89 427.64 245.05 426.15 243.56 424.31 243.56 422.48 243.56 420.98 245.05 420.98 246.89 420.98 248.72 422.48 250.22 424.31 250.22Z" fill="#e7ab02" opacity="1" stroke-width="4" stroke="none"></path><path d="M424.31 350.39C426.15 350.39 427.64 348.9 427.64 347.06 427.64 345.22 426.15 343.74 424.31 343.74 422.48 343.74 420.98 345.22 420.98 347.06 420.98 348.9 422.48 350.39 424.31 350.39Z" fill="#e7ab02" opacity="1" stroke-width="4" stroke="none"></path><path d="M474.36 300.34C476.2 300.34 477.69 298.85 477.69 297.01 477.69 295.17 476.2 293.69 474.36 293.69 472.52 293.69 471.03 295.17 471.03 297.01 471.03 298.85 472.52 300.34 474.36 300.34Z" fill="#e7ab02" opacity="1" stroke-width="4" stroke="none"></path><path d="M374.18 300.34C376.03 300.34 377.51 298.85 377.51 297.01 377.51 295.17 376.03 293.69 374.18 293.69 372.34 293.69 370.86 295.17 370.86 297.01 370.86 298.85 372.34 300.34 374.18 300.34Z" fill="#e7ab02" opacity="1" stroke-width="4" stroke="none"></path><path d="M424.16 301.89C426.73 301.89 428.82 299.81 428.82 297.23 428.82 294.66 426.73 292.58 424.16 292.58 421.59 292.58 419.5 294.66 419.5 297.23 419.5 299.81 421.59 301.89 424.16 301.89Z" fill="#2b2616" opacity="1" stroke-width="4" stroke="none"></path></g><g><path d="M972.53 1014.55H948.34V750.48C948.34 721.38 921.92 697.67 889.51 697.67H479.8C447.38 697.67 420.97 721.38 420.97 750.48V1014.55H396.77V750.48C396.77 710.58 434.03 678.11 479.8 678.11H889.51C935.28 678.11 972.53 710.58 972.53 750.48V1014.55Z" fill="#3c2c5b" opacity="1" stroke-width="4" stroke="none"></path></g><g><path d="M780.83 678.43L766.08 594.53 673.84 594.51 685.83 662.51C686.6 666.99 688.93 671.04 692.39 673.97 695.88 676.89 700.28 678.46 704.82 678.43H780.83Z" fill="#ff4f32" opacity="1" stroke-width="4" stroke="none"></path><path d="M772.47 631.25L765.98 594.53 673.75 594.51 684.42 655.2 772.47 631.25Z" fill="#1d0c09" opacity="0.3" stroke-width="4" stroke="none"></path><path d="M860.91 626.16C865.55 626.29 870.15 625.39 874.39 623.52 878.62 621.65 882.4 618.84 885.43 615.34 888.43 611.64 890.58 607.31 891.7 602.67 892.81 598.03 892.89 593.19 891.92 588.52L861.15 414.1C857.49 393.34 837.63 376.48 816.9 376.48H552.29C547.65 376.35 543.05 377.25 538.82 379.12 534.58 380.99 530.81 383.77 527.78 387.29 524.77 391 522.63 395.32 521.51 399.96 520.39 404.6 520.32 409.42 521.29 414.1L552.05 588.54C555.74 609.29 575.59 626.16 596.31 626.16H860.91Z" fill="#ff4f32" opacity="1" stroke-width="4" stroke="none"></path><path d="M864.89 553.1L840.77 416.33C839.74 411.22 837.01 406.58 833.03 403.21 829.05 399.81 824.05 397.87 818.84 397.67L557.79 397.67C555.48 397.6 553.19 398.05 551.08 398.99 548.97 399.92 547.1 401.32 545.6 403.06 544.1 404.89 543.05 407.04 542.48 409.35 541.93 411.64 541.9 414.02 542.37 416.35L566.54 553.1H864.89Z" fill="#f7e8e5" opacity="1" stroke-width="4" stroke="none"></path><path d="M724.94 605C726.88 605.07 728.82 604.71 730.62 603.92 732.4 603.15 733.99 601.98 735.28 600.51 736.54 599.04 737.48 597.3 737.99 595.41 738.52 593.52 738.59 591.56 738.25 589.64 737.51 585.07 735.2 580.91 731.74 577.85 728.27 574.79 723.85 573.03 719.22 572.86 717.35 572.83 715.48 573.17 713.73 573.89 711.99 574.62 710.43 575.7 709.13 577.08 703.65 583.06 705.01 593.23 712.16 599.78 715.62 603.02 720.17 604.89 724.94 605V605Z" fill="#1d0c09" opacity="1" stroke-width="4" stroke="none"></path><path d="M771.87 626.29H679.65" stroke="#1d0c09" stroke-width="4" stroke-linecap="round" stroke-linejoin="round" opacity="1" fill="none"></path><path d="M778.08 663.36H685.87" stroke="#1d0c09" stroke-width="4" stroke-linecap="round" stroke-linejoin="round" opacity="1" fill="none"></path><path d="M812.92 678.43L812.75 677.67C812.02 673.53 809.84 669.77 806.61 667.08 803.38 664.36 799.31 662.88 795.1 662.88H685.87C686.64 667.24 688.91 671.18 692.3 674.03 695.69 676.87 699.98 678.43 704.4 678.43H812.92Z" fill="#ff4f32" opacity="1" stroke-width="4" stroke="none"></path></g><g><path d="M1248.24 360.14H1180.98C1156.25 360.14 1136.14 380.25 1136.14 404.98 1136.14 427 1152.13 445.7 1173.84 449.22V472.24L1206.72 449.82H1248.24C1272.98 449.82 1293.08 429.71 1293.08 404.98 1293.08 380.15 1272.98 360.14 1248.24 360.14Z" fill="#ffa0dc" opacity="1" stroke-width="4" stroke="none"></path><path d="M1189.43 410.41C1192.81 410.41 1195.56 407.66 1195.56 404.27 1195.56 400.89 1192.81 398.14 1189.43 398.14 1186.04 398.14 1183.29 400.89 1183.29 404.27 1183.29 407.66 1186.04 410.41 1189.43 410.41Z" fill="#ffffff" opacity="1" stroke-width="4" stroke="none"></path><path d="M1214.56 410.41C1217.95 410.41 1220.69 407.66 1220.69 404.27 1220.69 400.89 1217.95 398.14 1214.56 398.14 1211.17 398.14 1208.43 400.89 1208.43 404.27 1208.43 407.66 1211.17 410.41 1214.56 410.41Z" fill="#ffffff" opacity="1" stroke-width="4" stroke="none"></path><path d="M1239.8 410.41C1243.18 410.41 1245.93 407.66 1245.93 404.27 1245.93 400.89 1243.18 398.14 1239.8 398.14 1236.41 398.14 1233.66 400.89 1233.66 404.27 1233.66 407.66 1236.41 410.41 1239.8 410.41Z" fill="#ffffff" opacity="1" stroke-width="4" stroke="none"></path></g><g><path d="M754.63 409.96H640.65L663.05 540.43H777.02L754.63 409.96Z" fill="#2c7d4c" opacity="1" stroke-width="4" stroke="none"></path><path d="M731.56 504.04C723.24 498.25 717.47 489.42 715.91 480.11L712.04 457.53C709.95 445.37 720.91 446.47 726.51 451.96 733.21 458.52 746.93 473.33 748.67 496.97 749.73 511.04 740.49 510.16 731.56 504.04Z" fill="#ffffff" opacity="1" stroke-width="4" stroke="none"></path><path d="M696.05 504.04C702.39 498.25 705.12 489.42 703.49 480.11L699.61 457.53C697.52 445.37 686.94 446.47 683.23 451.96 678.78 458.52 670.15 473.33 676.51 496.97 680.28 511.04 689.22 510.16 696.05 504.04Z" fill="#ffffff" opacity="1" stroke-width="4" stroke="none"></path><path d="M722.38 477.65L712.38 470.62C710.38 469.22 709.04 467.17 708.66 464.97L703.38 434.23 702.97 431.84C702.83 431.04 702.06 430.38 701.25 430.38 700.45 430.38 699.9 431.04 700.04 431.84L700.45 434.23 705.73 464.97C706.1 467.17 705.47 469.22 703.98 470.58L696.02 477.62C695.45 478.09 695.5 479.05 696.12 479.67 696.75 480.33 697.68 480.44 698.22 479.93L706.17 472.89C709.48 469.52 706.47 469.52 710.93 472.89 711.33 473.04 721.67 480.81 721.91 480.26 723.24 480.29 723.62 478.46 722.38 477.65Z" fill="#ffffff" opacity="1" stroke-width="4" stroke="none"></path><path d="M705.85 525.7H729.31" stroke="#ffffff" stroke-width="4" stroke-linecap="round" stroke-linejoin="round" opacity="1" fill="none"></path></g><g><path d="M818.56 593.04C795.6 589.27 751.63 581.21 736.63 580.09 721.43 575.7 712.76 590.8 730.31 596.92 734.69 598.86 717.66 600.79 726.23 615.48 725.51 616.5 720.41 624.46 729.39 632.62 727.45 638.13 728.06 644.86 736.22 649.86 735.31 652.62 738.06 659.86 747.34 663.53 753.67 666.39 759.18 661.8 756.12 655.07 758.97 653.64 759.89 650.99 759.18 648.03 771.83 652.92 789.78 659.15 807.75 664.14 808.05 664.35 819.07 592.73 818.56 593.04Z" fill="#e59763" opacity="1" stroke-width="4" stroke="none"></path><path d="M731.03 597.73L743.07 600.69" stroke="#030202" stroke-width="4" stroke-linecap="round" stroke-linejoin="round" opacity="1" fill="none"></path><path d="M767.04 969.98L830.8 966.62 835.39 959.07C838.66 943.77 842.23 925.1 845.29 903.78H747.66C746.33 913.26 743.89 922.96 740.72 932.03V932.14L767.04 969.98Z" fill="#e59763" opacity="1" stroke-width="4" stroke="none"></path><path d="M985.97 661.39H939.35C939.35 661.39 827.33 668.63 786.94 709.13 756.43 739.64 755.31 802.99 752.05 858.48 751.03 874.7 749.8 890.21 747.66 904.08H845.39C845.59 902.35 845.9 900.61 846.1 898.88 847.94 884.7 849.37 871.03 850.39 858.48 853.45 818.29 852.33 789.01 852.33 789.01L926.19 787.38C926.19 787.38 971.68 785.85 986.27 748.61 1000.45 711.38 985.97 661.39 985.97 661.39Z" fill="#ffc930" opacity="1" stroke-width="4" stroke="none"></path><path d="M781.63 959.07L783.88 944.07C784.69 938.36 780.82 932.95 775 932.14 774.49 932.03 773.98 932.03 773.37 932.03H740.93C740.72 932.03 740.62 932.14 740.52 932.34 738.79 937.03 736.44 941.42 733.79 945.6 721.34 963.76 699 971 685.02 988.14 682.47 991 680.33 995.9 679.62 998.96 679.62 999.06 679.62 999.06 679.72 999.06H826.42C826.42 999.06 826.52 999.06 826.52 998.96 829.07 989.88 832.03 974.27 835.39 959.17 835.39 959.07 835.39 959.07 835.29 959.07H781.63Z" fill="#2c7d4c" opacity="1" stroke-width="4" stroke="none"></path><path d="M680.74 995.49C678.29 1001.71 677.37 1008.34 678.19 1014.97 678.19 1015.07 678.19 1015.07 678.29 1015.07H820.09C820.09 1015.07 822.64 1008.44 826.52 995.39L680.74 995.49C680.84 995.39 680.74 995.39 680.74 995.49Z" fill="#000000" opacity="1" stroke-width="4" stroke="none"></path><path d="M834.58 736.07C779.59 736.07 794.89 815.94 798.16 904.08 800.4 963.15 767.04 954.89 742.15 988.04 740.42 990.39 738.99 992.73 737.77 995.28 735.32 1001.51 734.3 1008.24 735.11 1014.97H809.58C809.58 1014.97 812.13 1008.34 816.01 995.28 818.56 986.2 821.82 974.17 825.19 958.97 828.46 943.66 831.92 925.4 834.98 903.98 835.19 902.25 835.49 900.51 835.7 898.78 837.54 884.6 838.96 870.93 839.98 858.38 843.04 818.19 841.92 788.91 841.92 788.91 841.92 788.91 916.8 736.07 834.58 736.07Z" fill="#505050" opacity="0.2" stroke-width="4" stroke="none"></path><path d="M847.84 971.92L916.9 968.15 919.45 959.48C921.9 943.15 924.15 923.77 925.47 904.08L862.32 891.74 822.13 903.57C822.54 913.57 822.54 923.67 822.03 932.14 822.03 932.03 847.94 971.31 847.84 971.92Z" fill="#e59763" opacity="1" stroke-width="4" stroke="none"></path><path d="M864.57 959.07L866.81 944.07C867.63 938.36 863.75 932.95 857.94 932.14 857.43 932.03 856.92 932.03 856.31 932.03H822.23C822.13 932.03 822.13 932.03 822.13 932.14 821.93 936.22 821.52 939.99 821.01 943.56 817.85 965.6 785.1 971.92 772.86 989.98 770.72 992.12 769.49 996.41 768.78 998.96 768.78 999.06 768.78 999.06 768.88 999.06L913.33 995.39C913.33 995.39 913.43 995.39 913.43 995.28 915.58 986 917.41 973.96 919.45 959.58 919.45 959.48 919.45 959.48 919.35 959.48L864.57 959.07Z" fill="#2c7d4c" opacity="1" stroke-width="4" stroke="none"></path><path d="M1075.13 661.39H961.99C961.99 661.39 872.93 669.65 833.45 709.13 807.95 734.64 813.97 799.21 818.97 858.48 820.29 874.4 821.62 889.8 822.13 904.08H925.47C925.57 902.35 925.68 900.61 925.78 898.88 926.8 883.99 927 870.52 927.1 858.48 927.41 815.64 923.74 790.13 923.43 788.19 923.43 788.09 923.43 788.09 923.53 788.09H1014.94C1014.94 788.09 1060.54 785.85 1075.13 748.61 1089.71 711.38 1075.13 661.39 1075.13 661.39Z" fill="#ffc930" opacity="1" stroke-width="4" stroke="none"></path><path d="M1080.74 692.1C1080.74 691.99 1080.74 691.99 1080.64 691.99H1044.32V692.3C1044.32 692.71 1040.24 742.39 1072.68 754.02H1072.78C1073.7 752.29 1074.51 750.65 1075.23 748.82 1082.27 730.35 1082.47 709.13 1080.74 692.1Z" fill="#2c7d4c" opacity="1" stroke-width="4" stroke="none"></path><path d="M1075.13 661.39H973.42C973.42 661.39 939.86 705.36 955.36 703.83 965.77 702.81 983.82 682.1 992.09 682.1 1017.69 679.65 1040.95 721.89 1081.15 721.89 1083.8 691.18 1075.13 661.39 1075.13 661.39Z" fill="#505050" opacity="0.2" stroke-width="4" stroke="none"></path><path d="M874.57 683.02C859.06 689.65 844.37 698.12 833.45 709.03 807.95 734.53 813.97 799.11 818.97 858.38 820.29 874.29 821.52 889.7 822.13 903.98 822.54 913.98 822.54 923.36 822.03 931.93 821.82 936.01 821.42 939.89 820.91 943.46 817.85 965.19 788.16 970.9 774.29 988.04 772.55 990.28 771.12 992.73 769.9 995.28" stroke="#505050" stroke-width="4" stroke-linecap="round" stroke-linejoin="round" opacity="1" fill="none"></path><path d="M770 995.39C767.55 1001.61 766.53 1008.34 767.35 1015.07H909.15C909.15 1015.07 909.25 1015.07 909.25 1014.97 909.46 1014.16 911.09 1007.02 913.43 995.39H770Z" fill="#000000" opacity="1" stroke-width="4" stroke="none"></path><path d="M811.32 960.19L822.03 966.62" stroke="#000000" stroke-width="4" stroke-linecap="round" stroke-linejoin="round" opacity="1" fill="none"></path><path d="M800.71 968.05L810.6 977.12" stroke="#000000" stroke-width="4" stroke-linecap="round" stroke-linejoin="round" opacity="1" fill="none"></path><path d="M856.41 675.26C838.35 672.51 821.62 667.92 807.75 664.14L807.64 664.04C808.05 661.39 818.56 593.14 818.56 593.14 851.1 598.04 873.34 602.12 876.4 602.63 877.42 599.47 887.83 571.11 902.93 534.48 920.68 491.64 940.06 481.13 965.15 475.32 965.15 475.32 965.15 475.21 965.26 475.21L966.79 465.52 1026.87 463.79 1029.83 465.52C1029.32 468.58 1029.12 472.26 1028.91 473.17 1038.3 474.91 1046.66 477.97 1055.13 482.25 1081.45 495.82 1097.67 520.41 1111.34 582.43 1121.44 632.21 1113.69 674.45 1067.27 674.55L999.74 674.14C999.64 674.24 987.9 662.72 987.9 662.72L939.45 661.39C895.28 666.29 891.91 667 856.41 675.26Z" fill="#2c7d4c" opacity="1" stroke-width="4" stroke="none"></path><path d="M923.64 788.09C925.98 788.09 965.46 788.09 971.17 788.09 971.28 788.09 971.28 787.89 971.17 787.89 949.24 781.46 935.77 756.37 917.72 756.26 917.62 756.26 917.62 756.37 917.62 756.37 921.39 774.93 923.33 786.97 923.64 788.09 923.53 788.09 923.53 788.09 923.64 788.09Z" fill="#505050" opacity="0.2" stroke-width="4" stroke="none"></path><path d="M923.53 788.09C922.1 779.83 917.62 756.26 917.62 756.26" stroke="#505050" stroke-width="4" stroke-linecap="round" stroke-linejoin="round" opacity="1" fill="none"></path><path d="M966.79 465.42L968.32 455.42C968.32 455.32 968.22 455.32 968.22 455.32 958.32 459.3 940.98 456.34 935.98 448.28 929.65 439.41 929.45 429 935.47 410.03V409.93C929.76 401.97 928.02 396.56 940.67 395.13 940.67 395.13 940.77 395.13 940.77 395.03 943.94 385.75 946.18 378.3 949.24 372.28 953.22 364.32 958.63 358.92 969.24 355.04 988.41 347.19 1014.84 350.96 1029.53 364.53 1046.26 380.04 1041.56 401.46 1038.71 418.09 1036.87 428.59 1030.34 463.48 1030.04 465.32 1030.04 465.32 1030.04 465.42 1029.93 465.42H967.09C966.89 465.52 966.79 465.42 966.79 465.42Z" fill="#e59763" opacity="1" stroke-width="4" stroke="none"></path><path d="M1030.04 447.57C1025.45 447.57 1014.22 446.65 1008.61 439 1008.51 438.8 1008.51 438.59 1008.72 438.39 1014.53 434 1033.4 416.15 1020.14 402.78 1010.65 391.56 988.62 405.74 986.27 407.99 986.27 407.99 986.27 407.99 986.17 407.99 985.25 407.68 975.46 397.68 978.82 378.2 979.13 376.46 977.6 375.04 975.87 375.44 965.46 378.4 952.51 377.28 948.93 372.49V372.38C961.99 339.54 1008.82 338.82 1031.77 359.02 1046.87 372.49 1043.3 392.79 1039.73 412.17 1039.73 412.17 1035.34 436.45 1033.1 447.47 1033.1 447.47 1033.1 447.57 1032.99 447.57 1032.79 447.57 1031.87 447.57 1030.04 447.57Z" fill="#231f20" opacity="1" stroke-width="4" stroke="none"></path><path d="M951.08 418.8C949.34 422.27 944.24 422.78 941.69 421.86" stroke="#030202" stroke-width="4" stroke-linecap="round" stroke-linejoin="round" opacity="1" fill="none"></path><path d="M952.3 401.36C953.99 401.36 955.36 399.98 955.36 398.3 955.36 396.6 953.99 395.24 952.3 395.24 950.61 395.24 949.24 396.6 949.24 398.3 949.24 399.98 950.61 401.36 952.3 401.36Z" fill="#231f20" opacity="1" stroke-width="4" stroke="none"></path><path d="M996.78 424.21L1004.94 417.07" stroke="#030202" stroke-width="4" stroke-linecap="round" stroke-linejoin="round" opacity="1" fill="none"></path><path d="M1028.91 473.17H1017.18" stroke="#2d2d2d" stroke-width="4" stroke-linecap="round" stroke-linejoin="round" opacity="1" fill="none"></path><path d="M1011.67 609.36C1023.41 601.41 1028.1 585.9 1030.95 575.39 1033.3 558.56 1041.67 558.66 1042.48 558.76 1042.69 558.66 1049.83 606.4 1049.93 606.4 1037.99 607.22 1018.61 608.85 1011.78 609.57 1011.67 609.57 1011.57 609.36 1011.67 609.36Z" fill="#2d2d2d" opacity="0.2" stroke-width="4" stroke="none"></path><path d="M981.99 449.3C975.25 452.67 969.64 454.71 968.52 455.12 968.42 455.12 968.32 455.32 968.32 455.42L966.79 465.52 966.18 469.5C966.07 469.91 966.48 470.01 966.79 469.81L982.5 449.91C982.7 449.61 982.4 449.1 981.99 449.3Z" fill="#030202" opacity="0.2" stroke-width="4" stroke="none"></path><path d="M721.74 958.66L733.16 966.62" stroke="#000000" stroke-width="4" stroke-linecap="round" stroke-linejoin="round" opacity="1" fill="none"></path><path d="M711.14 967.43L721.75 977.12" stroke="#000000" stroke-width="4" stroke-linecap="round" stroke-linejoin="round" opacity="1" fill="none"></path><path d="M834.27 569.48C861.71 552.03 918.13 541.32 954.24 551.01 954.34 551.01 954.44 551.11 954.44 551.32 955.16 558.56 980.46 707.5 979.44 705.97 979.33 705.87 965.36 702.09 945.16 702.2 916.29 701.28 870.59 714.13 856.92 726.27 856.82 726.27 856.82 726.27 856.71 726.27 854.67 720.76 834.58 570.7 834.27 569.48Z" fill="#cecece" opacity="1" stroke-width="4" stroke="none"></path><path d="M860.18 592.94C876.91 582.02 914.25 574.98 936.39 581.51 936.69 581.31 952.4 679.65 952.51 679.65H952.4C952.1 679.55 952.2 679.65 952.2 679.55 952.2 679.55 943.22 677.1 930.57 677.2 911.6 676.9 888.75 683.12 874.36 692.2 874.06 690.26 860.18 592.94 860.18 592.94Z" fill="#ffffff" opacity="1" stroke-width="4" stroke="none"></path><path d="M1042.58 558.76L1049.93 606.4" stroke="#2d2d2d" stroke-width="4" stroke-linecap="round" stroke-linejoin="round" opacity="1" fill="none"></path><path d="M905.48 715.15C902.52 715.15 898.85 713.42 898.23 704.95 898.13 704.95 897.93 704.95 897.83 704.95 883.34 703.52 901.7 671.69 908.03 662.31 908.13 662.1 907.92 662 907.82 662 905.58 661.59 898.95 660.17 897.62 656.49 896.81 654.86 898.03 651.9 899.36 650.48 914.66 632.93 963.11 614.16 995.15 611.3 995.15 611.3 995.25 611.3 995.25 611.4 995.86 613.75 999.94 670.67 1000.04 674.14 1000.04 674.24 1000.04 674.24 999.94 674.24 998.11 674.24 976.99 674.45 976.78 674.45 963.42 674.45 955.67 705.26 946.18 706.07 939.65 705.36 940.67 696.69 941.69 691.18 941.69 691.08 941.59 690.97 941.49 690.97 941.18 690.97 941.18 691.28 941.08 691.38 935.88 700.46 924.35 719.95 911.8 713.52 910.78 713.52 908.44 715.15 905.48 715.15Z" fill="#e59763" opacity="1" stroke-width="4" stroke="none"></path><path d="M995.25 611.3C995.25 611.3 1011.16 608.45 1049.93 606.4" stroke="#2d2d2d" stroke-width="4" stroke-linecap="round" stroke-linejoin="round" opacity="1" fill="none"></path><path d="M898.44 704.75C908.03 683.32 927.41 657.82 927.41 657.82" stroke="#030202" stroke-width="4" stroke-linecap="round" stroke-linejoin="round" opacity="1" fill="none"></path><path d="M911.7 712.91C919.25 696.59 939.65 664.96 939.65 664.96" stroke="#030202" stroke-width="4" stroke-linecap="round" stroke-linejoin="round" opacity="1" fill="none"></path><path d="M941.59 690.67L949.85 676.39" stroke="#000000" stroke-width="4" stroke-linecap="round" stroke-linejoin="round" opacity="1" fill="none"></path><path d="M834.27 569.48C807.03 548.97 758.27 531.02 728.28 537.04 728.07 536.83 733.17 570.8 738.68 607.22 738.68 607.22 738.68 607.32 738.79 607.32 741.74 607.94 746.84 609.36 750.11 612.02 755.72 616.1 756.13 622.12 752.25 625.79 759.09 630.58 761.23 637.93 756.13 642.31 760.31 647.21 760.82 652.82 756.13 655.07 758.07 659.55 756.43 664.25 751.33 664.35 750.11 664.35 748.78 664.04 747.35 663.53 750.21 682.1 752.25 695.06 752.35 694.85 803.56 688.22 851.72 722.6 856.41 726.07 856.51 726.17 856.61 726.07 856.61 725.97 855.69 716.78 834.37 569.37 834.27 569.48Z" fill="#cecece" opacity="1" stroke-width="4" stroke="none"></path><path d="M750.11 612.02C755.72 616.1 756.13 622.12 752.25 625.79 759.09 630.58 761.23 637.93 756.13 642.31 760.31 647.21 760.82 652.82 756.13 655.07 758.07 659.55 756.43 664.25 751.33 664.35" stroke="#030202" stroke-width="4" stroke-linecap="round" stroke-linejoin="round" opacity="1" fill="none"></path><path d="M751.95 625.79C739.7 626.2 726.44 615.48 726.44 615.48" stroke="#030202" stroke-width="4" stroke-linecap="round" stroke-linejoin="round" opacity="1" fill="none"></path><path d="M755.82 642.31C746.84 643.54 729.6 632.62 729.6 632.62" stroke="#030202" stroke-width="4" stroke-linecap="round" stroke-linejoin="round" opacity="1" fill="none"></path><path d="M755.82 654.86C747.86 655.78 736.44 649.76 736.44 649.76" stroke="#030202" stroke-width="4" stroke-linecap="round" stroke-linejoin="round" opacity="1" fill="none"></path><path d="M981.99 449.3C981.99 449.3 972.6 453.49 968.32 455.22" stroke="#030202" stroke-width="4" stroke-linecap="round" stroke-linejoin="round" opacity="1" fill="none"></path><path d="M834.27 569.48L856.71 726.27" stroke="#000000" stroke-width="4" stroke-linecap="round" stroke-linejoin="round" opacity="1" fill="none"></path></g><g><path d="M1066.17 814.2L1114.37 1013.09" stroke="#231f20" stroke-width="4" stroke-linecap="round" stroke-linejoin="round" opacity="1" fill="none"></path><path d="M972.51 814.2L924.32 1013.09" stroke="#231f20" stroke-width="4" stroke-linecap="round" stroke-linejoin="round" opacity="1" fill="none"></path><path d="M954.14 890.61H1084.44" stroke="#231f20" stroke-width="4" stroke-linecap="round" stroke-linejoin="round" opacity="1" fill="none"></path><path d="M946.37 788.68H1092.21C1103.03 788.68 1111.74 795.24 1111.74 803.38 1111.74 811.51 1103.03 818.07 1092.21 818.07H946.37C935.55 818.07 926.84 811.51 926.84 803.38 926.84 795.32 935.66 788.68 946.37 788.68Z" fill="#3c2c5b" opacity="1" stroke-width="4" stroke="none"></path><path d="M927.26 806.22C929.04 812.94 936.92 818.07 946.37 818.07H1092.21C1103.03 818.07 1111.74 811.51 1111.74 803.38 1111.74 800.06 1110.27 797.05 1107.86 794.6 1082.34 800.93 1051.89 805.59 1018.92 807.8 985.43 810.01 954.03 809.3 927.26 806.22Z" fill="#1c1c1c" opacity="0.3" stroke-width="4" stroke="none"></path></g><g><path d="M602.04 678.41L581.05 559.27H450.57L471.56 678.41H602.04Z" fill="#2c7d4c" opacity="1" stroke-width="4" stroke="none"></path><path d="M515.93 559.27L536.97 678.41" stroke="#000000" stroke-width="4" stroke-linecap="round" stroke-linejoin="round" opacity="1" fill="none"></path><path d="M544.35 652.31H584.74L578.22 615.43H537.83L544.35 652.31Z" fill="#ffffff" opacity="1" stroke-width="4" stroke="none"></path><path d="M474 626.21H514.4L507.87 589.34H467.48L474 626.21Z" fill="#ffffff" opacity="1" stroke-width="4" stroke="none"></path><path d="M587.01 664.79H546.73" stroke="#000000" stroke-width="4" stroke-linecap="round" stroke-linejoin="round" opacity="1" fill="none"></path><path d="M571.13 573.45H530.85" stroke="#000000" stroke-width="4" stroke-linecap="round" stroke-linejoin="round" opacity="1" fill="none"></path><path d="M504.75 573.45H464.47" stroke="#000000" stroke-width="4" stroke-linecap="round" stroke-linejoin="round" opacity="1" fill="none"></path><path d="M521.2 664.79H480.92" stroke="#000000" stroke-width="4" stroke-linecap="round" stroke-linejoin="round" opacity="1" fill="none"></path><path d="M549.28 589.34H533.12" stroke="#000000" stroke-width="4" stroke-linecap="round" stroke-linejoin="round" opacity="1" fill="none"></path><path d="M573.4 589.34H557.23" stroke="#000000" stroke-width="4" stroke-linecap="round" stroke-linejoin="round" opacity="1" fill="none"></path><path d="M550.99 599.55H534.82" stroke="#000000" stroke-width="4" stroke-linecap="round" stroke-linejoin="round" opacity="1" fill="none"></path><path d="M575.1 599.55H558.93" stroke="#000000" stroke-width="4" stroke-linecap="round" stroke-linejoin="round" opacity="1" fill="none"></path><path d="M493.12 641.53H476.95" stroke="#000000" stroke-width="4" stroke-linecap="round" stroke-linejoin="round" opacity="1" fill="none"></path><path d="M517.23 641.53H501.06" stroke="#000000" stroke-width="4" stroke-linecap="round" stroke-linejoin="round" opacity="1" fill="none"></path><path d="M494.82 651.74H478.66" stroke="#000000" stroke-width="4" stroke-linecap="round" stroke-linejoin="round" opacity="1" fill="none"></path><path d="M518.93 651.74H502.77" stroke="#000000" stroke-width="4" stroke-linecap="round" stroke-linejoin="round" opacity="1" fill="none"></path></g><g><path d="M335.31 860.49C330.73 843.43 305.77 838.33 295.5 871.27 286.56 900.01 273.93 904.22 268.17 932.65 262.71 959.83 278.44 999.12 318.76 996.32 361.23 993.36 335.31 860.49 335.31 860.49Z" stroke="#ffffff" stroke-width="4" stroke-linecap="round" stroke-linejoin="round" opacity="1" fill="none"></path><path d="M352.36 787.74L406.91 890.07 311.75 940.8 257.2 838.47 352.36 787.74Z" fill="#ffc930" opacity="1" stroke-width="4" stroke="none"></path><path d="M378.96 801.33H378.66C362.27 801.33 348.97 814.63 348.97 831.02V858.72H408.65V831.02C408.65 814.63 395.36 801.33 378.96 801.33Z" stroke="#ffffff" stroke-width="4" stroke-linecap="round" stroke-linejoin="round" opacity="1" fill="none"></path><path d="M378.89 829.18H378.22C335.68 829.18 301.26 863.67 301.26 906.14V997.8C301.26 1007.62 309.24 1015.6 319.06 1015.6H438.05C447.87 1015.6 455.85 1007.62 455.85 997.8V906.22C455.92 863.67 421.43 829.18 378.89 829.18 378.89 829.18 378.96 829.18 378.89 829.18Z" fill="#ff4f32" opacity="1" stroke-width="4" stroke="none"></path><path d="M409.39 923.72H347.86C337.89 923.72 329.77 931.85 329.77 941.82V980.59C329.77 990.56 337.89 998.69 347.86 998.69H409.39C419.36 998.69 427.48 990.56 427.48 980.59V941.82C427.48 931.85 419.36 923.72 409.39 923.72Z" fill="#8e3526" opacity="0.3" stroke-width="4" stroke="none"></path><path d="M409.14 927.83H347.86C339.38 927.33 337.39 932.75 329.73 943.83V972.47C329.77 982.44 337.89 990.56 347.86 990.56H409.39C419.36 990.56 427.48 982.44 427.48 972.47V943.49C421.59 929.4 418.75 928.32 409.14 927.33Z" fill="#d69e00" opacity="1" stroke-width="4" stroke="none"></path><path d="M409.39 915.6H347.86C337.89 915.6 329.77 923.72 329.77 933.69V943.44H427.48V933.69C427.48 923.72 419.36 915.6 409.39 915.6Z" fill="#ffc930" stroke="#272459" stroke-width="4" opacity="1"></path><path d="M427.48 943.44H329.7" stroke="#fcfcfc" stroke-width="4" stroke-linecap="round" stroke-linejoin="round" opacity="1" fill="none"></path><path d="M378.59 892.26C370.43 892.26 363.82 885.64 363.82 877.49 363.82 869.32 370.43 862.71 378.59 862.71 386.74 862.71 393.36 869.32 393.36 877.49 393.36 885.64 386.74 892.26 378.59 892.26Z" fill="#ffc930" opacity="1" stroke-width="4" stroke="none"></path></g><g><path d="M1283.06 970.05L1270.76 969.91 1278.69 945.32C1276.61 941.5 1274.05 937.93 1271.16 934.71L1262.43 924.9C1256.92 918.65 1255.85 909.52 1259.81 902.19L1267.2 888.35H1202.37 1202.3L1209.76 902.19C1213.66 909.58 1212.58 918.72 1207.01 924.9L1198.27 934.71C1195.32 937.93 1192.76 941.5 1190.61 945.32L1197.47 969.11 1186.85 968.97 1183.02 976.09C1183.36 991.41 1189.47 1005.92 1200.22 1016.87H1269.22C1279.97 1005.99 1286.08 991.55 1286.42 976.23L1283.06 970.05Z" fill="#ff4f32" opacity="1" stroke-width="4" stroke="none"></path><path d="M1256.9 985.37C1257.73 986.08 1249.4 979.18 1242.42 976.7 1239.86 975.83 1237.18 975.35 1234.49 975.35 1224.28 975.35 1215.14 981.87 1212.02 983.71 1211.08 984.19 1199.22 975.35 1189.01 975.35 1186.99 975.35 1184.98 975.62 1183.03 976.09 1182.76 965.34 1185.45 954.6 1190.69 945.26 1200.36 945.93 1208.15 953.92 1211.78 953.74 1215.03 953.92 1219.58 949.02 1226.56 946.53 1229.12 945.66 1231.8 945.19 1234.49 945.19 1244.7 945.19 1253.91 952.9 1257.26 952.78 1261.32 952.83 1268.89 945.8 1278.7 945.26 1284 954.66 1286.69 965.41 1286.42 976.23 1284.34 975.69 1282.12 975.35 1279.97 975.35 1269.83 975.35 1263.67 978.88 1258.49 983.89Z" fill="#ffc930" opacity="1" stroke-width="4" stroke="none"></path><path d="M1234.69 901.86C1216.62 901.86 1206.18 892.84 1205.11 888.44H1264.47C1264.54 891.47 1252.9 901.86 1234.69 901.86Z" fill="#3f231e" opacity="1" stroke-width="4" stroke="none"></path><path d="M1239.53 899.91C1240.87 891.78 1246.85 859.74 1261.97 842.27" stroke="#ffc930" stroke-width="4" stroke-linecap="round" stroke-linejoin="round" opacity="1" fill="none"></path><path d="M1232.54 900.11C1232.47 890.91 1231.47 845.76 1222.53 818.82" stroke="#ffc930" stroke-width="4" stroke-linecap="round" stroke-linejoin="round" opacity="1" fill="none"></path><path d="M1252.42 865.92C1250.74 863.7 1250.27 861.95 1251.01 860.81 1252.22 858.86 1256.65 858.73 1263.51 860.41 1270.36 862.09 1278.76 865.45 1287.22 869.81 1299.18 875.99 1308.99 883.11 1312.95 888.35 1314.63 890.57 1315.1 892.32 1314.36 893.46 1313.15 895.41 1308.72 895.54 1301.87 893.86 1295.01 892.18 1286.62 888.83 1278.15 884.46 1266.19 878.28 1256.38 871.22 1252.42 865.92Z" fill="#ffc930" opacity="1" stroke-width="4" stroke="none"></path><path d="M1147.42 831.45C1146.89 830.85 1146.62 830.18 1146.55 829.57 1146.28 827.56 1148.16 825.81 1151.79 824.67 1155.42 823.46 1160.39 822.99 1165.76 823.32 1174.97 823.86 1183.37 826.55 1186.05 829.97 1186.59 830.58 1186.86 831.25 1186.93 831.86 1187.46 835.95 1178.86 838.77 1167.71 838.17 1158.51 837.57 1150.18 834.88 1147.42 831.45Z" fill="#ffc930" opacity="1" stroke-width="4" stroke="none"></path><path d="M1168.85 881.64C1159.99 883.18 1154.48 882.58 1153.74 879.96 1152.33 875.05 1167.91 864.57 1188.61 856.58 1197.54 853.15 1206.41 850.53 1213.6 849.26 1222.46 847.71 1227.97 848.31 1228.71 850.93 1229.38 853.29 1226.16 857.05 1219.58 861.48 1212.99 865.92 1203.86 870.42 1193.85 874.31 1184.91 877.81 1176.04 880.43 1168.85 881.64Z" fill="#ffc930" opacity="1" stroke-width="4" stroke="none"></path><path d="M1260.34 772.02C1261.87 767.45 1259.05 762.39 1254.04 760.73 1249.04 759.07 1243.75 761.44 1242.24 766.01 1240.72 770.59 1243.54 775.64 1248.54 777.3 1253.54 778.97 1258.82 776.6 1260.34 772.02Z" fill="#ffc930" opacity="1" stroke-width="4" stroke="none"></path><path d="M1223.99 823.13C1237.58 818.39 1245.25 804.92 1241.1 793.04 1236.96 781.17 1222.58 775.38 1208.99 780.13 1195.39 784.87 1187.73 798.34 1191.88 810.22 1196.02 822.09 1210.4 827.88 1223.99 823.13Z" fill="#ffa0dc" opacity="1" stroke-width="4" stroke="none"></path><path d="M1217.62 804.86C1219.65 804.16 1220.79 802.13 1220.17 800.35 1219.55 798.56 1217.39 797.69 1215.36 798.39 1213.33 799.1 1212.19 801.13 1212.81 802.91 1213.44 804.7 1215.59 805.57 1217.62 804.86Z" fill="#615c5f" opacity="1" stroke-width="4" stroke="none"></path><path d="M1290.33 844.24C1296.2 834.92 1292.32 821.91 1281.65 815.17 1270.98 808.45 1257.57 810.55 1251.69 819.87 1245.81 829.19 1249.69 842.2 1260.36 848.93 1271.03 855.66 1284.45 853.56 1290.33 844.24Z" fill="#ffa0dc" opacity="1" stroke-width="4" stroke="none"></path><path d="M1274.3 834.13C1275.32 832.53 1274.66 830.3 1272.84 829.15 1271.02 828.01 1268.72 828.38 1267.71 829.97 1266.7 831.57 1267.36 833.8 1269.18 834.95 1271 836.1 1273.29 835.73 1274.3 834.13Z" fill="#615c5f" opacity="1" stroke-width="4" stroke="none"></path><path d="M1278.76 945.32C1278.76 945.26 1278.76 945.26 1278.76 945.32 1278.76 945.26 1278.76 945.26 1278.76 945.32 1276.61 941.5 1274.06 938 1271.24 934.71L1262.51 924.9C1256.93 918.65 1255.92 909.58 1259.89 902.19L1267.07 888.43H1248.33L1240.94 902.19C1236.98 909.52 1238.05 918.65 1243.56 924.9L1252.29 934.71C1255.18 937.93 1257.74 941.5 1259.82 945.26 1265.13 954.66 1267.75 965.34 1267.48 976.16 1267.14 991.48 1261.03 1005.99 1250.28 1016.87H1250.55 1269.22L1269.29 1016.81C1280.04 1005.92 1286.15 991.48 1286.49 976.16 1286.76 965.41 1284.07 954.73 1278.76 945.32Z" fill="#3f231e" opacity="0.2" stroke-width="4" stroke="none"></path></g></svg>