<svg xmlns="http://www.w3.org/2000/svg" height="1200" width="1600" version="1.1" xmlns:xlink="http://www.w3.org/1999/xlink" xmlns:svgjs="http://svgjs.com/svgjs"><rect fill="#f3ebe9" width="1600" height="1200"></rect><g><path d="M980.12 245.49H577.18V624.7H980.12V245.49Z" fill="#ffffff" opacity="1" stroke-width="4" stroke="none"></path><path d="M677.96 245.49V624.7" stroke="#efdcd7" stroke-width="4" stroke-linecap="round" stroke-linejoin="round" opacity="1" fill="none"></path><path d="M778.65 245.49V624.7" stroke="#efdcd7" stroke-width="4" stroke-linecap="round" stroke-linejoin="round" opacity="1" fill="none"></path><path d="M879.43 245.49V624.7" stroke="#efdcd7" stroke-width="4" stroke-linecap="round" stroke-linejoin="round" opacity="1" fill="none"></path><path d="M978.2 340.99H579.2" stroke="#efdcd7" stroke-width="4" stroke-linecap="round" stroke-linejoin="round" opacity="1" fill="none"></path><path d="M978.2 435.82H579.2" stroke="#efdcd7" stroke-width="4" stroke-linecap="round" stroke-linejoin="round" opacity="1" fill="none"></path><path d="M978.2 530.74H579.2" stroke="#efdcd7" stroke-width="4" stroke-linecap="round" stroke-linejoin="round" opacity="1" fill="none"></path></g><g><path d="M1043.3 810.75C1067.91 841.45 1099.63 841.61 1139.15 831.77 1139.15 831.77 1085.03 898.51 1120.15 915.62 1161.24 935.68 1245.86 890.94 1267.23 856.08 1288.3 821.65 1233.49 824.91 1194.29 863.47 1164.03 893.2 1129.43 947.87 1151.79 971.14 1185.89 1006.51 1309.26 935.86 1344 843.32" stroke="#ffffff" stroke-width="4" stroke-linecap="round" stroke-linejoin="round" opacity="1" fill="none"></path></g><g><path d="M175.71 708.96C188.71 647.45 223.94 573.48 287.86 587.87 369.02 606.22 388.01 783.3 339.96 778.5 298.83 774.35 307.04 600.23 405.81 616.64" stroke="#ffffff" stroke-width="4" stroke-linecap="round" stroke-linejoin="round" opacity="1" fill="none"></path></g><g><path d="M502.67 872.76C502.3 871.65 501.19 870.91 500.08 871.03L451.7 875.35 457.13 829.69C457.26 828.58 456.52 827.47 455.41 827.1 454.29 826.73 453.06 827.22 452.44 828.21L428.87 869.92 381.61 846.35C380.5 845.86 379.26 846.1 378.52 847.09 377.78 848.08 377.91 849.43 378.65 850.3L412.09 886.09 364.58 905.58C363.47 906.08 362.85 907.19 363.1 908.42 363.34 909.53 364.46 910.4 365.57 910.4L418.75 908.42 412.71 960.99C412.58 962.23 413.32 963.34 414.43 963.58 414.68 963.71 414.93 963.71 415.18 963.71 416.04 963.71 416.9 963.21 417.4 962.35L441.71 913.85 490.58 932.98C491.69 933.35 492.92 932.98 493.54 931.99 494.15 931.01 494.03 929.65 493.04 928.91L458.37 897.44 501.44 875.72C502.55 875.1 503.04 873.87 502.67 872.76Z" fill="#ffc930" opacity="1" stroke-width="4" stroke="none"></path></g><g><path d="M1342.42 448.44L1298.8 439.8 1318.17 399.82C1318.58 398.88 1318.37 397.84 1317.54 397.22 1316.71 396.59 1315.56 396.69 1314.83 397.42L1281.94 429.7 1249.35 390.14C1248.73 389.41 1247.58 389.2 1246.75 389.62 1245.92 390.14 1245.5 391.18 1245.81 392.11L1262.05 439.07 1214.16 445.21C1213.12 445.31 1212.39 446.15 1212.39 447.19 1212.39 448.23 1213.12 449.06 1214.06 449.27L1263.93 458.64 1242.69 499.87C1242.27 500.8 1242.48 501.84 1243.31 502.47 1244.15 503.09 1245.29 502.99 1246.02 502.26L1281 468.53 1318.06 507.57C1318.48 507.99 1319 508.19 1319.62 508.19 1320.04 508.19 1320.46 508.09 1320.77 507.78 1321.6 507.15 1321.91 506.11 1321.39 505.17L1298.49 459.16 1342.32 452.29C1343.36 452.18 1344.09 451.25 1344.09 450.31 1344.09 449.58 1343.36 448.64 1342.42 448.44Z" fill="#5da47a" opacity="1" stroke-width="4" stroke="none"></path></g><g><path d="M573.1 981.35C582.48 981.35 590.07 973.75 590.07 964.37 590.07 955 582.48 947.4 573.1 947.4 563.72 947.4 556.12 955 556.12 964.37 556.12 973.75 563.72 981.35 573.1 981.35Z" fill="#ffffff" opacity="1" stroke-width="4" stroke="none"></path></g><g><path d="M1338.9 723.3C1355.14 723.3 1368.3 710.15 1368.3 693.91 1368.3 677.68 1355.14 664.52 1338.9 664.52 1322.67 664.52 1309.51 677.68 1309.51 693.91 1309.51 710.15 1322.67 723.3 1338.9 723.3Z" fill="#ffc930" opacity="1" stroke-width="4" stroke="none"></path></g><g><path d="M1273.93 631.86C1282.6 631.86 1289.64 624.82 1289.64 616.14 1289.64 607.46 1282.6 600.43 1273.93 600.43 1265.25 600.43 1258.21 607.46 1258.21 616.14 1258.21 624.82 1265.25 631.86 1273.93 631.86Z" fill="#ffffff" opacity="1" stroke-width="4" stroke="none"></path></g><g><path d="M401.62 528.08C415.26 528.08 426.3 517.04 426.3 503.4 426.3 489.77 415.26 478.73 401.62 478.73 387.99 478.73 376.95 489.77 376.95 503.4 376.95 517.04 387.99 528.08 401.62 528.08Z" fill="#ffffff" opacity="1" stroke-width="4" stroke="none"></path></g><g><path d="M310.15 472.23C319.26 472.23 326.65 464.84 326.65 455.73 326.65 446.62 319.26 439.23 310.15 439.23 301.04 439.23 293.65 446.62 293.65 455.73 293.65 464.84 301.04 472.23 310.15 472.23Z" fill="#efdcd7" opacity="1" stroke-width="4" stroke="none"></path></g><g><path d="M698.27 167.94C707.74 167.94 715.43 160.25 715.43 150.77 715.43 141.29 707.74 133.61 698.27 133.61 688.78 133.61 681.1 141.29 681.1 150.77 681.1 160.25 688.78 167.94 698.27 167.94Z" fill="#ffc930" opacity="1" stroke-width="4" stroke="none"></path></g><g><path d="M1099.61 228.93L1180.87 294.43" stroke="#5da47a" stroke-width="4" stroke-linecap="round" stroke-linejoin="round" opacity="1" fill="none"></path><path d="M1053.16 286.83L1134.45 351.64" stroke="#5da47a" stroke-width="4" stroke-linecap="round" stroke-linejoin="round" opacity="1" fill="none"></path><path d="M1066.35 249.67L1167.66 330.81" stroke="#5da47a" stroke-width="4" stroke-linecap="round" stroke-linejoin="round" opacity="1" fill="none"></path><path d="M1140.86 188.88L1210.83 245.03" stroke="#5da47a" stroke-width="4" stroke-linecap="round" stroke-linejoin="round" opacity="1" fill="none"></path><path d="M1024.22 334.21L1094.18 390.36" stroke="#5da47a" stroke-width="4" stroke-linecap="round" stroke-linejoin="round" opacity="1" fill="none"></path><path d="M1117 355.14C1152.83 355.14 1181.86 326.1 1181.86 290.28 1181.86 254.47 1152.83 225.43 1117 225.43 1081.18 225.43 1052.15 254.47 1052.15 290.28 1052.15 326.1 1081.18 355.14 1117 355.14Z" stroke="#231f20" stroke-width="4" stroke-linecap="round" stroke-linejoin="round" opacity="1" fill="none"></path><path d="M1248.99 229.4C1226.55 257.33 1163.02 243.61 1157.81 239.44 1152.6 235.27 1125.33 176.19 1147.77 148.17" stroke="#231f20" stroke-width="4" stroke-linecap="round" stroke-linejoin="round" opacity="1" fill="none"></path><path d="M985.3 350.69C1007.74 322.76 1071.14 336.62 1076.21 340.92 1081.38 345.04 1108.95 403.9 1086.51 431.83" stroke="#231f20" stroke-width="4" stroke-linecap="round" stroke-linejoin="round" opacity="1" fill="none"></path></g><g><path d="M910.67 299.82L864.57 265.72 904.57 232.82C905.27 232.22 905.47 231.22 905.07 230.42 904.67 229.62 903.67 229.12 902.77 229.42L854.47 241.32 847.57 191.92C847.47 191.02 846.67 190.22 845.77 190.22 844.77 190.12 843.97 190.72 843.67 191.72L829.37 242.92 765.67 226.42C764.67 226.22 763.77 226.62 763.37 227.52 762.97 228.42 763.27 229.52 764.07 230.02L815.47 263.12 762.77 306.32C761.97 306.92 761.77 308.02 762.27 308.92 762.77 309.72 763.77 310.12 764.77 309.72L826.57 284.82 835.17 330.72C835.37 331.62 836.17 332.32 837.07 332.32 837.07 332.32 837.07 332.32 837.17 332.32 838.07 332.32 838.87 331.72 839.07 330.82L850.67 286.02 908.77 303.42C909.67 303.72 910.67 303.22 911.17 302.42 911.67 301.42 911.47 300.42 910.67 299.82Z" fill="#fe4f32" opacity="1" stroke-width="4" stroke="none"></path><path d="M800.17 188.02L789.87 170.52" stroke="#231f20" stroke-width="4" stroke-linecap="round" stroke-linejoin="round" opacity="1" fill="none"></path><path d="M878.57 206.62L884.67 197.32" stroke="#231f20" stroke-width="4" stroke-linecap="round" stroke-linejoin="round" opacity="1" fill="none"></path><path d="M898.07 335.42L908.37 345.72" stroke="#231f20" stroke-width="4" stroke-linecap="round" stroke-linejoin="round" opacity="1" fill="none"></path><path d="M760.07 264.32H738.37" stroke="#231f20" stroke-width="4" stroke-linecap="round" stroke-linejoin="round" opacity="1" fill="none"></path></g><g><path d="M511.84 433.6C580.82 433.6 636.74 377.68 636.74 308.7 636.74 239.73 580.82 183.81 511.84 183.81 442.87 183.81 386.94 239.73 386.94 308.7 386.94 377.68 442.87 433.6 511.84 433.6Z" fill="#000000" opacity="0.2" stroke-width="4" stroke="none"></path><path d="M511.84 416.21C586.83 416.21 647.62 355.42 647.62 280.43 647.62 205.44 586.83 144.66 511.84 144.66 436.85 144.66 376.06 205.44 376.06 280.43 376.06 355.42 436.85 416.21 511.84 416.21Z" fill="#5da47a" opacity="1" stroke-width="4" stroke="none"></path><path d="M571.64 217.81C558.44 234.86 550.65 231.78 532.4 241.89 497.88 261.07 510.39 313.67 552.19 319.41 603.84 326.52 639.57 297.57 647.45 286.94 647.53 284.8 647.62 282.58 647.62 280.43 647.62 243.26 632.71 209.68 608.56 185.09 591.17 189.72 584.83 200.77 571.64 217.81Z" fill="#ffc930" opacity="1" stroke-width="4" stroke="none"></path><path d="M488.8 172.07C501.05 182.09 519.12 180.21 529.15 167.96 534.03 161.96 536.26 154.34 535.4 146.71 516.38 143.37 496.94 144.14 478.18 148.85 477.92 157.85 481.77 166.42 488.8 172.07Z" fill="#ffc930" opacity="1" stroke-width="4" stroke="none"></path><path d="M520.67 359.59C502.25 344.68 475.35 347.51 460.44 365.93 452.22 376.12 449.05 389.57 451.96 402.33 476.29 414.24 503.62 418.7 530.43 415.01 541.4 396.68 537.28 373.04 520.67 359.59Z" fill="#ffc930" opacity="1" stroke-width="4" stroke="none"></path><path d="M566.84 262.62C558.53 258.59 548.51 262.02 544.48 270.41 540.45 278.72 543.88 288.74 552.27 292.77 560.58 296.8 570.61 293.37 574.63 285.06 578.66 276.67 575.23 266.64 566.84 262.62Z" fill="#fe4f32" opacity="1" stroke-width="4" stroke="none"></path><path d="M533.51 301.08C528.12 298.51 521.52 300.74 518.87 306.22 516.3 311.62 518.52 318.21 524.01 320.87 529.4 323.44 536 321.21 538.65 315.81 541.22 310.25 538.91 303.73 533.51 301.08Z" fill="#ffffff" opacity="1" stroke-width="4" stroke="none"></path><path d="M622.6 201.88C612.58 204.28 603.76 210.88 598.88 220.98 590.4 238.54 597.68 259.62 615.41 268.27 625.86 273.24 637.51 272.81 647.02 267.84 644.79 243.43 636.05 220.9 622.6 201.88Z" fill="#ffc930" opacity="1" stroke-width="4" stroke="none"></path><path d="M561.44 354.28C556.56 350.34 549.28 351.11 545.34 355.99 541.4 360.87 542.17 368.15 547.05 372.09 551.93 376.04 559.21 375.26 563.15 370.38 567.18 365.5 566.41 358.3 561.44 354.28Z" fill="#ffc930" opacity="1" stroke-width="4" stroke="none"></path><path d="M496.13 188.91C493.84 187.25 487.94 187.4 484.94 191.17 481.86 194.94 482.46 200.51 486.23 203.51 490 206.51 495.57 205.99 498.56 202.22 501.65 198.54 500.29 193.01 497.42 190.07 497.01 189.65 497.12 189.66 496.93 189.59Z" fill="#ffc930" opacity="1" stroke-width="4" stroke="none"></path><path d="M449.48 339.29C444.51 335.34 437.31 336.12 433.37 341 429.43 345.97 430.2 353.16 435.09 357.1 440.06 361.04 447.25 360.27 451.19 355.39 455.22 350.51 454.45 343.31 449.48 339.29Z" fill="#ffc930" opacity="1" stroke-width="4" stroke="none"></path><path d="M451.88 208.22C457.62 212.85 466.01 211.99 470.72 206.25 475.35 200.51 474.49 192.11 468.75 187.4 463.01 182.78 454.62 183.63 449.99 189.37 445.2 195.11 446.14 203.59 451.88 208.22Z" fill="#ffffff" opacity="1" stroke-width="4" stroke="none"></path><path d="M594.25 358.82C587.48 367.21 588.43 379.38 596.39 386.66 598.96 384.6 601.53 382.37 604.02 380.15 611.55 373.21 618.24 365.41 623.98 357.02 623.55 356.59 623.12 356.25 622.69 355.9 614.04 348.79 601.27 350.16 594.25 358.82Z" fill="#fe4f32" opacity="1" stroke-width="4" stroke="none"></path><path d="M444.85 306.39C466.8 306.39 484.6 288.6 484.6 266.64 484.6 244.69 466.8 226.89 444.85 226.89 422.9 226.89 405.1 244.69 405.1 266.64 405.1 288.6 422.9 306.39 444.85 306.39Z" fill="#ffc930" opacity="1" stroke-width="4" stroke="none"></path><path d="M409.64 254.65C414.99 254.65 419.32 250.32 419.32 244.97 419.32 239.62 414.99 235.29 409.64 235.29 404.3 235.29 399.96 239.62 399.96 244.97 399.96 250.32 404.3 254.65 409.64 254.65Z" fill="#fe4f32" opacity="1" stroke-width="4" stroke="none"></path></g><g><path d="M761.96 874.33H735.89V1038.98H761.96V874.33Z" fill="#231f20" opacity="1" stroke-width="4" stroke="none"></path><path d="M620.94 709.58L647.2 858.45H794.98L768.73 709.58C766.38 696.32 753.75 685.58 740.49 685.58H640.7C627.44 685.58 618.6 696.32 620.94 709.58ZM682.92 796.19H726.59C731.65 796.37 735.98 799.98 736.97 805.03 737.87 809.91 734.53 813.88 729.66 813.88H685.99C680.85 813.7 676.61 810.09 675.62 805.03 674.8 800.16 678.05 796.19 682.92 796.19Z" fill="#fe4f32" opacity="1" stroke-width="4" stroke="none"></path><path d="M644.31 842.03L647.2 858.45H794.98L788.49 821.82 644.31 842.03Z" fill="#6d514d" opacity="0.2" stroke-width="4" stroke="none"></path><path d="M813.66 1045.21H683.65C676.7 1045.21 671.01 1039.52 671.01 1032.58V1031.86C671.01 1024.91 676.7 1019.22 683.65 1019.22H813.66C820.61 1019.22 826.29 1024.91 826.29 1031.86V1032.58C826.29 1039.62 820.61 1045.21 813.66 1045.21Z" fill="#fe4f32" opacity="1" stroke-width="4" stroke="none"></path><path d="M813.21 1071.28C820.38 1071.28 826.2 1065.46 826.2 1058.29 826.2 1051.12 820.38 1045.3 813.21 1045.3 806.03 1045.3 800.21 1051.12 800.21 1058.29 800.21 1065.46 806.03 1071.28 813.21 1071.28Z" fill="#231f20" opacity="1" stroke-width="4" stroke="none"></path><path d="M748.61 1071.28C755.78 1071.28 761.6 1065.46 761.6 1058.29 761.6 1051.12 755.78 1045.3 748.61 1045.3 741.43 1045.3 735.61 1051.12 735.61 1058.29 735.61 1065.46 741.43 1071.28 748.61 1071.28Z" fill="#231f20" opacity="1" stroke-width="4" stroke="none"></path><path d="M684.01 1071.28C691.18 1071.28 697 1065.46 697 1058.29 697 1051.12 691.18 1045.3 684.01 1045.3 676.83 1045.3 671.01 1051.12 671.01 1058.29 671.01 1065.46 676.83 1071.28 684.01 1071.28Z" fill="#231f20" opacity="1" stroke-width="4" stroke="none"></path><path d="M905.69 874.33H772.88C765.93 874.33 760.25 868.64 760.25 861.69V860.97C760.25 854.03 765.93 848.34 772.88 848.34H905.69C912.63 848.34 918.32 854.03 918.32 860.97V861.69C918.32 868.64 912.63 874.33 905.69 874.33Z" fill="#fe4f32" opacity="1" stroke-width="4" stroke="none"></path><path d="M794.08 874.33H647.38C640.43 874.33 634.75 868.64 634.75 861.69V860.97C634.75 854.03 640.43 848.34 647.38 848.34H794.08C801.03 848.34 806.71 854.03 806.71 860.97V861.69C806.71 868.64 801.12 874.33 794.08 874.33Z" fill="#fe4f32" opacity="1" stroke-width="4" stroke="none"></path><path d="M792.82 846.45H645.93" stroke="#6d514d" stroke-width="4" stroke-linecap="round" stroke-linejoin="round" opacity="1" fill="none"></path></g><g><path d="M945.59 543.32L988.19 569.8 1007.01 529 990.62 481.99C979.09 482.8 970.09 485.14 970.09 485.14L945.59 543.32Z" fill="#ac704e" opacity="1" stroke-width="4" stroke="none"></path><path d="M714.65 548.82C714.65 548.82 713.66 524.23 713.21 516.93 711.77 493.07 714.2 475.41 713.84 465.32 713.21 443.53 727.35 425.15 750.14 423.98 751.67 423.89 753.74 422.54 755.18 422.54 774.82 422.54 790.4 427.5 799.77 440.02 805.8 448.03 807.06 462.26 808.14 473.61 808.59 478.74 809.13 483.61 809.86 487.03 813.46 509.01 814.18 519.09 806.79 528.55 800.31 536.93 789.41 538.19 783.47 538.19 781.57 538.19 778.78 538.01 777.07 537.83L778.15 547.83 714.65 548.82Z" fill="#ac704e" opacity="1" stroke-width="4" stroke="none"></path><path d="M758.79 532.51L771.85 548.19 778.06 547.92 776.98 537.92C777.07 537.92 769.24 536.84 758.79 532.51Z" fill="#23211f" opacity="0.2" stroke-width="4" stroke="none"></path><path d="M710.06 462.44C710.15 467.04 712.31 505.76 713.75 528.28 735.46 525.58 742.85 522.7 742.85 522.7 742.85 522.7 719.52 510 723.48 494.33 728.79 481.54 749.51 489.64 749.51 489.64 749.51 489.64 753.2 476.31 749.78 458.93 760.05 464.33 781.84 463.16 793.19 459.74 800.94 457.4 805.26 452.26 805.26 452.26 804.36 448.57 802.47 444.16 802.47 444.16 802.47 444.16 800.76 440.92 799.86 439.93 790.58 427.41 774.46 420.47 754.82 420.47 753.29 420.47 751.58 420.47 750.14 420.56 727.35 421.82 709.34 440.56 710.06 462.44Z" fill="#221f1f" opacity="1" stroke-width="4" stroke="none"></path><path d="M788.06 498.11L788.24 497.93C789.23 497.03 789.59 495.68 789.23 494.33L788.6 492.07" stroke="#23211f" stroke-width="4" stroke-linecap="round" stroke-linejoin="round" opacity="1" fill="none"></path><path d="M781.66 507.84L790.76 510" stroke="#23211f" stroke-width="4" stroke-linecap="round" stroke-linejoin="round" opacity="1" fill="none"></path><path d="M772.84 487.93C774.33 487.93 775.54 486.72 775.54 485.23 775.54 483.73 774.33 482.53 772.84 482.53 771.35 482.53 770.14 483.73 770.14 485.23 770.14 486.72 771.35 487.93 772.84 487.93Z" fill="#221f1f" opacity="1" stroke-width="4" stroke="none"></path><path d="M800.13 485.23C801.62 485.23 802.83 484.02 802.83 482.53 802.83 481.03 801.62 479.83 800.13 479.83 798.64 479.83 797.43 481.03 797.43 482.53 797.43 484.02 798.64 485.23 800.13 485.23Z" fill="#221f1f" opacity="1" stroke-width="4" stroke="none"></path><path d="M982.97 1026.18L1006.2 991.86C1003.05 983.03 1000.44 972.68 999.18 963.22L902.81 963.31C905.78 984.38 909.11 1002.58 912.44 1017.62L921.27 1032.12C921.27 1032.12 977.2 1026.18 982.97 1026.18Z" fill="#ac704e" opacity="1" stroke-width="4" stroke="none"></path><path d="M763.83 809.83C778.15 846.67 823.28 849.73 823.28 849.73H895.96C895.96 849.73 894.88 878.73 897.85 918.36 898.75 930.88 900.19 944.3 901.99 958.35 902.17 960.07 902.54 961.78 902.72 963.49L999.27 963.67C997.11 949.98 995.85 934.4 994.85 918.36 991.61 863.6 990.53 801.1 960.36 770.92 920.37 731.02 809.86 723.82 809.86 723.82H763.83C763.74 723.82 749.42 773.18 763.83 809.83Z" fill="#ffc930" opacity="1" stroke-width="4" stroke="none"></path><path d="M965.49 1017.71L912.35 1017.62C915.68 1032.66 918.84 1044.55 921.36 1053.38L1065.11 1053.47C1063.94 1050.85 1062.5 1048.33 1060.78 1046.26 1047 1029.42 1024.94 1022.21 1012.69 1004.29 1009.9 1000.15 1007.64 995.64 1005.93 990.87H973.69C973.15 990.87 972.61 990.87 972.16 990.96 966.39 991.86 962.61 997.08 963.42 1002.76L965.49 1017.71Z" fill="#231f20" opacity="1" stroke-width="4" stroke="none"></path><path d="M921.27 1053.47C925.05 1066.44 927.57 1072.92 927.57 1072.92H1067.72C1068.44 1066.26 1067.54 1059.59 1065.11 1053.47H921.27Z" fill="#5da47a" opacity="1" stroke-width="4" stroke="none"></path><path d="M906.23 849.64C906.23 849.64 905.15 878.64 908.12 918.27 909.02 930.79 910.46 944.21 912.26 958.26 912.44 959.98 912.8 961.69 912.98 963.4 915.96 984.47 919.29 1002.67 922.62 1017.71 925.95 1032.75 929.11 1044.64 931.63 1053.56 935.41 1066.53 937.93 1073.01 937.93 1073.01H1011.43C1012.15 1066.35 1011.16 1059.68 1008.72 1053.56 1007.55 1050.94 1006.11 1048.6 1004.4 1046.35 979.81 1013.57 946.94 1021.76 949.1 963.4 952.25 876.39 967.47 797.49 913.16 797.49 831.92 797.49 906.23 849.64 906.23 849.64Z" fill="#000000" opacity="0.2" stroke-width="4" stroke="none"></path><path d="M925.59 990.96C925.05 982.49 925.05 973.31 925.5 963.4L823.46 963.22C824.72 982.76 827.06 1001.5 829.4 1017.71L831.29 1025.36 924.87 1027.62 925.59 990.96Z" fill="#ac704e" opacity="1" stroke-width="4" stroke="none"></path><path d="M829.31 1017.71C831.38 1031.94 833.72 1044.73 835.61 1054.01L977.02 1053.56C975.85 1050.94 974.41 1048.51 972.7 1046.35 958.92 1029.42 929.74 1023.83 926.67 1002.31 926.13 998.7 925.68 994.92 925.5 990.96H891.73C891.19 990.96 890.65 990.96 890.2 991.05 884.43 991.95 880.65 997.17 881.46 1002.85L883.62 1017.71H829.31V1017.71Z" fill="#231f20" opacity="1" stroke-width="4" stroke="none"></path><path d="M675.56 809.83C689.89 846.67 735.01 850.81 735.01 850.81H825.35C825.35 850.81 821.47 874.32 821.74 918.27 821.83 930.25 822.1 943.58 823.01 958.26 823.19 959.98 823.37 962.41 823.46 964.12L925.05 964.03C925.59 949.89 927.21 933.95 928.56 918.27 933.52 859.73 939.46 796.05 914.24 770.83 875.33 731.92 787.34 723.73 787.34 723.73H675.65C675.65 723.82 661.33 773.18 675.56 809.83Z" fill="#ffc930" opacity="1" stroke-width="4" stroke="none"></path><path d="M831.2 819.38C813.01 819.38 802.38 844.69 777.61 850.81 756.54 850.81 825.35 850.81 825.35 850.81 825.35 850.81 827.24 838.56 831.2 819.38Z" fill="#000000" opacity="0.2" stroke-width="4" stroke="none"></path><path d="M669.8 783.44C709.52 783.44 732.22 741.92 757.53 744.26 765.72 744.26 783.47 764.62 793.73 765.61 809.04 767.14 775.9 723.73 775.9 723.73H675.65C675.65 723.82 667.19 753.18 669.8 783.44Z" fill="#000000" opacity="0.2" stroke-width="4" stroke="none"></path><path d="M828.59 833.61C828.59 833.61 827.15 839.65 825.44 849.73" stroke="#000000" stroke-width="4" stroke-linecap="round" stroke-linejoin="round" opacity="1" fill="none"></path><path d="M835.43 1053.47C837.78 1065.63 839.49 1072.92 839.49 1072.92H979.63C980.35 1066.26 979.45 1059.59 977.02 1053.47H835.43Z" fill="#5da47a" opacity="1" stroke-width="4" stroke="none"></path><path d="M816.88 656.72L805.62 727.06 761.85 724.99 750.23 736.43 683.58 736.61C671.15 736.61 648.99 732.92 640.08 708.24 635.12 694.37 636.48 669.6 641.52 641.95 653.68 586.38 666.29 576.11 675.38 568.09 687.54 558.54 715.01 555.57 715.01 555.57L714.47 545.48H777.88L778.78 555.93C778.78 555.93 798.6 557.1 829.13 571.6 863.9 588.09 885.6 600.25 885.6 600.25 893.44 585.47 930.91 527.56 930.91 527.56L988.1 569.8C988.1 569.8 956.4 642.4 923.79 667.08 891.73 691.48 816.97 656.72 816.88 656.72Z" fill="#5da47a" opacity="1" stroke-width="4" stroke="none"></path><path d="M830.03 642.85C825.71 628.08 821.38 628.98 821.38 628.98L817.06 656.81C817.06 656.81 828.68 662.3 844.8 667.35 844.71 667.26 834.35 657.62 830.03 642.85Z" fill="#000000" opacity="0.2" stroke-width="4" stroke="none"></path><path d="M746 505.95L739.06 502.97" stroke="#23211f" stroke-width="4" stroke-linecap="round" stroke-linejoin="round" opacity="1" fill="none"></path><path d="M740.41 671.94C740.23 671.94 716.64 669.15 703.85 668.16H703.67L710.78 623.39H710.96C717.63 623.39 719.7 630.69 722.22 639.79 725.19 650.5 728.16 663.47 740.59 671.58L740.41 671.94Z" fill="#000000" opacity="0.2" stroke-width="4" stroke="none"></path><path d="M1013.32 1025.09L1026.38 1017.26" stroke="#5da47a" stroke-width="4" stroke-linecap="round" stroke-linejoin="round" opacity="1" fill="none"></path><path d="M1024.58 1035.45L1035.93 1025.09" stroke="#5da47a" stroke-width="4" stroke-linecap="round" stroke-linejoin="round" opacity="1" fill="none"></path><path d="M767.88 629.7L800.85 560.53C786.98 556.38 778.78 555.93 778.78 555.93L777.88 545.48H714.47L715.01 555.57C715.01 555.57 703.67 556.83 692.23 560.26L767.88 629.7Z" fill="#424242" opacity="1" stroke-width="4" stroke="none"></path><path d="M703.58 669.42L709.52 630.06" stroke="#000000" stroke-width="4" stroke-linecap="round" stroke-linejoin="round" opacity="1" fill="none"></path><path d="M837.06 774.98C835.52 775.88 833.72 776.33 831.92 776.33 821.11 776.33 810.94 758.49 807.15 751.47 808.41 755.7 808.95 762.46 806.88 765.61 805.98 766.96 804.72 767.68 803.01 767.68 799.32 767.68 795.8 761.83 791.66 754.98 786.44 746.43 780.4 736.52 772.84 736.52L749.51 736.43 754.55 674.1H754.73C770.05 675.63 792.65 681.85 803.01 685.63 824.72 693.56 844.71 706.8 849.4 712.92 851.02 715.08 851.56 717.06 850.84 718.86 849.31 722.83 842.28 724.09 840.48 724.36 846.33 732.47 852.64 746.16 854.35 751.38 856.51 757.68 856.69 762.28 854.89 764.8 853.54 766.51 851.74 766.78 850.75 766.78 850.57 766.78 850.39 766.78 850.3 766.78 849.67 775.16 846.15 776.87 843.18 776.87 840.39 776.87 837.69 775.25 837.06 774.98Z" fill="#ac704e" opacity="1" stroke-width="4" stroke="none"></path><path d="M689.62 668.88C727.89 670.86 754.55 674.46 754.55 674.46" stroke="#000000" stroke-width="4" stroke-linecap="round" stroke-linejoin="round" opacity="1" fill="none"></path><path d="M821.56 720.31C821.56 720.31 840.66 745.52 850.12 766.6" stroke="#23211f" stroke-width="4" stroke-linecap="round" stroke-linejoin="round" opacity="1" fill="none"></path><path d="M809.41 727.24C809.41 727.24 829.58 758.49 837.06 774.62" stroke="#23211f" stroke-width="4" stroke-linecap="round" stroke-linejoin="round" opacity="1" fill="none"></path><path d="M797.7 734.45L805.89 748.5" stroke="#23211f" stroke-width="4" stroke-linecap="round" stroke-linejoin="round" opacity="1" fill="none"></path><path d="M1015.21 551.97L990.53 510.09V477.03H993.86C996.93 476.67 999.36 474.24 999.36 471.27V470.91C999.36 467.94 996.93 465.5 993.95 465.5H966.66C963.69 465.5 961.26 467.94 961.26 470.91V471.27C961.26 474.24 963.69 476.67 966.57 477.03H970V510.09C965.13 518.28 960.36 526.39 955.49 534.59 949.46 544.76 959.1 553.14 952.97 563.32 952.61 563.86 950.09 561.88 950.09 563.23 950 565.39 947.48 565.57 949.37 566.74 950.27 567.28 943.34 570.79 944.42 570.79L1015.12 570.16C1018.54 570.16 1015.84 571.42 1015.84 568.09 1015.93 567.1 1015.75 552.87 1015.21 551.97Z" fill="#f2dad6" opacity="1" stroke-width="4" stroke="none"></path><path d="M1023.05 565.12L1008.09 539.72C970.27 571.42 982.43 524.95 955.4 534.68L937.39 565.12C935.68 568.09 936.67 571.69 939.46 573.5 940.36 574.04 941.44 574.31 942.53 574.31H1017.82C1021.24 574.31 1023.95 571.51 1023.95 568.18 1023.95 567.1 1023.68 566.02 1023.05 565.12Z" fill="#fe4f32" opacity="1" stroke-width="4" stroke="none"></path><path d="M997.74 556.11C996.21 555.3 995.03 554.04 994.58 552.42 994.04 550.35 994.58 547.92 996.12 545.48 996.03 545.48 993.77 545.39 991.7 544.31 990.44 543.68 989.54 542.87 989 541.79 986.39 536.93 990.17 530.26 990.26 530.17 990.17 530.17 987.56 530.71 985.13 529.45 984.14 528.91 983.42 528.19 982.79 527.38 979.63 522.79 983.33 516.12 983.33 516.03 983.33 516.03 978.91 510.18 983.6 502.88 985.13 500.54 987.83 498.29 990.53 496.4V481.99C994.85 481.36 1002.6 482.44 1006.11 484.24 1007.37 484.96 1008.54 485.77 1009.45 486.76 1015.57 493.43 1011.25 501.62 1011.16 501.71 1011.16 501.71 1013.23 501.98 1015.39 503.06 1018.9 504.86 1022.42 508.56 1020.07 516.03 1020.16 516.03 1022.23 517.83 1023.5 520.72 1024.67 523.42 1025.21 527.47 1021.42 531.88 1021.6 531.97 1024.4 533.78 1025.03 537.11 1025.57 539.81 1024.49 542.87 1022.05 545.94 1015.57 554.31 1005.12 556.11 1001.7 556.74 1000.35 557.01 999 556.74 997.74 556.11Z" fill="#ac704e" opacity="1" stroke-width="4" stroke="none"></path><path d="M1010.53 501.62C1003.41 510.9 994.13 516.03 983.33 516.03" stroke="#23211f" stroke-width="4" stroke-linecap="round" stroke-linejoin="round" opacity="1" fill="none"></path><path d="M1020.07 516.03C1015.21 523.69 998.46 530.35 990.26 530.17" stroke="#23211f" stroke-width="4" stroke-linecap="round" stroke-linejoin="round" opacity="1" fill="none"></path><path d="M1021.42 531.88C1010.35 543.95 996.21 545.39 996.21 545.39" stroke="#23211f" stroke-width="4" stroke-linecap="round" stroke-linejoin="round" opacity="1" fill="none"></path><path d="M929.83 529.09L950.27 543.32 965.58 517.47C965.58 517.47 1001.07 515.13 997.2 501.62 995.48 496.4 970 496.76 970 496.76V485.14C951.08 495.05 929.83 529.09 929.83 529.09Z" fill="#ac704e" opacity="1" stroke-width="4" stroke="none"></path><path d="M807.86 495.76C815.67 494.52 821 487.15 819.75 479.29 818.51 471.43 811.17 466.05 803.35 467.3 795.54 468.53 790.22 475.9 791.46 483.76 792.71 491.62 800.05 496.99 807.86 495.76Z" stroke="#000000" stroke-width="4" stroke-linecap="round" stroke-linejoin="round" opacity="1" fill="none"></path><path d="M771.38 498.64C779.2 497.41 784.52 490.03 783.28 482.17 782.03 474.31 774.69 468.94 766.88 470.17 759.07 471.41 753.74 478.78 754.99 486.64 756.23 494.51 763.57 499.87 771.38 498.64Z" stroke="#000000" stroke-width="4" stroke-linecap="round" stroke-linejoin="round" opacity="1" fill="none"></path><path d="M764.91 534.23C764.91 534.23 770.14 536.84 777.97 537.92" stroke="#23211f" stroke-width="4" stroke-linecap="round" stroke-linejoin="round" opacity="1" fill="none"></path><path d="M692.23 560.35L767.88 629.7 800.85 560.53" stroke="#000000" stroke-width="4" stroke-linecap="round" stroke-linejoin="round" opacity="1" fill="none"></path><path d="M724.02 555.12L715.01 555.57" stroke="#000000" stroke-width="4" stroke-linecap="round" stroke-linejoin="round" opacity="1" fill="none"></path><path d="M819.58 639.34L816.97 656.72" stroke="#000000" stroke-width="4" stroke-linecap="round" stroke-linejoin="round" opacity="1" fill="none"></path><path d="M893.44 604.57L885.6 600.25" stroke="#000000" stroke-width="4" stroke-linecap="round" stroke-linejoin="round" opacity="1" fill="none"></path><path d="M976.12 1051.48C974.95 1048.87 974.41 1048.51 972.7 1046.35 958.92 1029.42 929.74 1023.83 926.67 1002.31 926.13 998.7 925.68 994.92 925.5 990.96 924.96 982.49 924.96 973.31 925.41 963.4 926.13 949.26 927.3 933.95 928.65 918.27 933.61 859.73 939.55 796.05 914.33 770.83 903.53 760.03 889.12 751.65 873.8 745.16" stroke="#000000" stroke-width="4" stroke-linecap="round" opacity="1" fill="none"></path><path d="M925.59 1025.09L938.65 1017.26" stroke="#5da47a" stroke-width="4" stroke-linecap="round" stroke-linejoin="round" opacity="1" fill="none"></path><path d="M936.85 1035.45L948.2 1025.09" stroke="#5da47a" stroke-width="4" stroke-linecap="round" stroke-linejoin="round" opacity="1" fill="none"></path></g><g><path d="M536.89 663.65C536.89 663.65 542.87 647.38 540.28 641.41 530.32 645.01 519.35 644.9 509.39 641.29 507.21 648.88 516.83 668.01 516.83 668.01L536.89 663.65Z" fill="#670f01" opacity="1" stroke-width="4" stroke="none"></path><path d="M553.8 640.24C543.85 637.61 533.1 642.53 524.76 652.27 516.42 642.57 505.67 637.65 495.71 640.24 479.25 644.56 471.1 667.9 477.52 692.28 483.95 716.67 502.51 732.98 518.97 728.62 521 728.09 522.95 727.23 524.76 726.14 526.56 727.27 528.51 728.09 530.54 728.62 547 732.94 565.56 716.67 571.99 692.25 578.41 667.82 570.26 644.6 553.8 640.24Z" fill="#fe4f32" opacity="1" stroke-width="4" stroke="none"></path><path d="M536.37 686.48C538.72 683.47 539.47 680.13 538.04 679.02 536.62 677.91 533.56 679.45 531.22 682.47 528.87 685.48 528.12 688.82 529.54 689.93 530.97 691.04 534.03 689.5 536.37 686.48Z" fill="#060606" opacity="1" stroke-width="4" stroke="none"></path><path d="M520.03 689.93C521.45 688.82 520.7 685.48 518.35 682.47 516.01 679.45 512.95 677.91 511.53 679.02 510.1 680.13 510.85 683.47 513.2 686.48 515.54 689.5 518.6 691.04 520.03 689.93Z" fill="#060606" opacity="1" stroke-width="4" stroke="none"></path><path d="M519.01 622.47C525.47 626.57 527.39 635.13 527.54 635.73 527.54 635.77 527.54 635.77 527.5 635.77 526.9 635.92 518.33 637.76 511.87 633.63 505.41 629.5 503.49 620.93 503.34 620.37 503.34 620.33 503.34 620.33 503.38 620.33 503.94 620.18 512.58 618.34 519.01 622.47Z" fill="#000000" opacity="1" stroke-width="4" stroke="none"></path><path d="M519.01 622.47C525.32 626.49 527.31 634.76 527.54 635.7 527.54 635.73 527.5 635.73 527.46 635.73L503.41 620.4C503.38 620.4 503.38 620.33 503.41 620.33 504.35 620.1 512.73 618.45 519.01 622.47Z" fill="#231f20" opacity="1" stroke-width="4" stroke="none"></path><path d="M524.61 652C524.61 652 524.61 638.21 532.87 626.83" stroke="#000000" stroke-width="4" stroke-linecap="round" stroke-linejoin="round" opacity="1" fill="none"></path><path d="M573.27 665.42C573.27 665.38 573.19 665.38 573.19 665.42 569.4 683.9 554.44 701.68 532.5 710.81 517.54 717.05 502.02 718.14 488.65 714.94 488.61 714.94 488.57 714.98 488.61 715.02 497.14 725.8 508.49 731.4 518.97 728.62 521 728.09 522.95 727.23 524.76 726.14 526.56 727.27 528.51 728.09 530.54 728.62 547 732.94 565.56 716.67 571.99 692.25 574.51 682.78 574.77 673.46 573.27 665.42Z" fill="#670f01" opacity="0.2" stroke-width="4" stroke="none"></path></g><g><path d="M1032.39 602.76H1058.06V696.92C1058.06 703.82 1052.5 709.38 1045.61 709.38H1044.84C1037.94 709.38 1032.39 703.82 1032.39 696.92V602.76Z" fill="#ffffff" opacity="1" stroke-width="4" stroke="none"></path><path d="M1050.59 602.76V696.92C1050.59 702.67 1046.76 707.46 1041.49 708.9 1042.54 709.18 1043.69 709.38 1044.84 709.38H1045.61C1052.5 709.38 1058.06 703.82 1058.06 696.92V602.76H1050.59Z" fill="#d7d7d7" opacity="0.2" stroke-width="4" stroke="none"></path><path d="M1032.39 675.85H1058.06V696.92C1058.06 703.82 1052.5 709.38 1045.61 709.38H1044.84C1037.94 709.38 1032.39 703.82 1032.39 696.92V675.85Z" fill="#fe4f32" opacity="1" stroke-width="4" stroke="none"></path><path d="M1078.75 602.76H1104.42V696.92C1104.42 703.82 1098.87 709.38 1091.97 709.38H1091.2C1084.31 709.38 1078.75 703.82 1078.75 696.92V602.76Z" fill="#ffffff" opacity="1" stroke-width="4" stroke="none"></path><path d="M1096.95 602.76V696.92C1096.95 702.67 1093.12 707.46 1087.85 708.9 1088.9 709.18 1090.05 709.38 1091.2 709.38H1091.97C1098.87 709.38 1104.42 703.82 1104.42 696.92V602.76H1096.95Z" fill="#d7d7d7" opacity="0.2" stroke-width="4" stroke="none"></path><path d="M1078.75 643.28H1104.42V696.92C1104.42 703.82 1098.87 709.38 1091.97 709.38H1091.2C1084.31 709.38 1078.75 703.82 1078.75 696.92V643.28Z" fill="#ffc930" opacity="1" stroke-width="4" stroke="none"></path><path d="M1125.11 602.76H1150.78V696.92C1150.78 703.82 1145.23 709.38 1138.33 709.38H1137.56C1130.67 709.38 1125.11 703.82 1125.11 696.92V602.76Z" fill="#ffffff" opacity="1" stroke-width="4" stroke="none"></path><path d="M1143.31 602.76V696.92C1143.31 702.67 1139.48 707.46 1134.21 708.9 1135.26 709.18 1136.41 709.38 1137.56 709.38H1138.33C1145.23 709.38 1150.78 703.82 1150.78 696.92V602.76H1143.31Z" fill="#d7d7d7" opacity="0.2" stroke-width="4" stroke="none"></path><path d="M1125.11 658.99H1150.78V696.92C1150.78 703.82 1145.23 709.38 1138.33 709.38H1137.56C1130.67 709.38 1125.11 703.82 1125.11 696.92V658.99Z" fill="#5da47a" opacity="1" stroke-width="4" stroke="none"></path><path d="M1175.59 728.15V645.01C1175.69 636.48 1168.79 629.49 1160.27 629.49H1022.71C1014.19 629.58 1007.29 636.48 1007.39 645.01V728.15" stroke="#231f20" stroke-width="4" opacity="1" fill="none"></path><path d="M1029.52 602.76H1061.13" stroke="#ffffff" stroke-width="4" stroke-linecap="round" stroke-linejoin="round" opacity="1" fill="none"></path><path d="M1075.97 602.76H1107.49" stroke="#ffffff" stroke-width="4" stroke-linecap="round" stroke-linejoin="round" opacity="1" fill="none"></path><path d="M1122.33 602.76H1153.94" stroke="#ffffff" stroke-width="4" stroke-linecap="round" stroke-linejoin="round" opacity="1" fill="none"></path></g><g><path d="M1200.25 726.8H450V753.6H1200.25V726.8Z" fill="#231f20" opacity="1" stroke-width="4" stroke="none"></path></g></svg>