<svg xmlns="http://www.w3.org/2000/svg" height="1200" width="1600" version="1.1" xmlns:xlink="http://www.w3.org/1999/xlink" xmlns:svgjs="http://svgjs.com/svgjs"><rect fill="#f3ebe9" width="1600" height="1200"></rect><g><path d="M979.56 256.33C1031.7 282.56 1061.44 356.77 1044.81 414.66 1028.18 472.24 964.85 513.5 912.71 555.08 860.57 596.34 819.31 638.56 764.3 652.32 709.6 666.39 640.51 652.32 600.85 610.73 561.51 569.15 551.27 500.06 558.31 438.65 565.67 376.92 590.29 322.54 629.96 296.31 669.62 270.09 724 272.33 788.29 262.41 852.9 252.17 927.1 230.1 979.56 256.33Z" fill="#ffffff" opacity="1" stroke-width="4" stroke="none"></path></g><g><path d="M1061.61 828.79L1127.43 913.74 1182.95 819.83 1227.2 962.52 1321.22 845.27" stroke="#ffffff" stroke-width="4" stroke-linecap="round" stroke-linejoin="round" opacity="1" fill="none"></path></g><g><path d="M419.23 657.02L384.1 728.37 303.88 616.96 294.36 802.68 221.81 720.05 206.59 780.79" stroke="#ffffff" stroke-width="4" stroke-linecap="round" stroke-linejoin="round" opacity="1" fill="none"></path></g><g><path d="M436.1 866.82C437.79 879.63 435.68 902.91 412.5 911.05 389.54 919.1 377.9 915.5 358.75 932.32 342.03 947.03 343.51 976.77 343.51 976.77L400.01 990.1C400.01 990.1 400.23 969.04 412.61 958.67 434.41 940.37 461.07 950.63 481.07 925.76 496.31 906.72 493.03 881.21 493.03 881.21L436.1 866.82Z" fill="#ffc930" opacity="1" stroke-width="4" stroke="none"></path></g><g><path d="M1249.23 395.86C1250.32 407.81 1256.94 428.65 1279.66 431.42 1302.28 434.18 1312.05 428.45 1332.99 440.01 1351.17 449.99 1355.91 477.44 1355.91 477.44L1307.02 500.95C1307.02 500.95 1302.57 481.79 1289.24 474.78 1265.63 462.43 1243.41 477.25 1220.19 458.58 1202.51 444.36 1200.34 420.35 1200.34 420.35L1249.23 395.86Z" fill="#1c5f37" opacity="1" stroke-width="4" stroke="none"></path></g><g><path d="M557.66 948.68V961.12" stroke="#ffffff" stroke-width="4" stroke-linecap="round" stroke-linejoin="round" opacity="1" fill="none"></path><path d="M557.66 996.44V1008.89" stroke="#ffffff" stroke-width="4" stroke-linecap="round" stroke-linejoin="round" opacity="1" fill="none"></path><path d="M587.77 978.78H575.32" stroke="#ffffff" stroke-width="4" stroke-linecap="round" stroke-linejoin="round" opacity="1" fill="none"></path><path d="M540 978.78H527.56" stroke="#ffffff" stroke-width="4" stroke-linecap="round" stroke-linejoin="round" opacity="1" fill="none"></path><path d="M536.39 957.51L545.15 966.27" stroke="#ffffff" stroke-width="4" stroke-linecap="round" stroke-linejoin="round" opacity="1" fill="none"></path><path d="M570.17 991.29L578.94 1000.06" stroke="#ffffff" stroke-width="4" stroke-linecap="round" stroke-linejoin="round" opacity="1" fill="none"></path><path d="M578.94 957.51L570.17 966.27" stroke="#ffffff" stroke-width="4" stroke-linecap="round" stroke-linejoin="round" opacity="1" fill="none"></path><path d="M545.15 991.29L536.39 1000.06" stroke="#ffffff" stroke-width="4" stroke-linecap="round" stroke-linejoin="round" opacity="1" fill="none"></path></g><g><path d="M1366.9 717.45L1343.58 709.89 1324.05 724.75 1324.08 700.3 1304.05 686.37 1327.31 678.76 1334.17 655.34 1348.64 675.18 1373.17 674.51 1358.74 694.3 1366.9 717.45Z" fill="#ffc930" opacity="1" stroke-width="4" stroke="none"></path></g><g><path d="M1273.93 631.86C1282.6 631.86 1289.64 624.82 1289.64 616.14 1289.64 607.46 1282.6 600.43 1273.93 600.43 1265.25 600.43 1258.21 607.46 1258.21 616.14 1258.21 624.82 1265.25 631.86 1273.93 631.86Z" fill="#ffffff" opacity="1" stroke-width="4" stroke="none"></path></g><g><path d="M429 522.58L405.84 519.17 389.82 536.27 385.96 513.25 364.88 503.32 385.58 492.45 388.31 469.31 405.09 485.69 428.08 481.15 417.64 502.08 429 522.58Z" fill="#ffffff" opacity="1" stroke-width="4" stroke="none"></path></g><g><path d="M310.15 472.23C319.26 472.23 326.65 464.84 326.65 455.73 326.65 446.62 319.26 439.23 310.15 439.23 301.04 439.23 293.65 446.62 293.65 455.73 293.65 464.84 301.04 472.23 310.15 472.23Z" fill="#efdcd7" opacity="1" stroke-width="4" stroke="none"></path></g><g><path d="M697.18 124.27V135.31" stroke="#ffc930" stroke-width="4" stroke-linecap="round" stroke-linejoin="round" opacity="1" fill="none"></path><path d="M697.18 166.66V177.7" stroke="#ffc930" stroke-width="4" stroke-linecap="round" stroke-linejoin="round" opacity="1" fill="none"></path><path d="M723.9 150.98H712.86" stroke="#ffc930" stroke-width="4" stroke-linecap="round" stroke-linejoin="round" opacity="1" fill="none"></path><path d="M681.51 150.98H670.47" stroke="#ffc930" stroke-width="4" stroke-linecap="round" stroke-linejoin="round" opacity="1" fill="none"></path><path d="M678.3 132.11L686.08 139.88" stroke="#ffc930" stroke-width="4" stroke-linecap="round" stroke-linejoin="round" opacity="1" fill="none"></path><path d="M708.29 162.09L716.06 169.86" stroke="#ffc930" stroke-width="4" stroke-linecap="round" stroke-linejoin="round" opacity="1" fill="none"></path><path d="M716.06 132.11L708.29 139.88" stroke="#ffc930" stroke-width="4" stroke-linecap="round" stroke-linejoin="round" opacity="1" fill="none"></path><path d="M686.08 162.09L678.3 169.86" stroke="#ffc930" stroke-width="4" stroke-linecap="round" stroke-linejoin="round" opacity="1" fill="none"></path></g><g><path d="M1125.69 320.02C1147.41 320.02 1165.03 302.4 1165.03 280.67 1165.03 258.95 1147.41 241.33 1125.69 241.33 1103.96 241.33 1086.34 258.95 1086.34 280.67 1086.34 302.4 1103.96 320.02 1125.69 320.02Z" fill="#231f20" opacity="1" stroke-width="4" stroke="none"></path><path d="M1125.69 402.66C1193.06 402.66 1247.67 348.05 1247.67 280.67 1247.67 213.3 1193.06 158.69 1125.69 158.69 1058.31 158.69 1003.7 213.3 1003.7 280.67 1003.7 348.05 1058.31 402.66 1125.69 402.66Z" stroke="#000000" stroke-width="4" stroke-linecap="round" stroke-linejoin="round" opacity="1" fill="none"></path><path d="M1044 389.54C1055.34 389.54 1064.54 380.35 1064.54 369 1064.54 357.66 1055.34 348.46 1044 348.46 1032.65 348.46 1023.45 357.66 1023.45 369 1023.45 380.35 1032.65 389.54 1044 389.54Z" fill="#1c5f37" opacity="1" stroke-width="4" stroke="none"></path></g><g><path d="M873.05 213.36C870.83 225.42 861.92 245.88 838.53 246.45 815.35 246.95 805.86 240.18 783.47 249.88 764 258.22 756.51 285.68 756.51 285.68L803.79 314.42C803.79 314.42 810.28 295.38 824.48 289.6 849.65 279.4 870.76 296.66 896.3 279.98 915.69 267.28 920.26 243.17 920.26 243.17L873.05 213.36Z" fill="#fe4f32" opacity="1" stroke-width="4" stroke="none"></path></g><g><path d="M545.78 350.53L573.8 322.51 623.43 372.13C631.17 379.88 631.17 392.4 623.43 400.15 615.68 407.9 603.15 407.9 595.4 400.15L545.78 350.53Z" fill="#1c5f37" stroke-linejoin="round" opacity="1" stroke-width="4" stroke="none"></path><path d="M623.43 384.84C615.68 392.58 603.15 392.58 595.4 384.84L553.48 342.91 545.78 350.55 595.4 400.17C603.15 407.92 615.68 407.92 623.43 400.17 629.32 394.28 630.7 385.69 627.67 378.47 626.72 380.8 625.28 382.93 623.43 384.84Z" fill="#000000" opacity="0.2" stroke-width="4" stroke="none"></path><path d="M544.26 308.32L531.54 321.04 553.41 342.92 566.13 330.2 544.26 308.32Z" fill="#1c5f37" opacity="1" stroke-width="4" stroke="none"></path><path d="M554.96 338.91C546.79 331.59 544.03 320.55 547.32 311.37L544.24 308.29 531.5 321.03 553.37 342.89 556.24 340.03C555.86 339.66 555.39 339.28 554.96 338.91Z" fill="#000000" opacity="0.2" stroke-width="4" stroke="none"></path><path d="M537.93 195.08C569.45 225.55 572.53 275.01 545.04 309.13 543.5 311.04 541.85 312.9 540.1 314.71 537.71 317.2 535.11 319.59 532.41 321.77 496.1 351.17 442.82 345.49 413.42 309.19 384.02 272.89 389.69 219.6 426 190.2 459.22 163.34 507.2 165.47 537.93 195.08Z" fill="#1c5f37" opacity="1" stroke-width="4" stroke="none"></path><path d="M479.17 315.4C511.97 315.4 538.56 288.81 538.56 256.01 538.56 223.21 511.97 196.62 479.17 196.62 446.38 196.62 419.79 223.21 419.79 256.01 419.79 288.81 446.38 315.4 479.17 315.4Z" fill="#949494" opacity="1" stroke-width="4" stroke="none"></path><path d="M573.77 322.46C581.3 330.36 580.98 342.89 573.08 350.42 565.43 357.7 553.39 357.75 545.74 350.48L573.77 322.46Z" fill="#ffc930" stroke-linejoin="round" opacity="1" stroke-width="4" stroke="none"></path><path d="M507.67 265.19C512.66 265.19 516.7 261.15 516.7 256.17 516.7 251.18 512.66 247.15 507.67 247.15 502.69 247.15 498.65 251.18 498.65 256.17 498.65 261.15 502.69 265.19 507.67 265.19Z" fill="#fe4f32" opacity="1" stroke-width="4" stroke="none"></path><path d="M479.49 265.19C484.48 265.19 488.52 261.15 488.52 256.17 488.52 251.18 484.48 247.15 479.49 247.15 474.51 247.15 470.47 251.18 470.47 256.17 470.47 261.15 474.51 265.19 479.49 265.19Z" fill="#fe4f32" opacity="1" stroke-width="4" stroke="none"></path><path d="M459.3 260.35C461.61 255.94 459.91 250.48 455.5 248.18 451.08 245.86 445.63 247.56 443.32 251.98 441.01 256.39 442.71 261.85 447.12 264.16 451.53 266.47 456.99 264.77 459.3 260.35Z" fill="#fe4f32" opacity="1" stroke-width="4" stroke="none"></path><path d="M574.49 378.39L601.93 350.9" stroke="#000000" stroke-width="4" stroke-linecap="round" stroke-linejoin="round" opacity="1" fill="none"></path><path d="M583.14 387.04L610.63 359.55" stroke="#000000" stroke-width="4" stroke-linecap="round" stroke-linejoin="round" opacity="1" fill="none"></path><path d="M591.79 395.69L619.29 368.2" stroke="#000000" stroke-width="4" stroke-linecap="round" stroke-linejoin="round" opacity="1" fill="none"></path><path d="M545.14 309.19C543.6 311.1 541.96 312.96 540.21 314.76 537.77 317.25 535.22 319.64 532.51 321.82" stroke="#000000" stroke-width="4" stroke-linecap="round" stroke-linejoin="round" opacity="1" fill="none"></path></g><g><path d="M859.57 863.26H881.83V1063.18C881.83 1066.14 880.66 1068.96 878.57 1071.05 876.49 1073.14 873.66 1074.31 870.7 1074.31V1074.31C867.75 1074.31 864.92 1073.14 862.83 1071.05 860.74 1068.96 859.57 1066.14 859.57 1063.18V1063.18 863.26Z" fill="#fe4f32" opacity="1" stroke-width="4" stroke="none"></path><path d="M859.57 863.26H881.83V1063.18C881.83 1066.14 880.66 1068.96 878.57 1071.05 876.49 1073.14 873.66 1074.31 870.7 1074.31V1074.31C867.75 1074.31 864.92 1073.14 862.83 1071.05 860.74 1068.96 859.57 1066.14 859.57 1063.18V1063.18 863.26Z" fill="#54170c" opacity="0.25" stroke-width="4" stroke="none"></path><path d="M739.79 863.26H762.06V1063.18C762.06 1066.14 760.88 1068.96 758.8 1071.05 756.71 1073.14 753.88 1074.31 750.93 1074.31V1074.31C747.98 1074.31 745.15 1073.14 743.05 1071.05 740.97 1068.96 739.79 1066.14 739.79 1063.18V1063.18 863.26 863.26Z" fill="#fe4f32" opacity="1" stroke-width="4" stroke="none"></path><path d="M739.79 863.26H762.06V1063.18C762.06 1066.14 760.88 1068.96 758.8 1071.05 756.71 1073.14 753.88 1074.31 750.93 1074.31V1074.31C747.98 1074.31 745.15 1073.14 743.05 1071.05 740.97 1068.96 739.79 1066.14 739.79 1063.18V1063.18 863.26 863.26Z" fill="#54170c" opacity="0.25" stroke-width="4" stroke="none"></path><path d="M886.02 849.19H654.1V860.32C654.1 866.47 660.81 871.45 666.95 871.45H671.23V1063.18C671.23 1066.14 672.4 1068.96 674.48 1071.05 676.57 1073.14 679.4 1074.31 682.36 1074.31 685.3 1074.31 688.14 1073.14 690.23 1071.05 692.31 1068.96 693.49 1066.14 693.49 1063.18V1011.26H791V1063.18C791 1066.14 792.17 1068.96 794.26 1071.05 796.34 1073.14 799.17 1074.31 802.13 1074.31 805.08 1074.31 807.91 1073.14 810 1071.05 812.09 1068.96 813.26 1066.14 813.26 1063.18V1011.26H861.26C864.21 1011.26 867.04 1010.09 869.13 1008 871.22 1005.91 872.39 1003.09 872.39 1000.13 872.39 997.17 871.22 994.35 869.13 992.26 867.04 990.18 864.21 989 861.26 989H813.26V871.45H886.02C888.96 871.45 891.8 870.28 893.89 868.19 895.97 866.1 897.15 863.28 897.15 860.32 897.15 857.36 895.97 854.54 893.89 852.45 891.8 850.36 888.96 849.19 886.02 849.19ZM791 989H693.49V871.45H791V989Z" fill="#fe4f32" opacity="1" stroke-width="4" stroke="none"></path><path d="M671.23 871.45V885.88L693.49 896.12V871.45H671.23Z" fill="#54170c" opacity="0.25" stroke-width="4" stroke="none"></path><path d="M791 871.45V885.88L813.26 896.12V871.45H791Z" fill="#54170c" opacity="0.25" stroke-width="4" stroke="none"></path><path d="M779.42 717.57C776.22 699.23 758.76 684.44 740.42 684.44H657.96C639.7 684.44 627.41 699.32 630.71 717.57L645.58 801.99H794.19C794.21 801.99 794.21 801.99 794.22 801.98 794.24 801.97 794.25 801.97 794.26 801.96 794.27 801.95 794.27 801.94 794.28 801.93 794.28 801.91 794.28 801.9 794.28 801.88L779.42 717.57Z" fill="#fe4f32" opacity="1" stroke-width="4" stroke="none"></path><path d="M779.42 717.57C776.22 699.23 758.76 684.44 740.42 684.44H721.27C739.62 684.44 757.07 699.32 760.28 717.57L775.15 801.99H794.19C794.21 801.99 794.21 801.99 794.22 801.98 794.24 801.97 794.25 801.97 794.26 801.96 794.27 801.95 794.27 801.94 794.28 801.93 794.28 801.91 794.28 801.9 794.28 801.88L779.42 717.57Z" fill="#54170c" opacity="0.25" stroke-width="4" stroke="none"></path><path d="M794.29 802.17L802.7 849.19" stroke="#54170c" stroke-width="4" stroke-linecap="round" stroke-linejoin="round" opacity="1" fill="none"></path><path d="M673.63 730.39L679.95 767.44" stroke="#54170c" stroke-width="4" stroke-linecap="round" stroke-linejoin="round" opacity="1" fill="none"></path><path d="M703.28 729.41L709.52 766.37" stroke="#54170c" stroke-width="4" stroke-linecap="round" stroke-linejoin="round" opacity="1" fill="none"></path><path d="M732.94 728.35L739.26 765.39" stroke="#54170c" stroke-width="4" stroke-linecap="round" stroke-linejoin="round" opacity="1" fill="none"></path><path d="M645.58 801.99L654.1 849.19" stroke="#54170c" stroke-width="4" stroke-linecap="round" stroke-linejoin="round" opacity="1" fill="none"></path><path d="M739.88 1011.26H761.26" stroke="#54170c" stroke-width="4" stroke-linecap="round" stroke-linejoin="round" opacity="1" fill="none"></path><path d="M739.88 989H761.26" stroke="#54170c" stroke-width="4" stroke-linecap="round" stroke-linejoin="round" opacity="1" fill="none"></path><path d="M671.31 871.45H693.49" stroke="#54170c" stroke-width="4" stroke-linecap="round" stroke-linejoin="round" opacity="1" fill="none"></path><path d="M739.88 871.45H762.06" stroke="#54170c" stroke-width="4" stroke-linecap="round" stroke-linejoin="round" opacity="1" fill="none"></path><path d="M791 871.45H813.26" stroke="#54170c" stroke-width="4" stroke-linecap="round" stroke-linejoin="round" opacity="1" fill="none"></path><path d="M859.57 871.43H881.83" stroke="#54170c" stroke-width="4" stroke-linecap="round" stroke-linejoin="round" opacity="1" fill="none"></path></g><g><path d="M919.29 452.49V452.4C912.69 445.28 898.72 431.48 898.46 430.87 897.5 430.01 892.38 382.01 882.31 383.31 878.32 383.31 876.5 386.61 875.89 388.17 875.72 388.52 875.28 388.6 875.02 388.43 873.03 387.13 866.6 383.48 857.14 383.48 845.34 383.66 839.44 386.17 838.83 390.51 838.83 390.51 838.83 390.6 838.74 390.6 837.44 390.77 830.93 393.2 832.58 397.46 832.58 397.54 832.58 397.54 832.49 397.54 831.45 397.89 824.85 400.67 827.2 404.4V404.49C826.5 404.83 821.21 408.13 822.94 411.6 826.85 418.46 851.24 416.99 854.45 424.8 855.75 427.66 855.58 431.22 855.41 435.65 853.5 456.39 862.35 468.72 875.63 488.51 875.63 488.51 875.72 488.6 875.72 488.51 877.19 487.99 905.58 477.57 906.62 477.22 906.62 477.22 906.62 477.22 906.71 477.22L919.29 452.49Z" fill="#a56250" opacity="1" stroke-width="4" stroke="none"></path><path d="M950.54 1023.36L953.92 999.06C952.97 988.99 954.79 982.82 958.61 968.59 958.61 968.5 959.22 963.38 959.3 962.6 959.3 962.51 959.3 962.51 959.22 962.51L873.46 962.34C873.46 962.34 873.37 962.34 873.37 962.43L870.25 968.68C868.34 987.16 867.56 1005.83 867.99 1024.14L872.59 1033.25 872.68 1033.34 950.54 1023.36C950.54 1023.45 950.54 1023.45 950.54 1023.36Z" fill="#a56250" opacity="1" stroke-width="4" stroke="none"></path><path d="M953.92 999.14C953.92 999.06 953.92 999.06 953.92 999.14L921.2 999.06C915.12 999.06 910.61 1004.61 911.65 1010.43L914.17 1023.97C914.17 1024.05 914.17 1024.05 914.08 1024.05H868.08C867.99 1024.05 867.99 1024.05 867.99 1024.14 868.25 1034.56 869.12 1044.97 870.16 1055.21 870.16 1055.21 870.16 1055.3 870.25 1055.3L978.05 1065.02C978.05 1065.02 978.05 1065.02 978.14 1065.02L995.93 1055.39C996.02 1055.39 996.02 1055.3 995.93 1055.3 984.04 1038.38 956.79 1033.95 953.92 999.14Z" fill="#231f20" opacity="1" stroke-width="4" stroke="none"></path><path d="M870.16 1055.47C870.86 1061.9 871.73 1068.32 872.77 1074.66 872.77 1074.66 872.77 1074.74 872.85 1074.74H961.82 1001.75C1001.84 1074.74 1001.84 1074.74 1001.84 1074.66 1001.84 1066.5 999.58 1060.42 996.02 1055.39H995.93L870.16 1055.47Z" fill="#8f8f8f" opacity="1" stroke-width="4" stroke="none"></path><path d="M977.19 787.18C948.54 753.16 873.81 730.76 836.22 721.3 822.6 717.92 814.53 716.27 814.35 716.27H759.93 759.84C759.06 717.05 739.1 737.36 733.02 771.47 725.73 813.48 758.11 850.89 800.9 850.89H898.2C898.29 850.89 898.29 850.98 898.29 850.98 884.22 887.35 874.59 928.23 870.34 968.5 870.34 968.59 870.34 968.59 870.42 968.59H958.52C958.52 968.59 958.61 968.59 958.61 968.5 972.32 919.46 1008.26 824.16 977.19 787.18Z" fill="#ffc930" opacity="1" stroke-width="4" stroke="none"></path><path d="M896.2 795.69C933.61 798.47 950.89 812.87 939.95 867.64 924.76 943.59 896.9 976.49 898.03 1000.62 899.85 1038.64 941.16 1044.36 941.16 1074.74L835.18 1069.97C835.1 1069.97 835.18 1070.06 835.18 1069.97 835.1 1064.68 828.41 790.57 896.2 795.69Z" fill="#362e16" opacity="0.3" stroke-width="4" stroke="none"></path><path d="M877.19 1027.09L882.05 999.06C881.97 988.9 883.53 981.35 887.35 968.59 887.35 968.42 887.44 962.77 887.44 962.08 887.44 961.99 887.44 961.99 887.35 961.99L799.94 960.86C799.94 960.86 799.94 960.86 799.86 960.86L788.23 968.5C788.23 968.5 788.23 968.5 788.23 968.59 784.93 986.12 782.5 1004.61 781.11 1023.97L782.15 1034.21C782.15 1034.3 782.24 1034.3 782.24 1034.3L877.19 1027.09C877.19 1027.18 877.19 1027.18 877.19 1027.09Z" fill="#a56250" opacity="1" stroke-width="4" stroke="none"></path><path d="M915.47 1055.21C905.14 1038.12 882.23 1033.78 882.05 999.14 882.05 999.06 882.05 999.06 881.97 999.06H850.11C844.12 999.06 839.7 1004.44 840.65 1010.17L842.91 1023.97C842.91 1024.05 842.91 1024.05 842.82 1024.05H781.19C781.11 1024.05 781.11 1024.05 781.11 1024.14 780.41 1034.12 779.98 1044.63 779.89 1055.21 779.89 1055.21 779.89 1055.3 779.98 1055.3 781.46 1055.74 811.23 1063.2 842.47 1063.2 876.85 1063.2 913.04 1055.74 915.47 1055.21 915.56 1055.21 915.47 1055.3 915.47 1055.21Z" fill="#231f20" opacity="1" stroke-width="4" stroke="none"></path><path d="M915.99 787.18C876.93 740.83 753.94 716.44 753.16 716.27L675.13 719.04C675.13 719.04 675.04 719.04 675.04 719.13 674.78 719.83 672.26 728.25 669.66 740.05 667.84 748.47 666.01 758.54 665.15 768.78 660.98 816.87 696.91 850.98 739.62 850.98H827.98C828.07 850.98 828.07 851.06 828.07 851.06 810.97 884.74 796.82 923.98 788.23 968.5 788.23 968.59 788.23 968.59 788.31 968.59H887.26C887.26 968.59 887.35 968.59 887.35 968.5 903.15 916.94 947.85 825.03 915.99 787.18Z" fill="#ffc930" opacity="1" stroke-width="4" stroke="none"></path><path d="M845.08 821.38C849.59 804.8 780.15 850.89 762.97 850.89 785.19 850.89 826.5 850.89 828.07 850.89H828.15C828.59 849.94 835.79 835.7 845.08 821.38Z" fill="#362e16" opacity="0.3" stroke-width="4" stroke="none"></path><path d="M779.89 1055.39C779.81 1061.72 779.89 1068.15 780.07 1074.66 780.07 1074.74 780.07 1074.74 780.15 1074.74H834.14 920.42C920.51 1074.74 920.51 1074.74 920.51 1074.66 920.51 1066.41 918.6 1060.34 915.56 1055.39H915.47 779.89C779.89 1055.3 779.89 1055.3 779.89 1055.39Z" fill="#8f8f8f" opacity="1" stroke-width="4" stroke="none"></path><path d="M608.9 664.71C618.62 636.59 678.86 564.98 712.1 546.58V546.49C733.63 536.16 759.06 535.21 759.67 535.21L805.24 535.9 822.86 539.02C833.97 537.2 870.34 533.73 890.65 531.99 898.11 531.3 903.41 530.87 904.36 530.87 904.45 530.87 904.45 530.78 904.45 530.69 903.15 528.87 888.04 507.52 875.8 488.68V488.6L919.29 452.49H919.38C938.39 471.76 958.87 492.85 967.55 503.52 976.32 514.29 980.48 529.13 978.75 542.93 976.75 558.9 967.12 573.74 950.89 585.81 943.59 591.19 935.7 595.79 927.62 599.7 895.16 615.41 860.7 619.75 859.05 619.92 859.05 619.92 858.97 619.92 858.97 620.01L836.22 721.21 836.14 721.3 674.43 721.39C674.35 721.39 674.35 721.3 674.35 721.3L675.21 717.4C668.01 717.92 660.98 718.18 654.56 718.18 632.94 718.18 618.27 715.05 613.24 709.32 607.95 703.42 600.31 689.62 608.9 664.71Z" fill="#1c5f37" opacity="1" stroke-width="4" stroke="none"></path><path d="M861.22 968.68L958.61 968.59" stroke="#362e16" stroke-width="4" stroke-linecap="round" stroke-linejoin="round" opacity="1" fill="none"></path><path d="M960 1020.06L947.15 1025.27" stroke="#000000" stroke-width="4" stroke-linecap="round" stroke-linejoin="round" opacity="1" fill="none"></path><path d="M967.9 1030.56L957.4 1039.24" stroke="#000000" stroke-width="4" stroke-linecap="round" stroke-linejoin="round" opacity="1" fill="none"></path><path d="M837.01 834.4L828.15 850.89" stroke="#4a3e1b" stroke-width="4" stroke-linecap="round" stroke-linejoin="round" opacity="1" fill="none"></path><path d="M885.53 1019.8L872.59 1025.27" stroke="#000000" stroke-width="4" stroke-linecap="round" stroke-linejoin="round" opacity="1" fill="none"></path><path d="M892.73 1031.61L882.84 1039.24" stroke="#000000" stroke-width="4" stroke-linecap="round" stroke-linejoin="round" opacity="1" fill="none"></path><path d="M822.77 531.47L822.68 525.14C822.68 525.05 822.77 525.05 822.77 525.05 824.25 525.4 840.56 528.7 851.15 518.89 864.26 505.61 855.58 479.65 856.54 461.43 856.8 456.91 856.71 452.49 856.28 448.58 853.41 421.59 833.97 417.16 801.68 417.68 764.01 418.98 761.32 438.69 760.19 452.23 759.84 463.86 759.93 486.34 760.1 504.48 760.28 519.32 759.93 528.52 759.93 529.22V529.3L766.53 534.95C766.53 534.95 766.53 534.95 766.61 534.95L822.6 531.56C822.68 531.56 822.77 531.56 822.77 531.47Z" fill="#a56250" opacity="1" stroke-width="4" stroke="none"></path><path d="M822.6 525.05C822.68 525.05 822.68 525.05 822.6 525.05L822.68 531.56V535.73C822.68 535.81 822.68 535.81 822.6 535.81L818.34 535.9H818.26L803.42 517.93C803.33 517.85 803.42 517.76 803.5 517.85 811.75 521.93 821.82 524.79 822.6 525.05Z" fill="#000000" opacity="0.3" stroke-width="4" stroke="none"></path><path d="M769.3 505.43C774.6 505.43 781.72 504.05 786.06 498.06V497.97C784.84 496.84 765.48 477.48 774.6 465.85 777.03 462.73 780.41 461.17 784.49 461.17 793.17 461.17 802.72 468.2 803.33 468.72H803.42C804.2 468.46 812.7 460.3 809.58 447.37 809.58 447.28 809.66 447.19 809.75 447.28 820.08 454.92 829.89 456.31 831.8 444.76 831.8 444.68 831.88 444.68 831.97 444.68 837.79 448.67 843.26 450.84 848.46 450.84 853.5 450.75 856.28 449.1 856.45 448.67 856.45 448.67 856.45 448.67 856.45 448.58 855.15 421.59 832.41 410.56 802.55 411.17 739.27 411.17 759.76 502.05 760.28 504.39 760.28 504.39 760.28 504.48 760.36 504.48 760.62 504.57 764.53 505.43 769.3 505.43Z" fill="#000000" opacity="1" stroke-width="4" stroke="none"></path><path d="M804.8 538.42L817.74 555.08C817.74 555.17 817.91 555.08 817.91 555.08L822.86 539.02 822.77 531.65C822.77 531.56 822.77 531.56 822.68 531.56L760.02 529.22C759.93 529.22 759.93 529.22 759.93 529.3L759.67 535.12V535.21L789.87 557.17H789.96L804.63 538.42C804.72 538.42 804.72 538.42 804.8 538.42Z" fill="#ffffff" opacity="1" stroke-width="4" stroke="none"></path><path d="M840.74 495.63C839.7 492.33 836.31 490.33 832.84 491.29" stroke="#000000" stroke-width="4" stroke-linecap="round" stroke-linejoin="round" opacity="1" fill="none"></path><path d="M839.35 475.23L839.61 477.66C839.78 479.31 839.09 480.87 837.79 481.91" stroke="#000000" stroke-width="4" stroke-linecap="round" stroke-linejoin="round" opacity="1" fill="none"></path><path d="M825.81 468.54C822.25 468.63 822.25 473.84 825.81 473.93 829.37 473.84 829.37 468.63 825.81 468.54Z" fill="#000000" opacity="1" stroke-width="4" stroke="none"></path><path d="M849.51 468.54C845.95 468.63 845.95 473.84 849.51 473.93 853.06 473.84 853.06 468.63 849.51 468.54Z" fill="#000000" opacity="1" stroke-width="4" stroke="none"></path><path d="M805.24 569.14C797.69 569.32 797.69 580.43 805.24 580.6 812.79 580.43 812.79 569.32 805.24 569.14Z" fill="#000000" opacity="1" stroke-width="4" stroke="none"></path><path d="M805.24 609.16C797.69 609.33 797.69 620.44 805.24 620.62 812.79 620.44 812.79 609.33 805.24 609.16Z" fill="#000000" opacity="1" stroke-width="4" stroke="none"></path><path d="M805.24 649.26C797.69 649.43 797.69 660.54 805.24 660.72 812.79 660.54 812.79 649.43 805.24 649.26Z" fill="#000000" opacity="1" stroke-width="4" stroke="none"></path><path d="M858.97 619.83L862.7 597.61" stroke="#000000" stroke-width="4" stroke-linecap="round" stroke-linejoin="round" opacity="1" fill="none"></path><path d="M904.36 530.78L916.69 547.36" stroke="#000000" stroke-width="4" stroke-linecap="round" stroke-linejoin="round" opacity="1" fill="none"></path><path d="M822.68 525.05C812.18 523.31 803.33 516.72 803.33 516.72" stroke="#000000" stroke-width="4" stroke-linecap="round" stroke-linejoin="round" opacity="1" fill="none"></path><path d="M794.04 481.65L786.14 475.49" stroke="#000000" stroke-width="4" stroke-linecap="round" stroke-linejoin="round" opacity="1" fill="none"></path><path d="M875.63 388.78C878.84 390.43 888.3 396.42 892.73 402.75" stroke="#000000" stroke-width="4" stroke-linecap="round" stroke-linejoin="round" opacity="1" fill="none"></path><path d="M839 390.6C845.17 389.73 852.11 388.86 858.27 389.73 866.17 390.86 874.07 395.89 874.07 395.89" stroke="#000000" stroke-width="4" stroke-linecap="round" stroke-linejoin="round" opacity="1" fill="none"></path><path d="M827.28 404.49C834.32 404.49 847.68 404.66 861.66 412.56" stroke="#000000" stroke-width="4" stroke-linecap="round" stroke-linejoin="round" opacity="1" fill="none"></path><path d="M832.58 397.54C836.92 397.54 852.98 395.03 867.82 403.79" stroke="#000000" stroke-width="4" stroke-linecap="round" stroke-linejoin="round" opacity="1" fill="none"></path><path d="M916.77 547.27L904.54 530.78C904.54 530.78 904.54 530.78 904.45 530.78 903.84 530.78 897.85 531.3 890.82 531.91 890.73 531.91 890.73 531.99 890.82 532.08L916.6 547.36C916.77 547.44 916.86 547.36 916.77 547.27Z" fill="#000000" opacity="0.3" stroke-width="4" stroke="none"></path><path d="M859.05 619.92C861.22 619.75 895.25 615.32 927.28 599.87 927.36 599.87 927.36 599.7 927.28 599.7 882.14 598.05 864.09 597.61 862.79 597.53 862.7 597.53 862.7 597.53 862.7 597.61L858.97 619.83 859.05 619.92Z" fill="#000000" opacity="0.3" stroke-width="4" stroke="none"></path><path d="M665.32 768.52C665.23 768.61 665.15 768.52 665.15 768.43 665.75 760.62 667.58 749.25 669.66 739.96 671.39 731.63 673.74 723.38 674.35 721.39 674.61 720.43 675.13 717.83 675.21 717.4 675.21 717.4 675.21 717.31 675.3 717.31 690.4 716.18 706.37 714.27 720.35 711.58 729.46 709.84 737.8 708.02 743.96 706.55 744.05 706.55 743.96 706.63 743.96 706.72L746.56 721.21C746.56 721.3 746.56 721.47 746.48 721.47H729.64C697 735.62 667.75 765.92 665.32 768.52Z" fill="#000000" opacity="0.3" stroke-width="4" stroke="none"></path><path d="M714.62 654.9C712.45 654.9 711.06 654.99 710.54 654.99 710.45 654.99 710.45 654.9 710.45 654.81 716.27 647.35 723.73 638.06 729.81 627.39 729.81 627.3 729.98 627.3 729.98 627.39L734.93 655.68C734.93 655.77 734.93 655.86 734.84 655.86 733.02 655.77 731.2 655.68 729.55 655.59 723.13 655.16 717.92 654.9 714.62 654.9Z" fill="#000000" opacity="0.3" stroke-width="4" stroke="none"></path><path d="M735.02 655.86C750.21 656.98 769.3 659.59 783.71 666.01 803.94 674.6 843.69 705.33 828.33 706.11 825.55 706.11 817.74 702.47 813.92 700.56 813.48 700.38 813.05 700.9 813.4 701.25 818.34 706.72 831.88 722.78 819.39 723.38 817.13 723.38 814.96 722.86 814.53 722.78 814.44 722.78 814.44 722.78 814.44 722.86 812.18 732.32 800.12 727.03 797.51 724.25 797.43 724.17 797.34 724.25 797.34 724.34 797.34 727.29 793.61 729.37 789.7 729.2 781.46 728.59 755.94 705.07 754.72 703.77H754.63C754.2 703.94 750.12 705.07 743.78 706.55 737.62 708.02 729.38 709.93 720.26 711.58 720.18 711.58 720.18 711.58 720.18 711.49 720.09 710.28 719.05 695.96 721.39 682.16 723.56 669.14 729.12 656.55 729.46 655.68 729.46 655.68 729.46 655.68 729.55 655.68 731.29 655.59 733.11 655.77 735.02 655.86Z" fill="#a56250" opacity="1" stroke-width="4" stroke="none"></path><path d="M729.81 627.47C723.13 638.15 718.18 645.27 710.28 654.99" stroke="#000000" stroke-width="4" stroke-linecap="round" stroke-linejoin="round" opacity="1" fill="none"></path><path d="M795.17 683.89C801.33 688.49 808.88 696.3 814.53 701.6" stroke="#000000" stroke-width="4" stroke-linecap="round" stroke-linejoin="round" opacity="1" fill="none"></path><path d="M782.93 690.92C782.93 690.92 807.41 714.97 814.44 722.86" stroke="#000000" stroke-width="4" stroke-linecap="round" stroke-linejoin="round" opacity="1" fill="none"></path><path d="M770.69 698.73L797.43 724.17" stroke="#000000" stroke-width="4" stroke-linecap="round" stroke-linejoin="round" opacity="1" fill="none"></path><path d="M915.38 1055.3C905.06 1038.12 882.23 1033.78 882.05 999.06 882.05 997.15 882.05 995.06 882.23 992.89 882.66 986.64 884.4 978.4 887.44 968.68 903.23 917.03 947.93 825.03 916.08 787.18 901.06 769.3 873.46 754.72 845.17 743.43" stroke="#4a3e1b" stroke-width="4" stroke-linecap="round" stroke-linejoin="round" opacity="1" fill="none"></path><path d="M788.23 968.68H887.35" stroke="#362e16" stroke-width="4" stroke-linecap="round" stroke-linejoin="round" opacity="1" fill="none"></path><path d="M729.55 655.59C711.15 653.86 669.14 656.72 669.14 656.72" stroke="#000000" stroke-width="4" stroke-linecap="round" stroke-linejoin="round" opacity="1" fill="none"></path><path d="M720.26 711.41C702.9 715.4 675.21 717.4 675.21 717.4" stroke="#000000" stroke-width="4" stroke-linecap="round" stroke-linejoin="round" opacity="1" fill="none"></path></g><g><path d="M616.14 584.32C623.81 584.32 630.03 578.11 630.03 570.44 630.03 562.77 623.81 556.56 616.14 556.56 608.48 556.56 602.26 562.77 602.26 570.44 602.26 578.11 608.48 584.32 616.14 584.32Z" fill="#ffc930" opacity="1" stroke-width="4" stroke="none"></path><path d="M578.83 530.43C577.78 530.43 576.72 529.97 576.08 529.15L567.88 519.25C566.59 517.72 566.82 515.44 568.35 514.21L568.52 514.09C569.17 513.56 569.99 513.27 570.81 513.27 571.86 513.27 572.92 513.74 573.56 514.56L581.76 524.46C582.35 525.22 582.64 526.16 582.58 527.1 582.46 528.03 582.05 528.91 581.29 529.56L581.12 529.67C580.47 530.14 579.65 530.43 578.83 530.43Z" fill="#2b2b2b" opacity="1" stroke-width="4" stroke="none"></path><path d="M510.71 718.64V602.83L464.37 641.32C463.26 642.26 461.8 642.78 460.33 642.78 458.46 642.78 456.64 641.96 455.47 640.5L455.3 640.32C453.07 637.63 453.42 633.59 456.12 631.36L581.12 527.68 588.2 538.58 523.65 592.11V718.64H510.71Z" fill="#fe4f32" opacity="1" stroke-width="4" stroke="none"></path><path d="M523.65 698.43L510.71 687.01V718.64H523.65V698.43Z" fill="#2b2b2b" opacity="0.2" stroke-width="4" stroke="none"></path><path d="M516.86 602.72C524.3 602.72 530.33 596.68 530.33 589.24 530.33 581.81 524.3 575.77 516.86 575.77 509.42 575.77 503.39 581.81 503.39 589.24 503.39 596.68 509.42 602.72 516.86 602.72Z" fill="#2b2b2b" opacity="1" stroke-width="4" stroke="none"></path><path d="M516.86 594.4C519.7 594.4 522.01 592.09 522.01 589.24 522.01 586.4 519.7 584.09 516.86 584.09 514.01 584.09 511.7 586.4 511.7 589.24 511.7 592.09 514.01 594.4 516.86 594.4Z" fill="#fe5033" opacity="1" stroke-width="4" stroke="none"></path><path d="M627.27 562.59L606.36 579.87" stroke="#17151c" stroke-width="4" stroke-linecap="round" stroke-linejoin="round" opacity="1" fill="none"></path><path d="M585.39 592.17C580.76 584.91 578.54 576.18 579.12 567.57L580.35 549.88C580.65 546.02 579.42 542.27 576.96 539.28L572.1 533.42C568.52 529.15 569.11 522.76 573.44 519.19 575.26 517.67 577.54 516.84 579.89 516.84 582.93 516.84 585.74 518.19 587.68 520.48L592.54 526.33C595 529.32 598.51 531.2 602.32 531.66L619.95 533.71C628.5 534.71 636.65 538.52 642.91 544.43L645.02 546.37 587.03 594.52 585.39 592.17Z" fill="#fe4f32" opacity="1" stroke-width="4" stroke="none"></path><path d="M580 545.43C579.48 543.2 578.48 541.15 576.96 539.34L572.92 534.48" stroke="#17151c" stroke-width="4" stroke-linecap="round" stroke-linejoin="round" opacity="1" fill="none"></path><path d="M479.84 729.24C479.84 721.74 484.88 715.12 492.08 713.19L510.65 708.09H523.59L542.34 713.19C549.54 715.18 554.58 721.74 554.58 729.24H479.84Z" fill="#fe4f32" opacity="1" stroke-width="4" stroke="none"></path><path d="M633.95 537.93L580.88 581.81" stroke="#17151c" stroke-width="4" stroke-linecap="round" stroke-linejoin="round" opacity="1" fill="none"></path><path d="M510.71 708.04H523.65" stroke="#17151c" stroke-width="4" stroke-linecap="round" stroke-linejoin="round" opacity="1" fill="none"></path></g><g><path d="M1032.39 602.76H1058.06V696.92C1058.06 703.82 1052.5 709.38 1045.61 709.38H1044.84C1037.94 709.38 1032.39 703.82 1032.39 696.92V602.76Z" fill="#ffffff" opacity="1" stroke-width="4" stroke="none"></path><path d="M1050.59 602.76V696.92C1050.59 702.67 1046.76 707.46 1041.49 708.9 1042.54 709.18 1043.69 709.38 1044.84 709.38H1045.61C1052.5 709.38 1058.06 703.82 1058.06 696.92V602.76H1050.59Z" fill="#d7d7d7" opacity="0.2" stroke-width="4" stroke="none"></path><path d="M1032.39 675.85H1058.06V696.92C1058.06 703.82 1052.5 709.38 1045.61 709.38H1044.84C1037.94 709.38 1032.39 703.82 1032.39 696.92V675.85Z" fill="#fe4f32" opacity="1" stroke-width="4" stroke="none"></path><path d="M1078.75 602.76H1104.42V696.92C1104.42 703.82 1098.87 709.38 1091.97 709.38H1091.2C1084.31 709.38 1078.75 703.82 1078.75 696.92V602.76Z" fill="#ffffff" opacity="1" stroke-width="4" stroke="none"></path><path d="M1096.95 602.76V696.92C1096.95 702.67 1093.12 707.46 1087.85 708.9 1088.9 709.18 1090.05 709.38 1091.2 709.38H1091.97C1098.87 709.38 1104.42 703.82 1104.42 696.92V602.76H1096.95Z" fill="#d7d7d7" opacity="0.2" stroke-width="4" stroke="none"></path><path d="M1078.75 643.28H1104.42V696.92C1104.42 703.82 1098.87 709.38 1091.97 709.38H1091.2C1084.31 709.38 1078.75 703.82 1078.75 696.92V643.28Z" fill="#ffc930" opacity="1" stroke-width="4" stroke="none"></path><path d="M1125.11 602.76H1150.78V696.92C1150.78 703.82 1145.23 709.38 1138.33 709.38H1137.56C1130.67 709.38 1125.11 703.82 1125.11 696.92V602.76Z" fill="#ffffff" opacity="1" stroke-width="4" stroke="none"></path><path d="M1143.31 602.76V696.92C1143.31 702.67 1139.48 707.46 1134.21 708.9 1135.26 709.18 1136.41 709.38 1137.56 709.38H1138.33C1145.23 709.38 1150.78 703.82 1150.78 696.92V602.76H1143.31Z" fill="#d7d7d7" opacity="0.2" stroke-width="4" stroke="none"></path><path d="M1125.11 658.99H1150.78V696.92C1150.78 703.82 1145.23 709.38 1138.33 709.38H1137.56C1130.67 709.38 1125.11 703.82 1125.11 696.92V658.99Z" fill="#1c5f37" opacity="1" stroke-width="4" stroke="none"></path><path d="M1175.59 728.15V645.01C1175.69 636.48 1168.79 629.49 1160.27 629.49H1022.71C1014.19 629.58 1007.29 636.48 1007.39 645.01V728.15" stroke="#231f20" stroke-width="4" opacity="1" fill="none"></path><path d="M1029.52 602.76H1061.13" stroke="#ffffff" stroke-width="4" stroke-linecap="round" stroke-linejoin="round" opacity="1" fill="none"></path><path d="M1075.97 602.76H1107.49" stroke="#ffffff" stroke-width="4" stroke-linecap="round" stroke-linejoin="round" opacity="1" fill="none"></path><path d="M1122.33 602.76H1153.94" stroke="#ffffff" stroke-width="4" stroke-linecap="round" stroke-linejoin="round" opacity="1" fill="none"></path></g><g><path d="M1213.57 753.49H436.32C429.21 753.49 423.35 747.59 423.35 740.19 423.35 732.9 429.1 726.9 436.32 726.9H1213.57C1220.69 726.9 1226.54 732.8 1226.54 740.19 1226.54 747.48 1220.79 753.49 1213.57 753.49Z" fill="#231f20" opacity="1" stroke-width="4" stroke="none"></path></g></svg>