<svg xmlns="http://www.w3.org/2000/svg" height="1200" width="1600" version="1.1" xmlns:xlink="http://www.w3.org/1999/xlink" xmlns:svgjs="http://svgjs.com/svgjs"><rect fill="#effaff" width="1600" height="1200"></rect><g><path d="M1272.28 689.01C1268.69 647.59 1252.61 609.38 1233.88 572.68 1226.89 558.78 1218.09 546.01 1208.25 533.81 1218.94 506.09 1226.41 477.25 1228.12 447.17 1230.48 404.9 1217.62 359.88 1193.78 324.88 1144.89 253.38 1066.39 214.13 982.3 201.36 901.25 188.97 815.84 184.71 734.13 193.89 691.28 198.62 648.53 205.81 607.77 221.03 566.35 236.64 530.5 256.69 495.98 284.02 478.01 298.3 461.65 314.29 447.08 332.26 378.13 399.22 335.29 489.54 328.01 587.24 319.3 705.85 372.65 832.2 464.96 907.49 558.4 983.44 679.18 1018.24 798.92 1009.92 863.13 1005.47 926.31 991.57 986.65 968.97 1045.58 947.02 1105.73 920.35 1157.75 884.88 1222.63 841.19 1279.76 771.77 1272.28 689.01Z" fill="#deeff7" opacity="1" stroke-width="2" stroke="none"></path></g><g><path d="M240.94 895.77L225.21 910.91" stroke="#333333" stroke-width="2" stroke-linecap="round" stroke-linejoin="round" opacity="1" fill="none"></path><path d="M198.12 937.7L182.98 953.72" stroke="#333333" stroke-width="2" stroke-linecap="round" stroke-linejoin="round" opacity="1" fill="none"></path><path d="M182.98 895.77L198.12 910.91" stroke="#333333" stroke-width="2" stroke-linecap="round" stroke-linejoin="round" opacity="1" fill="none"></path><path d="M225.21 937.7L240.94 953.72" stroke="#333333" stroke-width="2" stroke-linecap="round" stroke-linejoin="round" opacity="1" fill="none"></path><path d="M1421.06 851.21L1405.91 866.93" stroke="#333333" stroke-width="2" stroke-linecap="round" stroke-linejoin="round" opacity="1" fill="none"></path><path d="M1378.83 893.14L1363.1 908.87" stroke="#333333" stroke-width="2" stroke-linecap="round" stroke-linejoin="round" opacity="1" fill="none"></path><path d="M1363.1 851.21L1378.83 866.93" stroke="#333333" stroke-width="2" stroke-linecap="round" stroke-linejoin="round" opacity="1" fill="none"></path><path d="M1405.91 893.14L1421.06 908.87" stroke="#333333" stroke-width="2" stroke-linecap="round" stroke-linejoin="round" opacity="1" fill="none"></path><path d="M614.02 314.15L598.29 330.17" stroke="#333333" stroke-width="2" stroke-linecap="round" stroke-linejoin="round" opacity="1" fill="none"></path><path d="M571.5 356.97L556.35 372.11" stroke="#333333" stroke-width="2" stroke-linecap="round" stroke-linejoin="round" opacity="1" fill="none"></path><path d="M556.35 314.15L571.5 330.17" stroke="#333333" stroke-width="2" stroke-linecap="round" stroke-linejoin="round" opacity="1" fill="none"></path><path d="M598.29 356.97L614.02 372.11" stroke="#333333" stroke-width="2" stroke-linecap="round" stroke-linejoin="round" opacity="1" fill="none"></path><path d="M1124.57 113.78L1108.84 128.92" stroke="#333333" stroke-width="2" stroke-linecap="round" stroke-linejoin="round" opacity="1" fill="none"></path><path d="M1082.05 156.01L1066.9 171.73" stroke="#333333" stroke-width="2" stroke-linecap="round" stroke-linejoin="round" opacity="1" fill="none"></path><path d="M1066.9 113.78L1082.05 128.92" stroke="#333333" stroke-width="2" stroke-linecap="round" stroke-linejoin="round" opacity="1" fill="none"></path><path d="M1108.84 156.01L1124.57 171.73" stroke="#333333" stroke-width="2" stroke-linecap="round" stroke-linejoin="round" opacity="1" fill="none"></path></g><g><path d="M745.73 503.57V552.02C673.99 574.99 622.08 642.32 622.08 721.6 622.08 820.08 701.99 899.69 800.16 899.69 898.32 899.69 978.24 819.77 978.24 721.6 978.24 642.32 926.32 574.99 854.59 552.02V378.66H745.73V483.74" fill="#ffffff" opacity="1" stroke-width="2" stroke="none"></path><path d="M745.73 503.57V552.02C673.99 574.99 622.08 642.32 622.08 721.6 622.08 820.08 701.99 899.69 800.16 899.69 898.32 899.69 978.24 819.77 978.24 721.6 978.24 642.32 926.32 574.99 854.59 552.02V378.66H745.73V483.74" stroke="#333333" stroke-width="2" stroke-linecap="round" stroke-linejoin="round" opacity="1" fill="none"></path><path d="M800.16 900C898.64 900 978.24 820.08 978.24 721.92 978.24 712.48 977.61 703.04 976.04 693.92 975.72 694.23 915.63 746.15 794.49 698.95 685 656.16 622.71 711.54 622.08 712.17 621.76 715.63 621.76 718.77 621.76 722.23 621.76 820.4 701.68 900 800.16 900Z" fill="#1c5f37" stroke="#333333" stroke-width="2" stroke-linecap="round" stroke-linejoin="round" opacity="1"></path><path d="M714.26 714.37C729.37 714.37 741.64 702.13 741.64 687 741.64 671.89 729.37 659.62 714.26 659.62 699.13 659.62 686.89 671.89 686.89 687 686.89 702.13 699.13 714.37 714.26 714.37Z" fill="#ffc930" stroke="#333333" stroke-width="2" stroke-linecap="round" stroke-linejoin="round" opacity="1"></path><path d="M892.03 634.14C896.43 637.91 899.27 643.58 899.27 649.87 899.27 661.2 890.14 670.63 878.5 670.63 866.86 670.63 857.73 661.51 857.73 649.87 857.73 638.54 866.86 629.1 878.5 629.1" fill="#ffc930" opacity="1" stroke-width="2" stroke="none"></path><path d="M892.03 634.14C896.43 637.91 899.27 643.58 899.27 649.87 899.27 661.2 890.14 670.63 878.5 670.63 866.86 670.63 857.73 661.51 857.73 649.87 857.73 638.54 866.86 629.1 878.5 629.1" stroke="#333333" stroke-width="2" stroke-linecap="round" stroke-linejoin="round" opacity="1" fill="none"></path><path d="M854.59 300H745.73L761.14 402.88H838.86L854.59 300Z" fill="#1c5f37" stroke="#333333" stroke-width="2" stroke-linecap="round" stroke-linejoin="round" opacity="1"></path><path d="M714.26 378.66H885.74" stroke="#333333" stroke-width="2" stroke-linecap="round" stroke-linejoin="round" opacity="1" fill="none"></path></g><g><path d="M1181.49 975.93L1289.12 945.56V806.12L1181.49 836.31 1175.56 834.69V974.13L1181.49 975.93Z" fill="#fe4f32" stroke="#333333" stroke-width="2" stroke-linecap="round" stroke-linejoin="round" opacity="1"></path><path d="M1181.49 975.93L1074.21 945.56V806.12L1181.49 836.31V975.93Z" fill="#fe4f32" stroke="#333333" stroke-width="2" stroke-linecap="round" stroke-linejoin="round" opacity="1"></path><path d="M1181.49 975.93C1181.49 975.93 1171.24 940.89 1129.38 930.65 1087.69 920.4 1073.85 945.74 1073.85 945.74L1181.49 975.93Z" fill="#fe4f32" stroke="#333333" stroke-width="2" stroke-linecap="round" stroke-linejoin="round" opacity="1"></path><path d="M1181.49 975.93C1181.49 975.93 1191.73 940.89 1233.6 930.65 1275.28 920.4 1289.12 945.74 1289.12 945.74L1181.49 975.93Z" fill="#fe4f32" stroke="#333333" stroke-width="2" stroke-linecap="round" stroke-linejoin="round" opacity="1"></path><path d="M1262.17 847.99L1208.44 863.08" stroke="#333333" stroke-width="2" stroke-linecap="round" stroke-linejoin="round" opacity="1" fill="none"></path><path d="M1262.17 870.81L1208.44 885.9" stroke="#333333" stroke-width="2" stroke-linecap="round" stroke-linejoin="round" opacity="1" fill="none"></path><path d="M1246.71 898.12L1208.44 908.9" stroke="#333333" stroke-width="2" stroke-linecap="round" stroke-linejoin="round" opacity="1" fill="none"></path><path d="M1262.17 893.81L1253.54 896.15" stroke="#333333" stroke-width="2" stroke-linecap="round" stroke-linejoin="round" opacity="1" fill="none"></path></g></svg>