<svg width="600" height="348" viewBox="0 0 600 348" fill="none" xmlns="http://www.w3.org/2000/svg">
<path d="M547.109 86.8999C600.307 126.596 615.86 199.008 582.352 242.003C548.922 284.737 466.053 297.943 395.927 315.207C325.88 332.203 268.062 353.691 201.592 346.614C135.4 339.903 59.7432 304.679 24.6801 256.308C-10.0188 208.053 -4.50502 146.548 18.8923 97.3477C42.7362 47.9871 84.5232 10.6476 136.528 2.05273C188.52 -6.5371 250.273 13.7663 326.418 27.2124C403.01 40.498 493.544 47.095 547.109 86.8999Z" fill="#1C5F37"/>
<path d="M71.4951 143.638L62.6997 111.215L72.0241 111.675L79.3861 139.731L74.6783 139.499L85.2336 112.325L93.5523 112.735L100.869 140.789L96.3436 140.566L106.716 113.384L115.355 113.809L103.399 145.21L93.7089 144.732L87.4669 120.89L90.0723 121.018L81.1851 144.115L71.4951 143.638Z" fill="white"/>
<path d="M134.654 121.569C136.574 121.664 138.291 122.144 139.806 123.011C141.323 123.847 142.483 125.093 143.287 126.747C144.121 128.403 144.475 130.507 144.349 133.06L143.649 147.193L134.964 146.765L135.594 134.046C135.681 132.283 135.379 130.988 134.687 130.162C134.027 129.307 133.057 128.848 131.777 128.785C130.863 128.74 130.014 128.911 129.231 129.299C128.45 129.657 127.825 130.251 127.356 131.081C126.887 131.911 126.619 133.009 126.551 134.377L125.96 146.321L117.275 145.893L118.951 112.067L127.635 112.495L126.836 128.633L124.926 126.482C125.96 124.736 127.321 123.462 129.01 122.662C130.701 121.831 132.582 121.467 134.654 121.569Z" fill="white"/>
<path d="M162.374 148.526C159.449 148.382 156.916 147.709 154.777 146.507C152.669 145.276 151.053 143.673 149.929 141.698C148.837 139.694 148.352 137.462 148.474 135C148.595 132.538 149.283 130.379 150.536 128.521C151.82 126.634 153.525 125.21 155.65 124.249C157.776 123.257 160.134 122.824 162.724 122.952C165.162 123.072 167.362 123.683 169.323 124.785C171.286 125.857 172.814 127.379 173.908 129.352C175.001 131.326 175.481 133.68 175.345 136.415C175.33 136.719 175.298 137.068 175.247 137.461C175.197 137.855 175.149 138.218 175.102 138.551L155.493 137.585L155.719 133.026L170.711 133.765L167.357 134.879C167.443 133.756 167.278 132.773 166.862 131.93C166.476 131.088 165.898 130.42 165.128 129.925C164.389 129.432 163.501 129.16 162.465 129.109C161.429 129.058 160.504 129.24 159.689 129.657C158.905 130.076 158.278 130.7 157.809 131.53C157.342 132.329 157.081 133.291 157.025 134.416L156.959 135.738C156.899 136.954 157.091 138.014 157.535 138.92C158.009 139.826 158.707 140.546 159.627 141.079C160.549 141.581 161.666 141.865 162.976 141.93C164.195 141.99 165.239 141.873 166.109 141.581C167.01 141.26 167.906 140.756 168.795 140.068L173.131 145.035C171.878 146.283 170.366 147.214 168.594 147.827C166.824 148.41 164.751 148.643 162.374 148.526Z" fill="white"/>
<path d="M178.74 148.921L179.963 124.212L188.236 124.62L187.88 131.823L186.747 129.711C187.57 127.893 188.827 126.568 190.518 125.738C192.21 124.877 194.229 124.504 196.575 124.619L196.189 132.415C195.796 132.335 195.447 132.287 195.143 132.272C194.87 132.228 194.566 132.198 194.231 132.181C192.463 132.094 191.007 132.51 189.862 133.429C188.718 134.317 188.093 135.84 187.986 137.998L187.424 149.349L178.74 148.921Z" fill="white"/>
<path d="M211.653 150.954C208.727 150.81 206.195 150.137 204.055 148.934C201.947 147.703 200.331 146.1 199.207 144.126C198.115 142.122 197.63 139.889 197.752 137.428C197.874 134.966 198.561 132.806 199.814 130.948C201.099 129.062 202.803 127.638 204.928 126.676C207.054 125.684 209.413 125.252 212.003 125.379C214.44 125.5 216.64 126.111 218.602 127.213C220.565 128.284 222.093 129.807 223.186 131.78C224.28 133.753 224.759 136.107 224.624 138.843C224.609 139.147 224.576 139.495 224.526 139.889C224.476 140.283 224.427 140.646 224.38 140.979L204.772 140.013L204.998 135.454L219.99 136.192L216.635 137.307C216.722 136.184 216.556 135.201 216.14 134.358C215.754 133.516 215.176 132.848 214.407 132.353C213.667 131.859 212.78 131.587 211.744 131.536C210.708 131.485 209.782 131.668 208.967 132.085C208.183 132.503 207.556 133.127 207.088 133.957C206.62 134.757 206.359 135.719 206.303 136.843L206.238 138.165C206.178 139.381 206.369 140.442 206.813 141.347C207.288 142.254 207.985 142.974 208.906 143.507C209.828 144.009 210.944 144.293 212.254 144.357C213.473 144.417 214.517 144.301 215.387 144.009C216.289 143.688 217.184 143.183 218.074 142.496L222.41 147.462C221.157 148.711 219.644 149.641 217.873 150.255C216.103 150.838 214.029 151.071 211.653 150.954Z" fill="white"/>
<path d="M253.96 153.038C251.218 152.903 248.792 152.235 246.683 151.034C244.604 149.835 243.002 148.248 241.878 146.273C240.756 144.268 240.256 142.02 240.38 139.527C240.503 137.035 241.222 134.862 242.535 133.007C243.849 131.153 245.599 129.746 247.784 128.787C250.002 127.8 252.482 127.374 255.225 127.509C258.028 127.647 260.421 128.359 262.404 129.645C264.387 130.931 265.752 132.673 266.498 134.873L259.61 137.961C259.088 136.778 258.413 135.907 257.586 135.348C256.759 134.759 255.844 134.44 254.838 134.39C253.832 134.341 252.907 134.524 252.062 134.939C251.216 135.354 250.528 135.991 249.997 136.848C249.498 137.676 249.217 138.714 249.156 139.96C249.092 141.236 249.267 142.326 249.681 143.23C250.125 144.136 250.747 144.837 251.547 145.333C252.347 145.829 253.25 146.102 254.256 146.152C255.261 146.201 256.203 145.989 257.082 145.514C257.962 145.009 258.721 144.194 259.357 143.067L265.906 146.817C264.946 148.933 263.416 150.533 261.316 151.618C259.216 152.703 256.764 153.176 253.96 153.038Z" fill="white"/>
<path d="M283.989 154.106L284.217 149.502L283.68 148.333L284.1 139.853C284.167 138.486 283.793 137.416 282.976 136.645C282.19 135.844 280.884 135.399 279.055 135.309C277.867 135.251 276.654 135.389 275.415 135.724C274.178 136.028 273.117 136.494 272.23 137.121L269.596 131.096C271.043 130.253 272.754 129.637 274.728 129.246C276.734 128.827 278.712 128.666 280.663 128.762C284.685 128.96 287.747 130.04 289.849 132.002C291.983 133.935 292.953 136.862 292.759 140.783L292.08 154.505L283.989 154.106ZM276.656 154.156C274.675 154.058 273.016 153.642 271.678 152.905C270.34 152.169 269.334 151.206 268.659 150.015C268.016 148.825 267.729 147.516 267.8 146.088C267.875 144.568 268.321 143.28 269.137 142.224C269.985 141.138 271.231 140.347 272.874 139.849C274.519 139.32 276.622 139.119 279.181 139.245L285.032 139.534L284.808 144.047L280.146 143.817C278.744 143.748 277.743 143.927 277.141 144.355C276.57 144.783 276.266 145.378 276.228 146.138C276.191 146.897 276.45 147.52 277.006 148.004C277.563 148.488 278.344 148.755 279.349 148.805C280.294 148.851 281.158 148.665 281.943 148.247C282.759 147.8 283.374 147.099 283.788 146.144L284.818 149.394C284.277 151.074 283.314 152.321 281.93 153.136C280.577 153.923 278.819 154.263 276.656 154.156Z" fill="white"/>
<path d="M314.94 130.45C316.86 130.545 318.577 131.026 320.092 131.892C321.608 132.729 322.769 133.974 323.573 135.628C324.407 137.284 324.761 139.389 324.634 141.941L323.935 156.074L315.25 155.646L315.88 142.927C315.967 141.164 315.665 139.87 314.973 139.043C314.313 138.188 313.342 137.729 312.063 137.666C311.149 137.621 310.3 137.793 309.517 138.181C308.736 138.538 308.111 139.132 307.642 139.962C307.173 140.792 306.905 141.891 306.837 143.258L306.246 155.202L297.561 154.775L298.785 130.066L307.058 130.473L306.71 137.494L305.212 135.364C306.246 133.617 307.607 132.344 309.296 131.543C310.987 130.713 312.868 130.348 314.94 130.45Z" fill="white"/>
<path d="M343.1 157.018L344.68 125.106L353.73 125.552L352.15 157.464L343.1 157.018Z" fill="white"/>
<path d="M383.133 168.267C380.757 168.15 378.5 167.765 376.363 167.111C374.258 166.459 372.469 165.563 370.998 164.425L374.452 158.517C375.448 159.388 376.696 160.09 378.197 160.621C379.727 161.183 381.223 161.501 382.686 161.573C385.032 161.688 386.749 161.255 387.836 160.273C388.922 159.321 389.513 157.872 389.609 155.927L389.754 153.01L390.554 146.103L390.854 139.126L391.077 134.612L399.35 135.02L398.35 155.215C398.118 159.896 396.682 163.298 394.042 165.423C391.401 167.547 387.765 168.495 383.133 168.267ZM382.146 157.662C379.952 157.554 377.95 156.968 376.14 155.904C374.361 154.811 372.952 153.355 371.911 151.537C370.903 149.689 370.459 147.55 370.58 145.119C370.7 142.687 371.352 140.617 372.537 138.909C373.753 137.171 375.299 135.861 377.176 134.979C379.083 134.098 381.133 133.711 383.327 133.819C385.43 133.923 387.206 134.437 388.657 135.361C390.11 136.256 391.173 137.603 391.848 139.403C392.553 141.205 392.838 143.473 392.702 146.209C392.567 148.944 392.059 151.173 391.18 152.897C390.331 154.622 389.138 155.874 387.603 156.651C386.068 157.429 384.249 157.765 382.146 157.662ZM384.544 150.879C385.58 150.93 386.505 150.763 387.318 150.376C388.162 149.991 388.831 149.43 389.326 148.693C389.851 147.957 390.139 147.088 390.188 146.085C390.238 145.082 390.038 144.188 389.588 143.405C389.168 142.622 388.557 142.013 387.754 141.578C386.983 141.113 386.079 140.855 385.043 140.804C384.007 140.753 383.067 140.92 382.223 141.305C381.381 141.66 380.697 142.205 380.172 142.941C379.677 143.678 379.405 144.548 379.356 145.551C379.306 146.554 379.491 147.447 379.91 148.229C380.36 149.013 380.986 149.638 381.788 150.104C382.589 150.57 383.508 150.828 384.544 150.879Z" fill="white"/>
<path d="M416.667 161.053C413.742 160.909 411.209 160.236 409.07 159.034C406.962 157.803 405.346 156.2 404.222 154.225C403.13 152.221 402.645 149.989 402.766 147.527C402.888 145.065 403.576 142.906 404.828 141.048C406.113 139.161 407.818 137.737 409.943 136.776C412.069 135.784 414.427 135.351 417.017 135.479C419.455 135.599 421.655 136.21 423.616 137.312C425.579 138.384 427.107 139.906 428.201 141.879C429.294 143.853 429.773 146.207 429.638 148.942C429.623 149.246 429.59 149.595 429.54 149.988C429.49 150.382 429.442 150.745 429.395 151.078L409.786 150.112L410.012 145.553L425.004 146.292L421.65 147.406C421.736 146.283 421.571 145.3 421.155 144.457C420.769 143.615 420.191 142.947 419.421 142.452C418.682 141.959 417.794 141.687 416.758 141.636C415.722 141.585 414.797 141.767 413.982 142.184C413.197 142.603 412.571 143.227 412.102 144.057C411.635 144.856 411.373 145.818 411.318 146.943L411.252 148.265C411.192 149.481 411.384 150.541 411.828 151.447C412.302 152.353 413 153.073 413.92 153.606C414.842 154.109 415.958 154.392 417.269 154.457C418.488 154.517 419.532 154.4 420.402 154.108C421.303 153.787 422.199 153.283 423.088 152.595L427.424 157.562C426.171 158.81 424.659 159.741 422.887 160.354C421.117 160.937 419.044 161.17 416.667 161.053Z" fill="white"/>
<path d="M444.073 162.403C440.904 162.247 438.475 161.351 436.784 159.714C435.095 158.046 434.329 155.632 434.485 152.471L435.535 131.273L444.219 131.701L443.174 152.808C443.13 153.689 443.34 154.4 443.802 154.941C444.265 155.451 444.878 155.725 445.639 155.763C446.675 155.814 447.572 155.599 448.329 155.118L450.177 161.287C449.421 161.738 448.505 162.043 447.428 162.203C446.35 162.394 445.231 162.46 444.073 162.403ZM431.285 143.996L431.606 137.523L449.569 138.408L449.248 144.881L431.285 143.996Z" fill="white"/>
<path d="M477.818 164.066C474.649 163.91 472.22 163.013 470.529 161.376C468.84 159.709 468.074 157.294 468.23 154.134L469.28 132.935L477.964 133.363L476.919 154.47C476.875 155.352 477.085 156.063 477.547 156.603C478.01 157.114 478.623 157.388 479.384 157.425C480.42 157.476 481.317 157.261 482.074 156.781L483.922 162.95C483.166 163.4 482.25 163.705 481.173 163.865C480.095 164.056 478.976 164.123 477.818 164.066ZM465.03 145.659L465.351 139.185L483.314 140.07L482.993 146.544L465.03 145.659Z" fill="white"/>
<path d="M504.6 139.793C506.519 139.888 508.237 140.369 509.752 141.235C511.268 142.072 512.428 143.317 513.232 144.971C514.067 146.627 514.42 148.732 514.294 151.285L513.594 165.417L504.91 164.989L505.54 152.27C505.627 150.507 505.324 149.213 504.632 148.387C503.972 147.531 503.002 147.072 501.722 147.009C500.808 146.964 499.96 147.136 499.177 147.524C498.395 147.881 497.77 148.475 497.302 149.305C496.833 150.135 496.565 151.234 496.497 152.601L495.905 164.545L487.221 164.118L488.896 130.291L497.581 130.719L496.781 146.857L494.872 144.707C495.905 142.96 497.266 141.687 498.956 140.886C500.646 140.056 502.528 139.691 504.6 139.793Z" fill="white"/>
<path d="M532.32 166.751C529.394 166.606 526.862 165.933 524.722 164.731C522.614 163.5 520.998 161.897 519.874 159.922C518.782 157.919 518.297 155.686 518.419 153.224C518.541 150.763 519.228 148.603 520.481 146.745C521.766 144.859 523.471 143.435 525.595 142.473C527.721 141.481 530.08 141.049 532.67 141.176C535.108 141.296 537.307 141.907 539.269 143.009C541.232 144.081 542.76 145.603 543.853 147.577C544.947 149.55 545.426 151.904 545.291 154.639C545.276 154.943 545.243 155.292 545.193 155.686C545.143 156.079 545.094 156.443 545.047 156.775L525.439 155.809L525.665 151.251L540.657 151.989L537.303 153.103C537.389 151.98 537.224 150.997 536.807 150.154C536.421 149.313 535.843 148.644 535.074 148.15C534.334 147.656 533.447 147.384 532.411 147.333C531.375 147.282 530.449 147.465 529.634 147.882C528.85 148.3 528.224 148.924 527.755 149.754C527.288 150.554 527.026 151.516 526.97 152.64L526.905 153.962C526.845 155.178 527.036 156.238 527.48 157.144C527.955 158.051 528.652 158.771 529.573 159.303C530.495 159.806 531.611 160.089 532.921 160.154C534.14 160.214 535.185 160.098 536.054 159.805C536.956 159.484 537.852 158.98 538.741 158.293L543.077 163.259C541.824 164.507 540.311 165.438 538.54 166.052C536.77 166.635 534.696 166.868 532.32 166.751Z" fill="white"/>
<path d="M220.118 206.713L221.698 174.801L229.149 175.168L241.329 197.521L237.398 197.327L251.363 176.262L258.813 176.629L257.324 208.546L249.005 208.136L249.869 188.847L251.286 188.917L240.842 204.58L236.82 204.382L227.701 187.755L229.437 187.841L228.482 207.125L220.118 206.713Z" fill="white"/>
<path d="M274.94 210.053C272.32 209.924 269.806 209.48 267.4 208.722C265.026 207.935 263.103 206.987 261.63 205.879L264.931 199.369C266.318 200.351 267.926 201.192 269.754 201.892C271.615 202.562 273.475 202.943 275.333 203.035C276.583 203.096 277.594 203.04 278.366 202.864C279.14 202.659 279.703 202.382 280.057 202.034C280.442 201.657 280.647 201.21 280.673 200.693C280.709 199.964 280.402 199.37 279.753 198.911C279.104 198.453 278.253 198.06 277.2 197.734C276.147 197.408 274.972 197.076 273.675 196.738C272.409 196.401 271.131 195.988 269.842 195.498C268.583 195.01 267.437 194.405 266.404 193.684C265.372 192.932 264.548 191.993 263.932 190.866C263.317 189.708 263.052 188.278 263.136 186.576C263.231 184.662 263.835 182.955 264.947 181.456C266.091 179.958 267.737 178.79 269.886 177.952C272.035 177.113 274.679 176.771 277.818 176.926C279.92 177.029 281.965 177.374 283.952 177.959C285.971 178.516 287.75 179.289 289.29 180.279L286.17 186.843C284.687 185.947 283.208 185.265 281.735 184.796C280.263 184.297 278.826 184.013 277.424 183.944C276.175 183.883 275.163 183.97 274.387 184.206C273.613 184.411 273.048 184.719 272.692 185.128C272.336 185.537 272.144 186.015 272.117 186.562C272.083 187.261 272.375 187.839 272.993 188.296C273.644 188.724 274.496 189.101 275.549 189.427C276.634 189.724 277.81 190.041 279.076 190.378C280.373 190.716 281.65 191.129 282.909 191.618C284.2 192.077 285.361 192.683 286.393 193.434C287.426 194.156 288.235 195.094 288.82 196.25C289.436 197.377 289.702 198.777 289.62 200.448C289.528 202.302 288.91 203.993 287.765 205.521C286.652 207.02 285.021 208.189 282.872 209.027C280.753 209.867 278.109 210.209 274.94 210.053Z" fill="white"/>
<path d="M293.322 210.319L294.902 178.407L310.031 179.152C313.566 179.327 316.641 180.133 319.258 181.572C321.875 183.011 323.871 184.953 325.247 187.397C326.653 189.842 327.275 192.706 327.113 195.989C326.951 199.241 326.05 202.03 324.407 204.356C322.797 206.653 320.618 208.388 317.872 209.563C315.126 210.738 311.985 211.238 308.451 211.064L293.322 210.319ZM302.728 203.562L308.442 203.843C310.27 203.933 311.871 203.677 313.245 203.074C314.651 202.443 315.767 201.493 316.594 200.223C317.422 198.924 317.881 197.362 317.971 195.538C318.063 193.684 317.76 192.085 317.063 190.741C316.366 189.397 315.348 188.356 314.01 187.62C312.704 186.855 311.137 186.427 309.309 186.337L303.595 186.056L302.728 203.562Z" fill="white"/>
<path d="M342.296 213.371C339.676 213.242 337.162 212.798 334.756 212.04C332.382 211.253 330.459 210.305 328.986 209.197L332.287 202.687C333.674 203.67 335.282 204.51 337.111 205.21C338.971 205.88 340.831 206.261 342.69 206.353C343.939 206.414 344.95 206.358 345.722 206.182C346.496 205.977 347.06 205.7 347.413 205.352C347.798 204.975 348.003 204.528 348.029 204.011C348.065 203.282 347.759 202.688 347.109 202.229C346.46 201.771 345.609 201.378 344.556 201.052C343.503 200.726 342.328 200.394 341.031 200.056C339.765 199.72 338.487 199.306 337.198 198.816C335.939 198.328 334.793 197.723 333.76 197.002C332.728 196.25 331.904 195.311 331.288 194.184C330.673 193.026 330.408 191.596 330.492 189.894C330.587 187.98 331.191 186.273 332.303 184.774C333.447 183.276 335.093 182.108 337.242 181.27C339.391 180.431 342.035 180.089 345.174 180.244C347.276 180.347 349.321 180.692 351.308 181.277C353.327 181.834 355.106 182.607 356.646 183.597L353.526 190.161C352.043 189.265 350.565 188.583 349.091 188.114C347.619 187.615 346.182 187.331 344.781 187.262C343.531 187.201 342.519 187.288 341.743 187.524C340.97 187.73 340.405 188.037 340.048 188.446C339.692 188.855 339.5 189.333 339.473 189.88C339.439 190.579 339.731 191.157 340.35 191.614C341 192.042 341.852 192.419 342.905 192.745C343.99 193.042 345.166 193.359 346.432 193.696C347.729 194.034 349.007 194.447 350.265 194.936C351.556 195.395 352.717 196.001 353.749 196.753C354.783 197.474 355.591 198.412 356.176 199.568C356.792 200.695 357.059 202.095 356.976 203.766C356.884 205.62 356.266 207.311 355.121 208.839C354.008 210.338 352.377 211.507 350.228 212.345C348.109 213.185 345.465 213.527 342.296 213.371Z" fill="white"/>
<path d="M366.851 202.288C366.901 201.285 367.097 200.411 367.439 199.666C367.813 198.892 368.259 198.214 368.777 197.63C369.295 197.046 369.84 196.525 370.412 196.065C371.017 195.577 371.574 195.117 372.084 194.685C372.596 194.223 373.016 193.756 373.345 193.285C373.704 192.815 373.898 192.292 373.927 191.714C373.972 190.802 373.626 190.069 372.89 189.515C372.184 188.963 371.237 188.657 370.049 188.598C368.83 188.538 367.704 188.772 366.669 189.3C365.666 189.83 364.834 190.596 364.173 191.599L357.543 187.617C358.832 185.639 360.635 184.098 362.95 182.993C365.266 181.858 368.101 181.373 371.452 181.538C373.799 181.654 375.854 182.09 377.619 182.848C379.416 183.576 380.801 184.604 381.773 185.931C382.746 187.259 383.187 188.85 383.095 190.703C383.036 191.889 382.802 192.913 382.393 193.776C381.984 194.64 381.473 195.392 380.861 196.032C380.279 196.673 379.654 197.267 378.986 197.813C378.319 198.328 377.683 198.83 377.078 199.318C376.504 199.808 376.021 200.317 375.628 200.846C375.235 201.376 375.022 201.99 374.987 202.689L366.851 202.288ZM370.323 214.523C368.83 214.45 367.619 213.918 366.691 212.928C365.762 211.938 365.33 210.789 365.395 209.482C365.461 208.145 366.004 207.06 367.023 206.226C368.043 205.363 369.3 204.968 370.793 205.041C372.347 205.118 373.573 205.635 374.473 206.593C375.404 207.523 375.837 208.656 375.771 209.993C375.706 211.3 375.163 212.401 374.141 213.295C373.15 214.19 371.877 214.6 370.323 214.523Z" fill="white"/>
</svg>
