<svg xmlns="http://www.w3.org/2000/svg" xmlns:xlink="http://www.w3.org/1999/xlink" version="1.0" id="Layer_1" x="0" y="0" viewBox="0 0 149.8 35" xml:space="preserve"><style>.st0{fill:#fff}</style><path id="fullLogo_25_" class="st0" d="M27.5 14.3c0-2.8-2.2-4.6-5.3-4.6-5.5 0-8.9 4.8-8.9 9.4 0 .5 0 1.1.1 1.6s.2.9.4 1.4c.2.4.4.8.7 1.2.3.4.6.7.9.9.4.3.8.5 1.2.7.5.2 1 .3 1.5.4.8.1 1.6.2 2.4.2.4 0 .7 0 1.1-.1.7-.1 1.4-.2 2-.3.6-.1 1.2-.3 1.7-.5V24.3l.1-.7.5-2.5c-.2.1-.5.2-.7.2-.7.2-1.4.4-2 .5H23c-1.2.2-2.4.3-3.6 0-.1 0-.1 0-.2-.1-.2-.1-.4-.1-.5-.2-.2-.1-.3-.2-.4-.3l-.3-.3c-.3-.4-.5-1.1-.5-1.6 6.3.2 10-1.2 10-5zm-5.8-1.4c1 0 1.6.5 1.6 1.3 0 1.4-1.7 1.9-5.3 1.9.4-1.4 1.6-3.2 3.7-3.2z"/><a xlink:href="50.104"><path id="fullLogo_24_" class="st0" d="m31.2 25.2 4.3-22h-.1l-4.7 1.2-3.9 20.8z"/></a><path id="fullLogo_23_" class="st0" d="M43 9.6c-5.4 0-9.1 4.4-9.1 9.6 0 3.8 2.6 6.3 6.4 6.3 5.3 0 9.1-4.1 9.1-9.6.1-3.5-2.3-6.3-6.4-6.3zm-2 12.5c-1.6 0-2.5-1.2-2.5-3 0-2.4 1.3-6.1 3.9-6.1 1.8 0 2.4 1.5 2.4 2.9 0 2.6-1.4 6.2-3.8 6.2z"/><a xlink:href="50.104"><path id="fullLogo_22_" class="st0" d="M54.8 18.8c0-2.9 2-5.6 5.2-5.6.9 0 1.5.1 2 .4l.7-3.6c-.7-.2-1.6-.3-2.6-.3-5.8 0-9.9 4.2-9.9 9.6 0 3.9 2.6 6.2 6.4 6.2 1.2 0 2.3-.2 3.2-.4l.7-3.6c-.7.3-1.5.5-2.7.5-1.6 0-3-1.1-3-3.2z"/></a><a xlink:href="50.104"><path id="fullLogo_21_" class="st0" d="M74.6 20.5c0-.5.1-1.3.3-1.9l1-5.2h2.8l.7-3.4h-2.8l.8-4.1-4.6 1.2-.6 2.9h-2l-.6 3.4h1.9l-1.1 6c-.2 1.2-.3 2-.3 2.8 0 1.9 1.3 3.3 4 3.3.9 0 1.8-.1 2.5-.3l.7-3.5v-.1c-.4.1-.8.1-1.2.1-1.1.1-1.5-.5-1.5-1.2z"/></a><a xlink:href="50.104"><path id="fullLogo_20_" class="st0" d="M66 25.2 68.9 10h-4.5l-2.9 15.2z"/></a><a xlink:href="50.104"><path id="fullLogo_19_" class="st0" d="M67.6 3.4c-1.4 0-2.6 1-2.6 2.5 0 1.3.9 2.2 2.1 2.2h.1c1.4 0 2.6-.9 2.6-2.5.1-1.3-.9-2.2-2.2-2.2z"/></a><a xlink:href="50.104"><path id="fullLogo_18_" class="st0" d="m6.9 25.2.8-1.4L20.9 0h-5.4L5.7 18.7l-1.3-8.5V10L0 11.2l2.3 14z"/></a><a xlink:href="50.104"><path id="fullLogo_17_" class="st0" d="M95.8 10h-5.1l-4.6 8.7-1.3-8.5V10h-4.6l.3 1.5 2.2 13.6-5.2 9.9H82l13.8-25z"/></a><a xlink:href="48.036"><path id="fullLogo_16_" class="st0" d="m123.4 5.8-1.5 7.5h-7l1.5-7.5h-4.2l-3.7 19.4h4.2l1.5-8.2h7.1l-1.6 8.2h4.2l3.7-19.4z"/></a><a xlink:href="48.036"><path id="fullLogo_15_" class="st0" d="M101.7 9.3h7.3l.7-3.5H98.2l-.8 4.1-2.9 15.3h11.9l.7-3.5h-7.8l.9-4.8h6.9l.7-3.5h-6.9z"/></a><a xlink:href="48.036"><path id="fullLogo_14_" class="st0" d="M135.8 13.8c-1.6-.9-2.8-1.6-2.8-2.8 0-1.1 1-2 2.9-2 1.6 0 3 .5 3.6.8l1.3-3.5c-.8-.4-2.2-.9-4.6-.9-4.2 0-7.6 2.4-7.6 6.3 0 2.5 2 4.1 4 5.2 1.8.9 2.6 1.6 2.6 2.8 0 1.5-1.5 2.2-3.1 2.2-.5 0-1 0-1.5-.1-1.4-.2-2.7-.9-3.3-1.2-.3-.2-.5-.3-.5-.3l-.8 3.8c.1.1 2.1 1.4 5.6 1.4 4.3 0 7.8-2.2 7.8-6.5.2-2.4-1.2-3.9-3.6-5.2z"/></a><path id="fullLogo_13_" class="st0" d="M149.8 7.1c0 1.6-1.3 2.9-2.9 2.9-1.6 0-2.9-1.3-2.9-2.9 0-1.6 1.3-2.9 2.9-2.9 1.6 0 2.9 1.3 2.9 2.9zm-5.2 0c0 1.3.9 2.3 2.2 2.3 1.3 0 2.2-1 2.2-2.3 0-1.3-.9-2.3-2.2-2.3s-2.2 1-2.2 2.3zm1.8 1.5h-.7V5.7c.3-.1.6-.1 1.1-.1.5 0 .8.1 1 .2.2.1.3.3.3.6s-.2.6-.6.7c.3.1.4.3.5.7.1.4.1.6.2.7h-.7c-.1-.1-.1-.4-.2-.7-.1-.3-.2-.5-.6-.5h-.3v1.3zm0-1.7h.3c.4 0 .7-.1.7-.4 0-.3-.2-.4-.6-.4h-.4v.8z"/></svg>