<svg width="240" height="52" viewBox="0 0 240 52" fill="none" xmlns="http://www.w3.org/2000/svg">
<path d="M44.0587 21.2457C44.0587 17.0857 40.534 14.4114 35.5674 14.4114C26.7557 14.4114 21.3084 21.5429 21.3084 28.3771C21.3084 29.12 21.3084 30.0114 21.4686 30.7543C21.6288 31.4971 21.7891 32.0914 22.1095 32.8343C22.4299 33.4286 22.7503 34.0229 23.231 34.6171C23.7116 35.2114 24.1923 35.6571 24.6729 35.9543C25.3137 36.4 25.9546 36.6971 26.5955 36.9943C27.3965 37.2914 28.1976 37.44 28.9987 37.5886C30.2804 37.7371 31.5621 37.8857 32.8438 37.8857C33.4846 37.8857 33.9653 37.8857 34.6061 37.7371C35.7276 37.5886 36.8491 37.44 37.8104 37.2914C38.7717 37.1429 39.733 36.8457 40.534 36.5486V36.1029L40.6943 35.0629L41.4953 31.3486C41.1749 31.4971 40.6943 31.6457 40.3738 31.6457C39.2523 31.9429 38.1308 32.24 37.1696 32.3886H36.8491C34.9266 32.6857 33.004 32.8343 31.0814 32.3886C30.9212 32.3886 30.9212 32.3886 30.761 32.24C30.4406 32.0914 30.1202 32.0914 29.9599 31.9429C29.6395 31.7943 29.4793 31.6457 29.3191 31.4971L28.8385 31.0514C28.3578 30.4571 28.0374 29.4171 28.0374 28.6743C38.1308 28.9714 44.0587 26.8914 44.0587 21.2457ZM34.7664 19.1657C36.3685 19.1657 37.3298 19.9086 37.3298 21.0971C37.3298 23.1771 34.6061 23.92 28.8385 23.92C29.4793 21.84 31.4019 19.1657 34.7664 19.1657Z" fill="#2F149D"/>
<path d="M49.9866 37.44L56.8758 4.75429H56.7156L49.1856 6.53714L42.9372 37.44H49.9866Z" fill="#2F149D"/>
<path d="M68.8919 14.2629C60.2403 14.2629 54.3124 20.8 54.3124 28.5257C54.3124 34.1714 58.478 37.8857 64.5661 37.8857C73.0574 37.8857 79.1455 31.7943 79.1455 23.6229C79.3057 18.4229 75.4606 14.2629 68.8919 14.2629ZM65.6876 32.8343C63.1242 32.8343 61.6822 31.0514 61.6822 28.3771C61.6822 24.8114 63.765 19.3143 67.9306 19.3143C70.8144 19.3143 71.7757 21.5429 71.7757 23.6229C71.7757 27.4857 69.5327 32.8343 65.6876 32.8343Z" fill="#2F149D"/>
<path d="M87.7971 27.9314C87.7971 23.6229 91.0013 19.6114 96.1282 19.6114C97.5701 19.6114 98.5314 19.76 99.3324 20.2057L100.454 14.8571C99.3324 14.56 97.8905 14.4114 96.2884 14.4114C86.996 14.4114 80.4272 20.6514 80.4272 28.6743C80.4272 34.4686 84.5928 37.8857 90.6809 37.8857C92.6035 37.8857 94.3658 37.5886 95.8077 37.2914L96.9292 31.9429C95.8077 32.3886 94.526 32.6857 92.6035 32.6857C90.0401 32.6857 87.7971 31.0514 87.7971 27.9314Z" fill="#2F149D"/>
<path d="M119.519 30.4571C119.519 29.7143 119.68 28.5257 120 27.6343L121.602 19.9086H126.088L127.21 14.8571H122.724L124.005 8.76571L116.636 10.5486L115.674 14.8571H112.47L111.509 19.9086H114.553L112.79 28.8229C112.47 30.6057 112.31 31.7943 112.31 32.9829C112.31 35.8057 114.393 37.8857 118.718 37.8857C120.16 37.8857 121.602 37.7371 122.724 37.44L123.845 32.24V32.0914C123.204 32.24 122.563 32.24 121.923 32.24C120.16 32.3886 119.519 31.4971 119.519 30.4571Z" fill="#2F149D"/>
<path d="M105.741 37.44L110.387 14.8571H103.178L98.5314 37.44H105.741Z" fill="#2F149D"/>
<path d="M108.304 5.05143C106.061 5.05143 104.139 6.53714 104.139 8.76571C104.139 10.6971 105.581 12.0343 107.503 12.0343H107.664C109.907 12.0343 111.829 10.6971 111.829 8.32C111.989 6.38857 110.387 5.05143 108.304 5.05143Z" fill="#2F149D"/>
<path d="M11.0547 37.44L12.3364 35.36L33.4846 0H24.8331L9.13218 27.7829L7.0494 15.1543V14.8571L0 16.64L3.68491 37.44H11.0547Z" fill="#2F149D"/>
<path d="M153.485 14.8571H145.314L137.944 27.7829L135.861 15.1543V14.8571H128.491L128.972 17.0857L132.497 37.2914L124.166 52H131.375L153.485 14.8571Z" fill="#2F149D"/>
<path d="M197.704 8.61714L195.3 19.76H184.085L186.489 8.61714H179.76L173.832 37.44H180.561L182.964 25.2571H194.339L191.776 37.44H198.505L204.433 8.61714H197.704Z" fill="#2F149D"/>
<path d="M162.937 13.8171H174.633L175.754 8.61714H157.33L156.048 14.7086L151.402 37.44H170.467L171.589 32.24H159.092L160.534 25.1086H171.589L172.71 19.9086H161.656L162.937 13.8171Z" fill="#2F149D"/>
<path d="M217.57 20.5029C215.007 19.1657 213.084 18.1257 213.084 16.3429C213.084 14.7086 214.686 13.3714 217.73 13.3714C220.294 13.3714 222.537 14.1143 223.498 14.56L225.581 9.36C224.299 8.76571 222.056 8.02286 218.211 8.02286C211.482 8.02286 206.035 11.5886 206.035 17.3829C206.035 21.0971 209.239 23.4743 212.443 25.1086C215.327 26.4457 216.609 27.4857 216.609 29.2686C216.609 31.4971 214.206 32.5371 211.642 32.5371C210.841 32.5371 210.04 32.5371 209.239 32.3886C206.996 32.0914 204.913 31.0514 203.952 30.6057C203.471 30.3086 203.151 30.16 203.151 30.16L201.869 35.8057C202.029 35.9543 205.234 37.8857 210.841 37.8857C217.73 37.8857 223.338 34.6171 223.338 28.2286C223.658 24.6629 221.415 22.4343 217.57 20.5029Z" fill="#2F149D"/>
<path d="M240 10.5486C240 12.9257 237.917 14.8571 235.354 14.8571C232.79 14.8571 230.708 12.9257 230.708 10.5486C230.708 8.17143 232.79 6.24 235.354 6.24C237.917 6.24 240 8.17143 240 10.5486ZM231.669 10.5486C231.669 12.48 233.111 13.9657 235.194 13.9657C237.276 13.9657 238.718 12.48 238.718 10.5486C238.718 8.61714 237.276 7.13143 235.194 7.13143C233.111 7.13143 231.669 8.61714 231.669 10.5486ZM234.553 12.7771H233.431V8.46857C233.912 8.32 234.393 8.32 235.194 8.32C235.995 8.32 236.475 8.46857 236.796 8.61714C237.116 8.76571 237.276 9.06286 237.276 9.50857C237.276 9.95429 236.956 10.4 236.315 10.5486C236.796 10.6971 236.956 10.9943 237.116 11.5886C237.276 12.1829 237.276 12.48 237.437 12.6286H236.315C236.155 12.48 236.155 12.0343 235.995 11.5886C235.834 11.1429 235.674 10.8457 235.033 10.8457H234.553V12.7771ZM234.553 10.2514H235.033C235.674 10.2514 236.155 10.1029 236.155 9.65714C236.155 9.21143 235.834 9.06286 235.194 9.06286H234.553V10.2514Z" fill="#2F149D"/>
</svg>
