<svg width="438" height="371" viewBox="0 0 438 371" fill="none" xmlns="http://www.w3.org/2000/svg">
<g clip-path="url(#clip0_154_22)">
<path d="M301.545 56.8246H150.443V200.971H301.545V56.8246Z" fill="white"/>
<path d="M188.235 56.8246V200.971" stroke="#EFDCD7" stroke-width="4" stroke-linecap="round" stroke-linejoin="round"/>
<path d="M225.994 56.8246V200.971" stroke="#EFDCD7" stroke-width="4" stroke-linecap="round" stroke-linejoin="round"/>
<path d="M263.786 56.8246V200.971" stroke="#EFDCD7" stroke-width="4" stroke-linecap="round" stroke-linejoin="round"/>
<path d="M300.825 93.1263H151.2" stroke="#EFDCD7" stroke-width="4" stroke-linecap="round" stroke-linejoin="round"/>
<path d="M300.825 129.173H151.2" stroke="#EFDCD7" stroke-width="4" stroke-linecap="round" stroke-linejoin="round"/>
<path d="M300.825 165.255H151.2" stroke="#EFDCD7" stroke-width="4" stroke-linecap="round" stroke-linejoin="round"/>
<path d="M325.237 271.693C334.466 283.363 346.361 283.423 361.181 279.683C361.181 279.683 340.886 305.052 354.056 311.556C369.465 319.182 401.197 302.175 409.211 288.924C417.112 275.836 396.559 277.075 381.859 291.733C370.511 303.034 357.536 323.815 365.921 332.661C378.709 346.106 424.972 319.25 438 284.073" stroke="#FF1818" stroke-width="4" stroke-linecap="round" stroke-linejoin="round"/>
<path d="M-0.108765 233C4.76624 209.619 17.9775 181.501 41.9475 186.971C72.3825 193.946 79.5037 261.258 61.485 259.434C46.0612 257.856 49.14 191.669 86.1787 197.907" stroke="#E96060" stroke-width="4" stroke-linecap="round" stroke-linejoin="round"/>
<path d="M122.501 295.264C122.362 294.842 121.946 294.561 121.53 294.607L103.387 296.249L105.424 278.892C105.472 278.47 105.195 278.048 104.779 277.908C104.359 277.767 103.897 277.953 103.665 278.33L94.8262 294.185L77.1037 285.225C76.6875 285.039 76.2225 285.13 75.945 285.506C75.6675 285.883 75.7162 286.396 75.9937 286.727L88.5337 300.331L70.7175 307.74C70.3012 307.93 70.0687 308.352 70.1625 308.819C70.2525 309.241 70.6725 309.572 71.0887 309.572L91.0312 308.819L88.7662 328.802C88.7175 329.274 88.995 329.696 89.4112 329.787C89.505 329.836 89.5987 329.836 89.6925 329.836C90.015 329.836 90.3375 329.646 90.525 329.319L99.6412 310.883L117.967 318.155C118.384 318.296 118.845 318.155 119.077 317.779C119.306 317.406 119.261 316.889 118.89 316.608L105.889 304.646L122.04 296.389C122.456 296.154 122.64 295.686 122.501 295.264Z" fill="#FFC930"/>
<path d="M437.408 133.971L421.05 130.686L428.314 115.489C428.468 115.132 428.389 114.736 428.078 114.501C427.766 114.261 427.335 114.299 427.061 114.577L414.727 126.847L402.506 111.809C402.274 111.532 401.843 111.452 401.531 111.612C401.22 111.809 401.063 112.205 401.179 112.558L407.269 130.409L389.31 132.743C388.92 132.781 388.646 133.1 388.646 133.495C388.646 133.891 388.92 134.206 389.273 134.286L407.974 137.848L400.009 153.52C399.851 153.874 399.93 154.269 400.241 154.509C400.556 154.744 400.984 154.706 401.258 154.429L414.375 141.607L428.273 156.447C428.43 156.607 428.625 156.683 428.858 156.683C429.015 156.683 429.173 156.645 429.289 156.527C429.6 156.288 429.716 155.892 429.521 155.535L420.934 138.045L437.37 135.434C437.76 135.392 438.034 135.039 438.034 134.681C438.034 134.404 437.76 134.047 437.408 133.971Z" fill="#5DA47A"/>
<path d="M148.913 336.542C152.43 336.542 155.276 333.653 155.276 330.087C155.276 326.526 152.43 323.637 148.913 323.637C145.395 323.637 142.545 326.526 142.545 330.087C142.545 333.653 145.395 336.542 148.913 336.542Z" fill="white"/>
<path d="M436.087 238.451C442.177 238.451 447.112 233.452 447.112 227.279C447.112 221.11 442.177 216.107 436.087 216.107C430.001 216.107 425.066 221.11 425.066 227.279C425.066 233.452 430.001 238.451 436.087 238.451Z" fill="#FFC930"/>
<path d="M411.724 203.693C414.975 203.693 417.615 201.017 417.615 197.717C417.615 194.418 414.975 191.745 411.724 191.745C408.469 191.745 405.829 194.418 405.829 197.717C405.829 201.017 408.469 203.693 411.724 203.693Z" fill="white"/>
<path d="M84.6075 164.244C89.7225 164.244 93.8625 160.047 93.8625 154.862C93.8625 149.681 89.7225 145.484 84.6075 145.484C79.4963 145.484 75.3563 149.681 75.3563 154.862C75.3563 160.047 79.4963 164.244 84.6075 164.244Z" fill="white"/>
<path d="M50.3063 143.014C53.7225 143.014 56.4938 140.205 56.4938 136.742C56.4938 133.279 53.7225 130.47 50.3063 130.47C46.89 130.47 44.1188 133.279 44.1188 136.742C44.1188 140.205 46.89 143.014 50.3063 143.014Z" fill="#EFDCD7"/>
<path d="M195.851 27.3461C199.403 27.3461 202.286 24.4229 202.286 20.8194C202.286 17.2158 199.403 14.2964 195.851 14.2964C192.293 14.2964 189.413 17.2158 189.413 20.8194C189.413 24.4229 192.293 27.3461 195.851 27.3461Z" fill="#FFC930"/>
<path d="M346.354 50.5297L376.826 75.4278" stroke="#5DA47A" stroke-width="4" stroke-linecap="round" stroke-linejoin="round"/>
<path d="M328.935 72.5388L359.419 97.1746" stroke="#5DA47A" stroke-width="4" stroke-linecap="round" stroke-linejoin="round"/>
<path d="M333.881 58.4135L371.873 89.2566" stroke="#5DA47A" stroke-width="4" stroke-linecap="round" stroke-linejoin="round"/>
<path d="M361.822 35.3058L388.061 56.6497" stroke="#5DA47A" stroke-width="4" stroke-linecap="round" stroke-linejoin="round"/>
<path d="M318.082 90.5491L344.318 111.893" stroke="#5DA47A" stroke-width="4" stroke-linecap="round" stroke-linejoin="round"/>
<path d="M352.875 98.505C366.311 98.505 377.197 87.4663 377.197 73.8503C377.197 60.2381 366.311 49.1993 352.875 49.1993C339.443 49.1993 328.556 60.2381 328.556 73.8503C328.556 87.4663 339.443 98.505 352.875 98.505Z" stroke="#231F20" stroke-width="4" stroke-linecap="round" stroke-linejoin="round"/>
<path d="M402.371 50.7084C393.956 61.3252 370.133 56.1099 368.179 54.5248C366.225 52.9397 355.999 30.482 364.414 19.831" stroke="#231F20" stroke-width="4" stroke-linecap="round" stroke-linejoin="round"/>
<path d="M303.487 96.8135C311.902 86.1967 335.677 91.4652 337.579 93.0997C339.517 94.6658 349.856 117.04 341.441 127.657" stroke="#231F20" stroke-width="4" stroke-linecap="round" stroke-linejoin="round"/>
<path d="M275.501 77.4767L258.214 64.5145L273.214 52.0085C273.476 51.7804 273.551 51.4003 273.401 51.0962C273.251 50.7921 272.876 50.602 272.539 50.716L254.426 55.2395L251.839 36.4614C251.801 36.1193 251.501 35.8152 251.164 35.8152C250.789 35.7772 250.489 36.0053 250.376 36.3854L245.014 55.8477L221.126 49.5757C220.751 49.4996 220.414 49.6517 220.264 49.9938C220.114 50.3359 220.226 50.754 220.526 50.9441L239.801 63.5262L220.039 79.9475C219.739 80.1756 219.664 80.5937 219.851 80.9358C220.039 81.2399 220.414 81.392 220.789 81.2399L243.964 71.7748L247.189 89.2225C247.264 89.5646 247.564 89.8307 247.901 89.8307C247.901 89.8307 247.901 89.8307 247.939 89.8307C248.276 89.8307 248.576 89.6026 248.651 89.2605L253.001 72.231L274.789 78.8451C275.126 78.9592 275.501 78.7691 275.689 78.465C275.876 78.0849 275.801 77.7048 275.501 77.4767Z" fill="#FE4F32"/>
<path d="M234.064 34.9789L230.201 28.3268" stroke="#231F20" stroke-width="4" stroke-linecap="round" stroke-linejoin="round"/>
<path d="M263.464 42.0492L265.751 38.5141" stroke="#231F20" stroke-width="4" stroke-linecap="round" stroke-linejoin="round"/>
<path d="M270.776 91.009L274.639 94.9243" stroke="#231F20" stroke-width="4" stroke-linecap="round" stroke-linejoin="round"/>
<path d="M219.026 63.9823H210.889" stroke="#231F20" stroke-width="4" stroke-linecap="round" stroke-linejoin="round"/>
<path opacity="0.2" d="M125.94 128.33C151.808 128.33 172.778 107.073 172.778 80.8522C172.778 54.6351 151.808 33.3786 125.94 33.3786C100.076 33.3786 79.1025 54.6351 79.1025 80.8522C79.1025 107.073 100.076 128.33 125.94 128.33Z" fill="black"/>
<path d="M125.94 121.719C154.061 121.719 176.858 98.6115 176.858 70.1061C176.858 41.6006 154.061 18.4968 125.94 18.4968C97.8188 18.4968 75.0225 41.6006 75.0225 70.1061C75.0225 98.6115 97.8188 121.719 125.94 121.719Z" fill="#5DA47A"/>
<path d="M148.365 46.3027C143.415 52.7838 140.494 51.6131 133.65 55.4561C120.705 62.7469 125.396 82.7413 141.071 84.9232C160.44 87.6259 173.839 76.6213 176.794 72.5806C176.824 71.7672 176.858 70.9233 176.858 70.106C176.858 55.9769 171.266 43.2123 162.21 33.8651C155.689 35.6251 153.311 39.8254 148.365 46.3027Z" fill="#FFC930"/>
<path d="M117.3 28.9159C121.894 32.7248 128.67 32.0101 132.431 27.3536C134.261 25.0729 135.098 22.1763 134.775 19.276C127.643 18.0064 120.353 18.2991 113.318 20.0895C113.22 23.5106 114.664 26.7682 117.3 28.9159Z" fill="#FFC930"/>
<path d="M129.251 100.197C122.344 94.5289 112.256 95.6047 106.665 102.607C103.583 106.48 102.394 111.593 103.485 116.443C112.609 120.97 122.858 122.666 132.911 121.263C137.025 114.295 135.48 105.309 129.251 100.197Z" fill="#FFC930"/>
<path d="M146.565 63.336C143.449 61.8041 139.691 63.108 138.18 66.2972C136.669 69.456 137.955 73.2649 141.101 74.7967C144.218 76.3286 147.979 75.0248 149.486 71.866C150.998 68.6768 149.711 64.8641 146.565 63.336Z" fill="#FE4F32"/>
<path d="M134.066 77.9556C132.045 76.9787 129.57 77.8264 128.576 79.9094C127.613 81.9621 128.445 84.4671 130.504 85.4782C132.525 86.4552 135 85.6075 135.994 83.5548C136.958 81.4413 136.091 78.9629 134.066 77.9556Z" fill="white"/>
<path d="M167.475 40.2474C163.718 41.1597 160.41 43.6685 158.58 47.5077C155.4 54.1827 158.13 62.1957 164.779 65.4837C168.698 67.3729 173.066 67.2095 176.633 65.3203C175.796 56.0415 172.519 47.4773 167.475 40.2474Z" fill="#FFC930"/>
<path d="M144.54 98.1782C142.71 96.6805 139.98 96.9732 138.503 98.8282C137.025 100.683 137.314 103.45 139.144 104.948C140.974 106.45 143.704 106.153 145.181 104.298C146.693 102.443 146.404 99.7062 144.54 98.1782Z" fill="#FFC930"/>
<path d="M120.049 35.3172C119.19 34.6862 116.978 34.7432 115.853 36.1763C114.698 37.6093 114.923 39.7266 116.336 40.867C117.75 42.0074 119.839 41.8097 120.96 40.3766C122.119 38.9778 121.609 36.8757 120.533 35.7581C120.379 35.5985 120.42 35.6023 120.349 35.5757L120.049 35.3172Z" fill="#FFC930"/>
<path d="M102.555 92.4801C100.691 90.9786 97.9913 91.2751 96.5138 93.1301C95.0363 95.0193 95.325 97.7524 97.1588 99.2501C99.0225 100.748 101.719 100.455 103.196 98.6001C104.708 96.7451 104.419 94.0082 102.555 92.4801Z" fill="#FFC930"/>
<path d="M103.455 42.6574C105.608 44.4174 108.754 44.0905 110.52 41.9085C112.256 39.7266 111.934 36.5336 109.781 34.7432C107.629 32.9871 104.483 33.3102 102.746 35.4921C100.95 37.674 101.303 40.8974 103.455 42.6574Z" fill="white"/>
<path d="M156.844 99.9039C154.305 103.093 154.661 107.719 157.646 110.487C158.61 109.703 159.574 108.856 160.508 108.012C163.331 105.374 165.84 102.409 167.993 99.2197C167.831 99.0562 167.67 98.927 167.509 98.7939C164.265 96.0913 159.476 96.612 156.844 99.9039Z" fill="#FE4F32"/>
<path d="M100.819 79.9741C109.05 79.9741 115.725 73.2117 115.725 64.8642C115.725 56.5205 109.05 49.7543 100.819 49.7543C92.5875 49.7543 85.9125 56.5205 85.9125 64.8642C85.9125 73.2117 92.5875 79.9741 100.819 79.9741Z" fill="#FFC930"/>
<path d="M87.615 60.3065C89.6213 60.3065 91.245 58.6606 91.245 56.6269C91.245 54.5933 89.6213 52.9473 87.615 52.9473C85.6125 52.9473 83.985 54.5933 83.985 56.6269C83.985 58.6606 85.6125 60.3065 87.615 60.3065Z" fill="#FE4F32"/>
<path d="M219.735 295.861H209.959V358.448H219.735V295.861Z" fill="#231F20"/>
<path d="M166.852 233.236L176.7 289.825H232.117L222.274 233.236C221.392 228.195 216.656 224.113 211.684 224.113H174.262C169.29 224.113 165.975 228.195 166.852 233.236ZM190.095 266.158H206.471C208.369 266.227 209.992 267.599 210.364 269.519C210.701 271.374 209.449 272.883 207.622 272.883H191.246C189.319 272.814 187.729 271.442 187.357 269.519C187.05 267.667 188.269 266.158 190.095 266.158Z" fill="#FE4F32"/>
<path opacity="0.2" d="M175.616 283.583L176.7 289.825H232.117L229.684 275.901L175.616 283.583Z" fill="#6D514D"/>
<path d="M239.122 360.817H190.369C187.762 360.817 185.629 358.654 185.629 356.016V355.742C185.629 353.1 187.762 350.937 190.369 350.937H239.122C241.729 350.937 243.859 353.1 243.859 355.742V356.016C243.859 358.692 241.729 360.817 239.122 360.817Z" fill="#FE4F32"/>
<path d="M238.954 370.726C241.642 370.726 243.825 368.514 243.825 365.789C243.825 363.063 241.642 360.851 238.954 360.851C236.261 360.851 234.079 363.063 234.079 365.789C234.079 368.514 236.261 370.726 238.954 370.726Z" fill="#231F20"/>
<path d="M214.729 370.726C217.417 370.726 219.6 368.514 219.6 365.789C219.6 363.063 217.417 360.851 214.729 360.851C212.036 360.851 209.854 363.063 209.854 365.789C209.854 368.514 212.036 370.726 214.729 370.726Z" fill="#231F20"/>
<path d="M190.504 370.726C193.192 370.726 195.375 368.514 195.375 365.789C195.375 363.063 193.192 360.851 190.504 360.851C187.811 360.851 185.629 363.063 185.629 365.789C185.629 368.514 187.811 370.726 190.504 370.726Z" fill="#231F20"/>
<path d="M273.634 295.861H223.83C221.224 295.861 219.094 293.698 219.094 291.056V290.783C219.094 288.145 221.224 285.982 223.83 285.982H273.634C276.236 285.982 278.37 288.145 278.37 290.783V291.056C278.37 293.698 276.236 295.861 273.634 295.861Z" fill="#FE4F32"/>
<path d="M231.78 295.861H176.768C174.161 295.861 172.031 293.698 172.031 291.056V290.783C172.031 288.145 174.161 285.982 176.768 285.982H231.78C234.386 285.982 236.516 288.145 236.516 290.783V291.056C236.516 293.698 234.42 295.861 231.78 295.861Z" fill="#FE4F32"/>
<path d="M231.307 285.263H176.224" stroke="#6D514D" stroke-width="4" stroke-linecap="round" stroke-linejoin="round"/>
<path d="M288.596 170.037L304.571 180.102L311.629 164.593L305.482 146.724C301.159 147.032 297.784 147.921 297.784 147.921L288.596 170.037Z" fill="#AC704E"/>
<path d="M201.994 172.127C201.994 172.127 201.623 162.78 201.454 160.005C200.914 150.935 201.825 144.222 201.69 140.387C201.454 132.104 206.756 125.117 215.303 124.673C215.876 124.639 216.652 124.125 217.192 124.125C224.557 124.125 230.4 126.011 233.914 130.77C236.175 133.815 236.648 139.224 237.053 143.538C237.221 145.488 237.424 147.339 237.697 148.639C239.047 156.995 239.317 160.826 236.546 164.422C234.116 167.608 230.029 168.087 227.801 168.087C227.089 168.087 226.043 168.018 225.401 167.95L225.806 171.751L201.994 172.127Z" fill="#AC704E"/>
<path opacity="0.2" d="M218.546 165.927L223.444 171.888L225.772 171.785L225.367 167.984C225.401 167.984 222.465 167.573 218.546 165.927Z" fill="#23211F"/>
<path d="M200.273 139.292C200.306 141.041 201.116 155.759 201.656 164.32C209.798 163.293 212.569 162.198 212.569 162.198C212.569 162.198 203.82 157.371 205.305 151.414C207.296 146.553 215.066 149.632 215.066 149.632C215.066 149.632 216.45 144.565 215.168 137.958C219.019 140.011 227.19 139.566 231.446 138.266C234.353 137.376 235.973 135.423 235.973 135.423C235.635 134.02 234.926 132.344 234.926 132.344C234.926 132.344 234.285 131.112 233.947 130.736C230.467 125.977 224.423 123.339 217.058 123.339C216.484 123.339 215.843 123.338 215.303 123.373C206.756 123.852 200.003 130.975 200.273 139.292Z" fill="#221F1F"/>
<path d="M229.522 152.851L229.59 152.783C229.961 152.441 230.096 151.928 229.961 151.414L229.725 150.555" stroke="#23211F" stroke-width="4" stroke-linecap="round" stroke-linejoin="round"/>
<path d="M227.122 156.55L230.535 157.371" stroke="#23211F" stroke-width="4" stroke-linecap="round" stroke-linejoin="round"/>
<path d="M223.815 148.982C224.374 148.982 224.827 148.522 224.827 147.955C224.827 147.385 224.374 146.929 223.815 146.929C223.256 146.929 222.802 147.385 222.802 147.955C222.802 148.522 223.256 148.982 223.815 148.982Z" fill="#221F1F"/>
<path d="M234.049 147.955C234.608 147.955 235.061 147.495 235.061 146.929C235.061 146.359 234.608 145.903 234.049 145.903C233.49 145.903 233.036 146.359 233.036 146.929C233.036 147.495 233.49 147.955 234.049 147.955Z" fill="#221F1F"/>
<path d="M302.614 353.583L311.325 340.537C310.144 337.181 309.165 333.246 308.692 329.65L272.554 329.684C273.667 337.694 274.916 344.612 276.165 350.329L279.476 355.841C279.476 355.841 300.45 353.583 302.614 353.583Z" fill="#AC704E"/>
<path d="M220.436 271.343C225.806 285.347 242.73 286.51 242.73 286.51H269.985C269.985 286.51 269.58 297.534 270.694 312.598C271.031 317.357 271.571 322.458 272.246 327.799C272.314 328.453 272.452 329.103 272.52 329.753L308.726 329.821C307.916 324.617 307.444 318.695 307.069 312.598C305.854 291.782 305.449 268.025 294.135 256.553C279.139 241.386 237.697 238.649 237.697 238.649H220.436C220.403 238.649 215.033 257.412 220.436 271.343Z" fill="#FFC930"/>
<path d="M296.059 350.363L276.131 350.329C277.38 356.046 278.565 360.566 279.51 363.922L333.416 363.956C332.977 362.96 332.437 362.003 331.792 361.216C326.625 354.814 318.352 352.074 313.759 345.262C312.712 343.688 311.865 341.974 311.224 340.161H299.134C298.931 340.161 298.729 340.161 298.56 340.195C296.396 340.537 294.979 342.521 295.282 344.68L296.059 350.363Z" fill="#231F20"/>
<path d="M279.476 363.956C280.894 368.886 281.839 371.35 281.839 371.35H334.395C334.665 368.818 334.327 366.283 333.416 363.956H279.476Z" fill="#5DA47A"/>
<path opacity="0.2" d="M273.836 286.476C273.836 286.476 273.431 297.499 274.545 312.564C274.882 317.323 275.423 322.424 276.098 327.765C276.165 328.419 276.3 329.069 276.367 329.719C277.485 337.728 278.734 344.646 279.982 350.363C281.231 356.08 282.416 360.6 283.361 363.991C284.779 368.921 285.724 371.384 285.724 371.384H313.286C313.556 368.852 313.185 366.317 312.27 363.991C311.831 362.995 311.291 362.105 310.65 361.25C301.429 348.789 289.102 351.903 289.912 329.719C291.094 296.644 296.801 266.652 276.435 266.652C245.97 266.652 273.836 286.476 273.836 286.476Z" fill="black"/>
<path d="M281.096 340.195C280.894 336.975 280.894 333.486 281.063 329.719L242.798 329.65C243.27 337.078 244.148 344.201 245.025 350.363L245.734 353.271L280.826 354.13L281.096 340.195Z" fill="#AC704E"/>
<path d="M244.991 350.363C245.767 355.772 246.645 360.634 247.354 364.162L300.382 363.991C299.944 362.995 299.404 362.071 298.762 361.25C293.595 354.814 282.652 352.689 281.501 344.509C281.299 343.137 281.13 341.7 281.062 340.195H268.399C268.196 340.195 267.994 340.195 267.825 340.229C265.661 340.571 264.244 342.555 264.548 344.714L265.357 350.363H244.991Z" fill="#231F20"/>
<path d="M187.335 271.343C192.709 285.347 209.629 286.921 209.629 286.921H243.506C243.506 286.921 242.051 295.857 242.152 312.564C242.186 317.118 242.287 322.185 242.629 327.765C242.696 328.419 242.764 329.342 242.798 329.992L280.894 329.958C281.096 324.583 281.704 318.524 282.21 312.564C284.07 290.311 286.297 266.105 276.84 256.518C262.249 241.728 229.253 238.615 229.253 238.615H187.369C187.369 238.649 181.999 257.412 187.335 271.343Z" fill="#FFC930"/>
<path opacity="0.2" d="M245.7 274.973C238.879 274.973 234.892 284.594 225.604 286.921C217.702 286.921 243.506 286.921 243.506 286.921C243.506 286.921 244.215 282.264 245.7 274.973Z" fill="black"/>
<path opacity="0.2" d="M185.175 261.312C200.07 261.312 208.583 245.529 218.074 246.418C221.145 246.418 227.801 254.158 231.649 254.534C237.39 255.116 224.963 238.615 224.963 238.615H187.369C187.369 238.649 184.196 249.809 185.175 261.312Z" fill="black"/>
<path d="M244.721 280.382C244.721 280.382 244.181 282.678 243.54 286.51" stroke="black" stroke-width="4" stroke-linecap="round" stroke-linejoin="round"/>
<path d="M247.286 363.956C248.168 368.579 248.809 371.35 248.809 371.35H301.361C301.631 368.818 301.294 366.283 300.383 363.956H247.286Z" fill="#5DA47A"/>
<path d="M240.33 213.143L236.107 239.88L219.694 239.094L215.336 243.442L190.342 243.511C185.681 243.511 177.371 242.108 174.03 232.727C172.17 227.454 172.68 218.039 174.57 207.528C179.13 186.405 183.859 182.501 187.267 179.452C191.827 175.822 202.129 174.693 202.129 174.693L201.926 170.858H225.705L226.042 174.83C226.042 174.83 233.475 175.275 244.924 180.787C257.962 187.055 266.1 191.677 266.1 191.677C269.04 186.059 283.091 164.046 283.091 164.046L304.537 180.102C304.537 180.102 292.65 207.699 280.421 217.081C268.399 226.356 240.364 213.143 240.33 213.143Z" fill="#1C5F37"/>
<path opacity="0.2" d="M245.261 207.87C243.641 202.256 242.017 202.598 242.017 202.598L240.397 213.177C240.397 213.177 244.755 215.264 250.8 217.183C250.766 217.149 246.881 213.485 245.261 207.87Z" fill="black"/>
<path d="M213.75 155.831L211.147 154.699" stroke="#23211F" stroke-width="4" stroke-linecap="round" stroke-linejoin="round"/>
<path opacity="0.2" d="M211.654 218.928C211.586 218.928 202.74 217.867 197.944 217.491H197.876L200.543 200.473H200.61C203.111 200.473 203.887 203.248 204.832 206.707C205.946 210.778 207.06 215.708 211.721 218.791L211.654 218.928Z" fill="black"/>
<path d="M313.995 353.168L318.892 350.192" stroke="#5DA47A" stroke-width="4" stroke-linecap="round" stroke-linejoin="round"/>
<path d="M318.217 357.107L322.474 353.168" stroke="#5DA47A" stroke-width="4" stroke-linecap="round" stroke-linejoin="round"/>
<path d="M221.955 202.872L234.319 176.579C229.117 175.001 226.043 174.83 226.043 174.83L225.705 170.858H201.926L202.129 174.693C202.129 174.693 197.876 175.172 193.586 176.476L221.955 202.872Z" fill="#424242"/>
<path d="M197.842 217.97L200.07 203.008" stroke="black" stroke-width="2" stroke-linecap="round" stroke-linejoin="round"/>
<path d="M247.897 258.096C247.32 258.438 246.645 258.609 245.97 258.609C241.916 258.609 238.103 251.828 236.681 249.159C237.154 250.767 237.356 253.337 236.58 254.534C236.243 255.047 235.77 255.321 235.129 255.321C233.745 255.321 232.425 253.097 230.872 250.493C228.915 247.243 226.65 243.476 223.815 243.476L215.066 243.442L216.956 219.749H217.024C222.769 220.331 231.244 222.695 235.129 224.132C243.27 227.146 250.766 232.179 252.525 234.505C253.133 235.327 253.335 236.079 253.065 236.763C252.491 238.272 249.855 238.751 249.18 238.854C251.374 241.937 253.74 247.141 254.381 249.125C255.191 251.52 255.259 253.268 254.584 254.226C254.078 254.876 253.403 254.979 253.031 254.979C252.964 254.979 252.896 254.979 252.862 254.979C252.626 258.164 251.306 258.814 250.192 258.814C249.146 258.814 248.134 258.199 247.897 258.096Z" fill="#AC704E"/>
<path d="M192.607 217.765C206.959 218.517 216.956 219.886 216.956 219.886" stroke="black" stroke-width="2" stroke-linecap="round" stroke-linejoin="round"/>
<path d="M242.085 237.315C242.085 237.315 249.247 246.897 252.795 254.91" stroke="#23211F" stroke-width="4" stroke-linecap="round" stroke-linejoin="round"/>
<path d="M237.529 239.949C237.529 239.949 245.093 251.828 247.898 257.959" stroke="#23211F" stroke-width="4" stroke-linecap="round" stroke-linejoin="round"/>
<path d="M233.138 242.69L236.209 248.03" stroke="#23211F" stroke-width="4" stroke-linecap="round" stroke-linejoin="round"/>
<path d="M314.704 173.325L305.449 157.405V144.838H306.697C307.849 144.701 308.76 143.778 308.76 142.649V142.512C308.76 141.383 307.849 140.455 306.731 140.455H296.497C295.384 140.455 294.472 141.383 294.472 142.512V142.649C294.472 143.778 295.384 144.701 296.464 144.838H297.75V157.405C295.924 160.518 294.135 163.601 292.309 166.718C290.047 170.584 293.662 173.769 291.364 177.639C291.229 177.844 290.284 177.092 290.284 177.605C290.25 178.426 289.305 178.494 290.014 178.939C290.351 179.144 287.752 180.479 288.157 180.479L314.67 180.239C315.952 180.239 314.94 180.718 314.94 179.452C314.974 179.076 314.906 173.667 314.704 173.325Z" fill="#F2DAD6"/>
<path d="M317.644 178.323L312.034 168.668C297.851 180.718 302.411 163.054 292.275 166.752L285.521 178.323C284.88 179.452 285.251 180.821 286.298 181.509C286.635 181.714 287.04 181.817 287.449 181.817H315.682C316.965 181.817 317.981 180.752 317.981 179.486C317.981 179.076 317.88 178.665 317.644 178.323Z" fill="#FE4F32"/>
<path d="M308.153 174.898C307.579 174.59 307.136 174.112 306.968 173.496C306.765 172.709 306.968 171.785 307.545 170.858C307.511 170.858 306.664 170.823 305.888 170.413C305.415 170.173 305.078 169.866 304.875 169.455C303.896 167.608 305.314 165.072 305.348 165.038C305.314 165.038 304.335 165.243 303.424 164.764C303.053 164.559 302.783 164.285 302.546 163.977C301.361 162.233 302.749 159.697 302.749 159.663C302.749 159.663 301.091 157.439 302.85 154.664C303.424 153.775 304.436 152.92 305.449 152.201V146.724C307.069 146.484 309.975 146.895 311.291 147.579C311.764 147.853 312.203 148.161 312.544 148.537C314.839 151.072 313.219 154.185 313.185 154.22C313.185 154.22 313.961 154.322 314.771 154.733C316.088 155.417 317.408 156.824 316.526 159.663C316.56 159.663 317.336 160.347 317.813 161.446C318.251 162.472 318.454 164.012 317.033 165.688C317.1 165.722 318.15 166.41 318.386 167.676C318.589 168.702 318.184 169.866 317.269 171.033C314.839 174.214 310.92 174.898 309.638 175.138C309.131 175.24 308.625 175.138 308.153 174.898Z" fill="#AC704E"/>
<path d="M312.949 154.185C310.279 157.713 306.799 159.663 302.749 159.663" stroke="#23211F" stroke-linecap="round" stroke-linejoin="round"/>
<path d="M316.526 159.663C314.704 162.575 308.423 165.106 305.348 165.038" stroke="#23211F" stroke-linecap="round" stroke-linejoin="round"/>
<path d="M317.033 165.688C312.881 170.276 307.579 170.823 307.579 170.823" stroke="#23211F" stroke-width="4" stroke-linecap="round" stroke-linejoin="round"/>
<path d="M282.686 164.627L290.351 170.037L296.093 160.21C296.093 160.21 309.401 159.321 307.95 154.186C307.305 152.201 297.75 152.338 297.75 152.338V147.921C290.655 151.688 282.686 164.627 282.686 164.627Z" fill="#AC704E"/>
<path d="M236.947 151.958C239.876 151.487 241.875 148.685 241.406 145.697C240.941 142.71 238.189 140.665 235.256 141.14C232.327 141.607 230.332 144.409 230.797 147.397C231.266 150.384 234.019 152.426 236.947 151.958Z" stroke="black" stroke-width="2" stroke-linecap="round" stroke-linejoin="round"/>
<path d="M223.268 153.053C226.2 152.585 228.195 149.78 227.73 146.792C227.261 143.804 224.509 141.763 221.58 142.231C218.651 142.702 216.653 145.503 217.121 148.491C217.586 151.483 220.339 153.52 223.268 153.053Z" stroke="black" stroke-width="2" stroke-linecap="round" stroke-linejoin="round"/>
<path d="M220.841 166.581C220.841 166.581 222.802 167.573 225.739 167.984" stroke="#23211F" stroke-width="4" stroke-linecap="round" stroke-linejoin="round"/>
<path d="M193.586 176.51L221.955 202.872L234.319 176.579" stroke="black" stroke-linecap="round" stroke-linejoin="round"/>
<path d="M205.508 174.522L202.129 174.694" stroke="black" stroke-linecap="round" stroke-linejoin="round"/>
<path d="M241.343 206.536L240.364 213.143" stroke="black" stroke-linecap="round" stroke-linejoin="round"/>
<path d="M269.04 193.319L266.1 191.677" stroke="black" stroke-linecap="round" stroke-linejoin="round"/>
<path d="M300.045 363.2C299.606 362.208 299.404 362.071 298.762 361.25C293.595 354.814 282.652 352.69 281.501 344.509C281.299 343.137 281.13 341.7 281.062 340.195C280.86 336.975 280.86 333.486 281.029 329.719C281.299 324.344 281.738 318.524 282.244 312.564C284.104 290.311 286.331 266.105 276.874 256.518C272.824 252.413 267.42 249.228 261.675 246.761" stroke="black" stroke-width="4" stroke-linecap="round"/>
<path d="M281.096 353.168L285.994 350.192" stroke="#5DA47A" stroke-width="4" stroke-linecap="round" stroke-linejoin="round"/>
<path d="M285.319 357.107L289.575 353.168" stroke="#5DA47A" stroke-width="4" stroke-linecap="round" stroke-linejoin="round"/>
<path d="M135.334 215.777C135.334 215.777 137.576 209.592 136.605 207.323C132.87 208.691 128.756 208.649 125.021 207.277C124.204 210.162 127.811 217.434 127.811 217.434L135.334 215.777Z" fill="#670F01"/>
<path d="M141.675 206.878C137.944 205.878 133.913 207.749 130.785 211.451C127.658 207.764 123.626 205.894 119.891 206.878C113.719 208.52 110.663 217.392 113.07 226.66C115.481 235.931 122.441 242.131 128.614 240.473C129.375 240.272 130.106 239.945 130.785 239.531C131.46 239.96 132.191 240.272 132.953 240.473C139.125 242.115 146.085 235.931 148.496 226.648C150.904 217.362 147.848 208.535 141.675 206.878Z" fill="#FE4F32"/>
<path d="M135.139 224.455C136.02 223.311 136.301 222.041 135.765 221.619C135.233 221.197 134.085 221.783 133.208 222.931C132.326 224.075 132.045 225.344 132.578 225.766C133.114 226.188 134.261 225.603 135.139 224.455Z" fill="#060606"/>
<path d="M129.011 225.766C129.544 225.344 129.263 224.075 128.381 222.931C127.504 221.783 126.356 221.197 125.824 221.619C125.288 222.041 125.569 223.311 126.45 224.455C127.328 225.603 128.475 226.188 129.011 225.766Z" fill="#060606"/>
<path d="M128.629 200.123C131.051 201.682 131.771 204.936 131.827 205.164C131.827 205.179 131.828 205.179 131.813 205.179C131.588 205.236 128.374 205.935 125.951 204.365C123.529 202.796 122.809 199.538 122.753 199.325C122.753 199.31 122.753 199.31 122.768 199.31C122.978 199.253 126.218 198.553 128.629 200.123Z" fill="black"/>
<path d="M128.629 200.123C130.995 201.651 131.741 204.795 131.828 205.152C131.828 205.164 131.813 205.164 131.798 205.164L122.779 199.336C122.768 199.336 122.768 199.31 122.779 199.31C123.131 199.222 126.274 198.595 128.629 200.123Z" fill="#231F20"/>
<path d="M130.729 211.348C130.729 211.348 130.729 206.106 133.826 201.781" stroke="black" stroke-width="4" stroke-linecap="round" stroke-linejoin="round"/>
<path opacity="0.2" d="M148.976 216.45C148.976 216.434 148.946 216.434 148.946 216.45C147.525 223.474 141.915 230.233 133.688 233.703C128.078 236.075 122.257 236.49 117.244 235.273C117.229 235.273 117.214 235.288 117.229 235.304C120.427 239.401 124.684 241.53 128.614 240.473C129.375 240.272 130.106 239.945 130.785 239.531C131.46 239.96 132.191 240.272 132.952 240.473C139.125 242.115 146.085 235.931 148.496 226.648C149.441 223.049 149.539 219.506 148.976 216.45Z" fill="#670F01"/>
<path d="M321.146 192.631H330.773V228.423C330.773 231.046 328.687 233.16 326.104 233.16H325.815C323.227 233.16 321.146 231.046 321.146 228.423V192.631Z" fill="white"/>
<path opacity="0.2" d="M327.971 192.631V228.423C327.971 230.609 326.535 232.43 324.559 232.977C324.952 233.084 325.384 233.16 325.815 233.16H326.104C328.687 233.16 330.773 231.046 330.773 228.423V192.631H327.971Z" fill="#D7D7D7"/>
<path d="M321.146 220.414H330.773V228.424C330.773 231.046 328.687 233.16 326.104 233.16H325.815C323.227 233.16 321.146 231.046 321.146 228.424V220.414Z" fill="#FE4F32"/>
<path d="M338.531 192.631H348.158V228.423C348.158 231.046 346.076 233.16 343.489 233.16H343.2C340.616 233.16 338.531 231.046 338.531 228.423V192.631Z" fill="white"/>
<path opacity="0.2" d="M345.356 192.631V228.423C345.356 230.609 343.92 232.43 341.944 232.977C342.337 233.084 342.769 233.16 343.2 233.16H343.489C346.076 233.16 348.158 231.046 348.158 228.423V192.631H345.356Z" fill="#D7D7D7"/>
<path d="M338.531 208.034H348.158V228.423C348.158 231.046 346.076 233.16 343.489 233.16H343.2C340.616 233.16 338.531 231.046 338.531 228.423V208.034Z" fill="#FFC930"/>
<path d="M355.916 192.631H365.543V228.423C365.543 231.046 363.461 233.16 360.874 233.16H360.585C358.001 233.16 355.916 231.046 355.916 228.423V192.631Z" fill="white"/>
<path opacity="0.2" d="M362.741 192.631V228.423C362.741 230.609 361.305 232.43 359.329 232.977C359.722 233.084 360.154 233.16 360.585 233.16H360.874C363.461 233.16 365.543 231.046 365.543 228.423V192.631H362.741Z" fill="#D7D7D7"/>
<path d="M355.916 214.005H365.543V228.423C365.543 231.046 363.461 233.16 360.874 233.16H360.585C358.001 233.16 355.916 231.046 355.916 228.423V214.005Z" fill="#5DA47A"/>
<path d="M374.846 240.295V208.691C374.884 205.449 372.296 202.792 369.101 202.792H317.516C314.321 202.826 311.734 205.449 311.771 208.691V240.295" stroke="#231F20" stroke-width="4"/>
<path d="M320.07 192.631H331.924" stroke="white" stroke-width="4" stroke-linecap="round" stroke-linejoin="round"/>
<path d="M337.489 192.631H349.309" stroke="white" stroke-width="4" stroke-linecap="round" stroke-linejoin="round"/>
<path d="M354.874 192.631H366.727" stroke="white" stroke-width="4" stroke-linecap="round" stroke-linejoin="round"/>
<path d="M384.094 239.782H102.75V249.969H384.094V239.782Z" fill="#231F20"/>
</g>
<defs>
<clipPath id="clip0_154_22">
<rect width="438" height="371" fill="white"/>
</clipPath>
</defs>
</svg>
