<svg width="546" height="470" viewBox="0 0 546 470" fill="none" xmlns="http://www.w3.org/2000/svg">
<g clip-path="url(#clip0_170_88)">
<path d="M388.454 362.596L417.251 399.761L441.541 358.676L460.9 421.102L502.034 369.806" stroke="#1C5F37" stroke-width="4" stroke-linecap="round" stroke-linejoin="round"/>
<path d="M107.413 287.446L92.0437 318.662L56.9475 269.92L52.7825 351.172L21.0419 315.022L14.3831 341.596" stroke="black" stroke-width="4" stroke-linecap="round" stroke-linejoin="round"/>
<path d="M114.794 379.234C115.533 384.838 114.61 395.023 104.469 398.584C94.4238 402.106 89.3313 400.531 80.9531 407.89C73.6381 414.326 74.2856 427.337 74.2856 427.337L99.0044 433.169C99.0044 433.169 99.1006 423.955 104.517 419.418C114.054 411.412 125.718 415.901 134.468 405.02C141.136 396.69 139.701 385.529 139.701 385.529L114.794 379.234Z" fill="#FFC930"/>
<path d="M527.611 138.977C527.134 133.749 524.237 124.631 514.297 123.419C504.401 122.212 500.127 124.719 490.966 119.661C483.012 115.295 480.938 103.286 480.938 103.286L502.327 93C502.327 93 504.274 101.383 510.106 104.449C520.436 109.853 530.157 103.369 540.316 111.537C548.051 117.758 549 128.263 549 128.263L527.611 138.977Z" fill="#1C5F37"/>
<path d="M167.976 415.048V420.49" stroke="#FFC930" stroke-width="4" stroke-linecap="round" stroke-linejoin="round"/>
<path d="M167.976 435.943V441.39" stroke="#FFC930" stroke-width="4" stroke-linecap="round" stroke-linejoin="round"/>
<path d="M181.149 428.216H175.702" stroke="#FFC930" stroke-width="4" stroke-linecap="round" stroke-linejoin="round"/>
<path d="M160.25 428.216H154.807" stroke="#FFC930" stroke-width="4" stroke-linecap="round" stroke-linejoin="round"/>
<path d="M158.671 418.911L162.503 422.743" stroke="#FFC930" stroke-width="4" stroke-linecap="round" stroke-linejoin="round"/>
<path d="M173.449 433.689L177.286 437.526" stroke="#FFC930" stroke-width="4" stroke-linecap="round" stroke-linejoin="round"/>
<path d="M177.286 418.911L173.449 422.743" stroke="#FFC930" stroke-width="4" stroke-linecap="round" stroke-linejoin="round"/>
<path d="M162.503 433.689L158.671 437.526" stroke="#FFC930" stroke-width="4" stroke-linecap="round" stroke-linejoin="round"/>
<path d="M522.019 313.884L511.816 310.577L503.272 317.078L503.285 306.381L494.522 300.287L504.698 296.957L507.699 286.711L514.03 295.391L524.762 295.098L518.449 303.756L522.019 313.884Z" fill="#FFC930"/>
<path d="M481.344 276.439C485.138 276.439 488.218 273.359 488.218 269.561C488.218 265.764 485.138 262.688 481.344 262.688C477.547 262.688 474.467 265.764 474.467 269.561C474.467 273.359 477.547 276.439 481.344 276.439Z" fill="#FFC930"/>
<path d="M111.688 228.629L101.555 227.137L94.5463 234.618L92.8575 224.547L83.635 220.203L92.6913 215.447L93.8856 205.323L101.227 212.489L111.285 210.503L106.718 219.66L111.688 228.629Z" fill="#FFC930"/>
<path d="M59.6906 206.601C63.6762 206.601 66.9094 203.367 66.9094 199.382C66.9094 195.396 63.6762 192.163 59.6906 192.163C55.705 192.163 52.4719 195.396 52.4719 199.382C52.4719 203.367 55.705 206.601 59.6906 206.601Z" fill="#EFDCD7"/>
<path d="M229.016 54.3682V59.1982" stroke="#FFC930" stroke-width="4" stroke-linecap="round" stroke-linejoin="round"/>
<path d="M229.016 72.9138V77.7438" stroke="#FFC930" stroke-width="4" stroke-linecap="round" stroke-linejoin="round"/>
<path d="M240.706 66.0538H235.876" stroke="#FFC930" stroke-width="4" stroke-linecap="round" stroke-linejoin="round"/>
<path d="M222.161 66.0538H217.331" stroke="#FFC930" stroke-width="4" stroke-linecap="round" stroke-linejoin="round"/>
<path d="M220.756 57.7982L224.16 61.1976" stroke="#FFC930" stroke-width="4" stroke-linecap="round" stroke-linejoin="round"/>
<path d="M233.877 70.9144L237.276 74.3138" stroke="#FFC930" stroke-width="4" stroke-linecap="round" stroke-linejoin="round"/>
<path d="M237.276 57.7982L233.877 61.1976" stroke="#FFC930" stroke-width="4" stroke-linecap="round" stroke-linejoin="round"/>
<path d="M224.16 70.9144L220.756 74.3138" stroke="#FFC930" stroke-width="4" stroke-linecap="round" stroke-linejoin="round"/>
<path d="M416.489 140.009C425.992 140.009 433.701 132.3 433.701 122.793C433.701 113.291 425.992 105.582 416.489 105.582C406.982 105.582 399.274 113.291 399.274 122.793C399.274 132.3 406.982 140.009 416.489 140.009Z" fill="#231F20"/>
<path d="M416.489 176.164C445.964 176.164 469.856 152.272 469.856 122.793C469.856 93.3188 445.964 69.4269 416.489 69.4269C387.011 69.4269 363.119 93.3188 363.119 122.793C363.119 152.272 387.011 176.164 416.489 176.164Z" stroke="black" stroke-width="4" stroke-linecap="round" stroke-linejoin="round"/>
<path d="M380.75 170.424C385.711 170.424 389.736 166.403 389.736 161.438C389.736 156.476 385.711 152.451 380.75 152.451C375.784 152.451 371.759 156.476 371.759 161.438C371.759 166.403 375.784 170.424 380.75 170.424Z" fill="#1C5F37"/>
<path d="M305.959 93.345C304.988 98.6212 301.09 107.572 290.857 107.822C280.716 108.041 276.564 105.079 266.768 109.322C258.25 112.971 254.973 124.985 254.973 124.985L275.658 137.559C275.658 137.559 278.498 129.229 284.71 126.7C295.722 122.237 304.958 129.789 316.131 122.491C324.614 116.935 326.614 106.387 326.614 106.387L305.959 93.345Z" fill="#FE4F32"/>
<path d="M162.779 153.357L175.037 141.098L196.751 162.807C200.137 166.198 200.137 171.675 196.751 175.066C193.36 178.456 187.878 178.456 184.487 175.066L162.779 153.357Z" fill="#1C5F37"/>
<path opacity="0.2" d="M196.751 168.368C193.36 171.754 187.878 171.754 184.487 168.368L166.147 150.023L162.779 153.366L184.487 175.074C187.878 178.465 193.36 178.465 196.751 175.074C199.327 172.498 199.931 168.739 198.606 165.581C198.19 166.6 197.56 167.532 196.751 168.368Z" fill="black"/>
<path d="M162.114 134.89L156.549 140.455L166.117 150.028L171.682 144.463L162.114 134.89Z" fill="#1C5F37"/>
<path opacity="0.2" d="M166.795 148.273C163.221 145.071 162.013 140.241 163.453 136.224L162.105 134.877L156.531 140.451L166.099 150.014L167.355 148.763C167.189 148.601 166.983 148.435 166.795 148.273Z" fill="black"/>
<path d="M159.344 85.3475C173.134 98.6781 174.482 120.317 162.455 135.244C161.781 136.08 161.059 136.894 160.294 137.686C159.248 138.775 158.111 139.821 156.929 140.774C141.044 153.637 117.734 151.152 104.871 135.271C92.0087 119.389 94.4894 96.075 110.375 83.2125C124.909 71.4613 145.9 72.3931 159.344 85.3475Z" fill="#1C5F37"/>
<path d="M133.637 137.987C147.987 137.987 159.62 126.354 159.62 112.004C159.62 97.6544 147.987 86.0212 133.637 86.0212C119.291 86.0212 107.658 97.6544 107.658 112.004C107.658 126.354 119.291 137.987 133.637 137.987Z" fill="#949494"/>
<path d="M175.024 141.076C178.319 144.533 178.179 150.014 174.722 153.309C171.376 156.494 166.108 156.516 162.761 153.335L175.024 141.076Z" fill="#FFC930"/>
<path d="M146.106 116.021C148.289 116.021 150.056 114.253 150.056 112.074C150.056 109.891 148.289 108.128 146.106 108.128C143.927 108.128 142.159 109.891 142.159 112.074C142.159 114.253 143.927 116.021 146.106 116.021Z" fill="#FE4F32"/>
<path d="M133.777 116.021C135.96 116.021 137.727 114.253 137.727 112.074C137.727 109.891 135.96 108.128 133.777 108.128C131.598 108.128 129.831 109.891 129.831 112.074C129.831 114.253 131.598 116.021 133.777 116.021Z" fill="#FE4F32"/>
<path d="M124.944 113.903C125.954 111.974 125.211 109.585 123.281 108.579C121.347 107.564 118.963 108.308 117.952 110.241C116.942 112.171 117.686 114.559 119.615 115.57C121.544 116.581 123.933 115.837 124.944 113.903Z" fill="#FE4F32"/>
<path d="M175.339 165.546L187.344 153.519" stroke="black" stroke-width="4" stroke-linecap="round" stroke-linejoin="round"/>
<path d="M179.124 169.33L191.151 157.303" stroke="black" stroke-width="4" stroke-linecap="round" stroke-linejoin="round"/>
<path d="M182.908 173.114L194.939 161.088" stroke="black" stroke-width="4" stroke-linecap="round" stroke-linejoin="round"/>
<path d="M162.499 135.271C161.825 136.106 161.108 136.92 160.342 137.708C159.274 138.797 158.159 139.843 156.973 140.796" stroke="black" stroke-width="4" stroke-linecap="round" stroke-linejoin="round"/>
<path d="M300.062 377.676H309.801V465.141C309.801 466.436 309.289 467.67 308.374 468.584C307.464 469.499 306.226 470.01 304.931 470.01C303.641 470.01 302.402 469.499 301.488 468.584C300.574 467.67 300.062 466.436 300.062 465.141V377.676Z" fill="#FE4F32"/>
<path opacity="0.25" d="M300.062 377.676H309.801V465.141C309.801 466.436 309.289 467.67 308.374 468.584C307.464 469.499 306.226 470.01 304.931 470.01C303.641 470.01 302.402 469.499 301.488 468.584C300.574 467.67 300.062 466.436 300.062 465.141V377.676Z" fill="#54170C"/>
<path d="M247.658 377.676H257.401V465.141C257.401 466.436 256.885 467.67 255.975 468.584C255.061 469.499 253.822 470.01 252.532 470.01C251.241 470.01 250.003 469.499 249.084 468.584C248.174 467.67 247.658 466.436 247.658 465.141V377.676Z" fill="#FE4F32"/>
<path opacity="0.25" d="M247.658 377.676H257.401V465.141C257.401 466.436 256.885 467.67 255.975 468.584C255.061 469.499 253.822 470.01 252.532 470.01C251.241 470.01 250.003 469.499 249.084 468.584C248.174 467.67 247.658 466.436 247.658 465.141V377.676Z" fill="#54170C"/>
<path d="M311.634 371.521H210.169V376.39C210.169 379.081 213.104 381.259 215.791 381.259H217.663V465.141C217.663 466.436 218.175 467.67 219.085 468.584C219.999 469.499 221.237 470.011 222.532 470.011C223.819 470.011 225.061 469.499 225.976 468.584C226.886 467.67 227.402 466.436 227.402 465.141V442.426H270.062V465.141C270.062 466.436 270.574 467.67 271.489 468.584C272.399 469.499 273.637 470.011 274.932 470.011C276.222 470.011 277.461 469.499 278.375 468.584C279.289 467.67 279.801 466.436 279.801 465.141V442.426H300.801C302.092 442.426 303.33 441.914 304.244 441C305.159 440.086 305.671 438.852 305.671 437.557C305.671 436.262 305.159 435.028 304.244 434.114C303.33 433.204 302.092 432.687 300.801 432.687H279.801V381.259H311.634C312.92 381.259 314.162 380.747 315.077 379.833C315.987 378.919 316.503 377.685 316.503 376.39C316.503 375.095 315.987 373.861 315.077 372.947C314.162 372.032 312.92 371.521 311.634 371.521ZM270.062 432.687H227.402V381.259H270.062V432.687Z" fill="#FE4F32"/>
<path opacity="0.25" d="M217.663 381.259V387.572L227.402 392.052V381.259H217.663Z" fill="#54170C"/>
<path opacity="0.25" d="M270.062 381.259V387.572L279.801 392.052V381.259H270.062Z" fill="#54170C"/>
<path d="M264.996 313.937C263.596 305.913 255.957 299.442 247.934 299.442H211.858C203.869 299.442 198.492 305.952 199.936 313.937L206.441 350.871H271.458C271.467 350.871 271.467 350.87 271.471 350.866C271.48 350.862 271.484 350.862 271.489 350.857C271.493 350.853 271.493 350.849 271.498 350.844C271.498 350.836 271.498 350.831 271.498 350.822L264.996 313.937Z" fill="#FE4F32"/>
<path opacity="0.25" d="M264.996 313.937C263.596 305.913 255.957 299.442 247.934 299.442H239.556C247.584 299.442 255.218 305.952 256.623 313.937L263.128 350.871H271.458C271.467 350.871 271.467 350.87 271.471 350.866C271.48 350.862 271.484 350.862 271.489 350.857C271.493 350.853 271.493 350.849 271.498 350.844C271.498 350.836 271.498 350.831 271.498 350.822L264.996 313.937Z" fill="#54170C"/>
<path d="M271.502 350.949L275.181 371.52" stroke="#54170C" stroke-width="4" stroke-linecap="round" stroke-linejoin="round"/>
<path d="M218.713 319.546L221.478 335.755" stroke="#54170C" stroke-width="4" stroke-linecap="round" stroke-linejoin="round"/>
<path d="M231.685 319.117L234.415 335.287" stroke="#54170C" stroke-width="4" stroke-linecap="round" stroke-linejoin="round"/>
<path d="M244.661 318.653L247.426 334.858" stroke="#54170C" stroke-width="4" stroke-linecap="round" stroke-linejoin="round"/>
<path d="M206.441 350.87L210.169 371.52" stroke="#54170C" stroke-width="4" stroke-linecap="round" stroke-linejoin="round"/>
<path d="M247.698 442.426H257.051" stroke="#54170C" stroke-width="4" stroke-linecap="round" stroke-linejoin="round"/>
<path d="M247.698 432.688H257.051" stroke="#54170C" stroke-width="4" stroke-linecap="round" stroke-linejoin="round"/>
<path d="M217.698 381.259H227.402" stroke="#54170C" stroke-width="4" stroke-linecap="round" stroke-linejoin="round"/>
<path d="M247.698 381.259H257.401" stroke="#54170C" stroke-width="4" stroke-linecap="round" stroke-linejoin="round"/>
<path d="M270.062 381.259H279.801" stroke="#54170C" stroke-width="4" stroke-linecap="round" stroke-linejoin="round"/>
<path d="M300.062 381.25H309.801" stroke="#54170C" stroke-width="4" stroke-linecap="round" stroke-linejoin="round"/>
<path d="M326.189 197.964V197.925C323.302 194.81 317.19 188.772 317.076 188.506C316.656 188.129 314.416 167.129 310.011 167.698C308.265 167.698 307.469 169.142 307.202 169.824C307.128 169.977 306.935 170.012 306.821 169.938C305.951 169.369 303.138 167.772 298.999 167.772C293.836 167.851 291.255 168.949 290.988 170.848C290.988 170.848 290.988 170.887 290.949 170.887C290.38 170.962 287.532 172.025 288.254 173.889C288.254 173.924 288.254 173.924 288.214 173.924C287.759 174.077 284.872 175.293 285.9 176.925V176.964C285.594 177.113 283.279 178.557 284.036 180.075C285.747 183.076 296.418 182.433 297.822 185.85C298.391 187.101 298.316 188.659 298.242 190.597C297.406 199.671 301.278 205.065 307.088 213.723C307.088 213.723 307.127 213.762 307.127 213.723C307.771 213.496 320.191 208.937 320.646 208.784C320.646 208.784 320.646 208.784 320.686 208.784L326.189 197.964Z" fill="#A56250"/>
<path d="M339.861 447.72L341.34 437.089C340.924 432.683 341.721 429.984 343.392 423.758C343.392 423.719 343.659 421.479 343.694 421.137C343.694 421.098 343.694 421.098 343.659 421.098L306.139 421.024C306.139 421.024 306.099 421.024 306.099 421.063L304.734 423.797C303.899 431.882 303.558 440.051 303.746 448.061L305.758 452.047L305.798 452.086L339.861 447.72C339.861 447.759 339.861 447.759 339.861 447.72Z" fill="#A56250"/>
<path d="M341.34 437.124C341.34 437.089 341.34 437.089 341.34 437.124L327.025 437.089C324.365 437.089 322.392 439.517 322.847 442.063L323.949 447.987C323.949 448.022 323.949 448.022 323.91 448.022H303.785C303.746 448.022 303.746 448.022 303.746 448.061C303.859 452.62 304.24 457.174 304.695 461.654C304.695 461.654 304.695 461.694 304.734 461.694L351.897 465.946C351.897 465.946 351.897 465.946 351.936 465.946L359.719 461.733C359.759 461.733 359.759 461.694 359.719 461.694C354.517 454.291 342.596 452.353 341.34 437.124Z" fill="#231F20"/>
<path d="M304.695 461.768C305.001 464.581 305.382 467.39 305.837 470.164C305.837 470.164 305.837 470.199 305.872 470.199H344.796H362.266C362.305 470.199 362.305 470.199 362.305 470.164C362.305 466.594 361.316 463.934 359.759 461.733H359.719L304.695 461.768Z" fill="#8F8F8F"/>
<path d="M351.521 344.391C338.986 329.508 306.292 319.708 289.846 315.569C283.887 314.09 280.357 313.368 280.278 313.368H256.469H256.43C256.089 313.709 247.356 322.595 244.696 337.518C241.507 355.898 255.673 372.264 274.394 372.264H316.963C317.002 372.264 317.002 372.304 317.002 372.304C310.846 388.216 306.633 406.101 304.774 423.719C304.774 423.758 304.774 423.758 304.809 423.758H343.353C343.353 423.758 343.392 423.758 343.392 423.719C349.39 402.264 365.114 360.57 351.521 344.391Z" fill="#FFC930"/>
<path opacity="0.3" d="M316.088 348.114C332.454 349.331 340.014 355.631 335.228 379.592C328.583 412.821 316.394 427.214 316.888 437.771C317.684 454.405 335.757 456.907 335.757 470.199L289.391 468.112C289.356 468.112 289.391 468.151 289.391 468.112C289.356 465.797 286.429 345.874 316.088 348.114Z" fill="#362E16"/>
<path d="M307.771 449.352L309.897 437.089C309.862 432.644 310.544 429.341 312.216 423.758C312.216 423.684 312.255 421.212 312.255 420.91C312.255 420.871 312.255 420.871 312.216 420.871L273.974 420.376C273.974 420.376 273.974 420.376 273.939 420.376L268.851 423.719C268.851 423.719 268.851 423.719 268.851 423.758C267.407 431.427 266.344 439.517 265.736 447.987L266.191 452.467C266.191 452.506 266.23 452.506 266.23 452.506L307.771 449.352C307.771 449.391 307.771 449.391 307.771 449.352Z" fill="#A56250"/>
<path d="M324.518 461.654C319.999 454.178 309.976 452.279 309.897 437.124C309.897 437.089 309.897 437.089 309.862 437.089H295.923C293.302 437.089 291.369 439.443 291.784 441.949L292.773 447.987C292.773 448.022 292.773 448.022 292.734 448.022H265.771C265.736 448.022 265.736 448.022 265.736 448.061C265.429 452.428 265.241 457.026 265.202 461.654C265.202 461.654 265.202 461.694 265.241 461.694C265.889 461.886 278.913 465.15 292.581 465.15C307.622 465.15 323.455 461.886 324.518 461.654C324.557 461.654 324.518 461.694 324.518 461.654Z" fill="#231F20"/>
<path d="M324.746 344.391C307.657 324.113 253.849 313.443 253.507 313.368L219.369 314.58C219.369 314.58 219.33 314.58 219.33 314.619C219.216 314.926 218.114 318.609 216.976 323.772C216.18 327.456 215.379 331.861 215.003 336.341C213.179 357.381 228.898 372.304 247.584 372.304H286.241C286.281 372.304 286.281 372.339 286.281 372.339C278.799 387.074 272.609 404.241 268.851 423.719C268.851 423.758 268.851 423.758 268.886 423.758H312.176C312.176 423.758 312.216 423.758 312.216 423.719C319.128 401.161 338.684 360.951 324.746 344.391Z" fill="#FFC930"/>
<path opacity="0.3" d="M293.723 359.354C295.696 352.1 265.316 372.264 257.799 372.264C267.521 372.264 285.594 372.264 286.281 372.264H286.316C286.508 371.849 289.658 365.619 293.723 359.354Z" fill="#362E16"/>
<path d="M265.202 461.733C265.167 464.503 265.202 467.316 265.281 470.164C265.281 470.199 265.281 470.199 265.316 470.199H288.936H326.684C326.723 470.199 326.723 470.199 326.723 470.164C326.723 466.554 325.888 463.899 324.558 461.733H324.518H265.202C265.202 461.694 265.202 461.694 265.202 461.733Z" fill="#8F8F8F"/>
<path d="M190.394 290.811C194.646 278.508 221.001 247.179 235.544 239.129V239.089C244.963 234.57 256.089 234.154 256.356 234.154L276.293 234.456L284.001 235.821C288.862 235.025 304.774 233.507 313.659 232.746C316.923 232.444 319.242 232.256 319.658 232.256C319.697 232.256 319.697 232.216 319.697 232.177C319.128 231.381 312.518 222.04 307.163 213.797V213.762L326.189 197.964H326.229C334.546 206.395 343.506 215.622 347.303 220.29C351.14 225.002 352.96 231.494 352.203 237.532C351.328 244.519 347.115 251.011 340.014 256.292C336.821 258.646 333.369 260.658 329.834 262.369C315.633 269.242 300.556 271.141 299.834 271.215C299.834 271.215 299.799 271.215 299.799 271.254L289.846 315.529L289.811 315.569L219.063 315.608C219.028 315.608 219.028 315.569 219.028 315.569L219.404 313.862C216.254 314.09 213.179 314.204 210.37 314.204C200.911 314.204 194.493 312.834 192.293 310.327C189.978 307.746 186.636 301.709 190.394 290.811Z" fill="#1C5F37"/>
<path d="M300.784 423.797L343.392 423.758" stroke="#362E16" stroke-width="4" stroke-linecap="round" stroke-linejoin="round"/>
<path d="M344 446.276L338.378 448.556" stroke="black" stroke-width="4" stroke-linecap="round" stroke-linejoin="round"/>
<path d="M347.456 450.87L342.863 454.668" stroke="black" stroke-width="4" stroke-linecap="round" stroke-linejoin="round"/>
<path d="M290.192 365.05L286.316 372.264" stroke="#4A3E1B" stroke-width="4" stroke-linecap="round" stroke-linejoin="round"/>
<path d="M311.419 446.163L305.758 448.556" stroke="black" stroke-width="4" stroke-linecap="round" stroke-linejoin="round"/>
<path d="M314.569 451.329L310.243 454.667" stroke="black" stroke-width="4" stroke-linecap="round" stroke-linejoin="round"/>
<path d="M283.962 232.518L283.922 229.749C283.922 229.709 283.962 229.709 283.962 229.709C284.609 229.862 291.745 231.306 296.378 227.014C302.114 221.204 298.316 209.847 298.736 201.876C298.85 199.898 298.811 197.964 298.623 196.254C297.367 184.446 288.862 182.507 274.735 182.735C258.254 183.304 257.077 191.927 256.583 197.851C256.43 202.939 256.469 212.774 256.544 220.71C256.622 227.202 256.469 231.227 256.469 231.534V231.569L259.357 234.041C259.357 234.041 259.357 234.041 259.392 234.041L283.887 232.557C283.922 232.557 283.962 232.557 283.962 232.518Z" fill="#A56250"/>
<path opacity="0.3" d="M283.887 229.709C283.922 229.709 283.922 229.709 283.887 229.709L283.923 232.558V234.382C283.923 234.417 283.922 234.417 283.887 234.417L282.024 234.456H281.989L275.496 226.594C275.457 226.559 275.496 226.52 275.531 226.559C279.141 228.344 283.546 229.596 283.887 229.709Z" fill="black"/>
<path d="M260.569 221.126C262.887 221.126 266.002 220.522 267.901 217.901V217.862C267.367 217.368 258.897 208.898 262.887 203.809C263.951 202.444 265.429 201.762 267.214 201.762C271.012 201.762 275.19 204.838 275.457 205.065H275.496C275.837 204.951 279.556 201.381 278.191 195.724C278.191 195.685 278.226 195.646 278.266 195.685C282.785 199.028 287.077 199.636 287.912 194.583C287.912 194.548 287.947 194.548 287.987 194.548C290.533 196.293 292.926 197.243 295.201 197.243C297.406 197.203 298.623 196.481 298.697 196.293C298.697 196.293 298.697 196.293 298.697 196.254C298.128 184.446 288.179 179.62 275.116 179.887C247.431 179.887 256.395 219.647 256.623 220.671C256.623 220.671 256.622 220.71 256.657 220.71C256.771 220.749 258.482 221.126 260.569 221.126Z" fill="black"/>
<path d="M276.1 235.559L281.761 242.847C281.761 242.887 281.836 242.847 281.836 242.847L284.001 235.821L283.962 232.597C283.962 232.557 283.962 232.557 283.923 232.557L256.509 231.534C256.469 231.534 256.469 231.534 256.469 231.569L256.356 234.115V234.154L269.568 243.762H269.608L276.026 235.559C276.065 235.559 276.065 235.559 276.1 235.559Z" fill="white"/>
<path d="M291.824 216.838C291.369 215.394 289.886 214.519 288.368 214.939" stroke="black" stroke-width="4" stroke-linecap="round" stroke-linejoin="round"/>
<path d="M291.216 207.913L291.329 208.976C291.404 209.698 291.102 210.381 290.533 210.836" stroke="black" stroke-width="4" stroke-linecap="round" stroke-linejoin="round"/>
<path d="M285.292 204.986C283.734 205.026 283.734 207.305 285.292 207.344C286.849 207.305 286.849 205.026 285.292 204.986Z" fill="black"/>
<path d="M295.661 204.986C294.103 205.026 294.103 207.305 295.661 207.344C297.214 207.305 297.214 205.026 295.661 204.986Z" fill="black"/>
<path d="M276.292 248.999C272.989 249.078 272.989 253.938 276.292 254.013C279.596 253.938 279.596 249.078 276.292 248.999Z" fill="black"/>
<path d="M276.292 266.507C272.989 266.582 272.989 271.442 276.292 271.521C279.596 271.442 279.596 266.582 276.292 266.507Z" fill="black"/>
<path d="M276.292 284.051C272.989 284.126 272.989 288.986 276.292 289.065C279.596 288.986 279.596 284.126 276.292 284.051Z" fill="black"/>
<path d="M299.799 271.176L301.431 261.454" stroke="black" stroke-width="4" stroke-linecap="round" stroke-linejoin="round"/>
<path d="M319.657 232.216L325.052 239.47" stroke="black" stroke-width="4" stroke-linecap="round" stroke-linejoin="round"/>
<path d="M283.922 229.709C279.329 228.948 275.457 226.065 275.457 226.065" stroke="black" stroke-width="4" stroke-linecap="round" stroke-linejoin="round"/>
<path d="M271.392 210.722L267.936 208.027" stroke="black" stroke-width="4" stroke-linecap="round" stroke-linejoin="round"/>
<path d="M307.088 170.091C308.493 170.813 312.631 173.434 314.569 176.203" stroke="black" stroke-width="4" stroke-linecap="round" stroke-linejoin="round"/>
<path d="M291.062 170.888C293.762 170.507 296.798 170.126 299.493 170.507C302.949 171.001 306.406 173.202 306.406 173.202" stroke="black" stroke-width="4" stroke-linecap="round" stroke-linejoin="round"/>
<path d="M285.935 176.964C289.015 176.964 294.86 177.039 300.976 180.495" stroke="black" stroke-width="4" stroke-linecap="round" stroke-linejoin="round"/>
<path d="M288.254 173.924C290.153 173.924 297.179 172.826 303.671 176.658" stroke="black" stroke-width="4" stroke-linecap="round" stroke-linejoin="round"/>
<path opacity="0.3" d="M325.087 239.431L319.736 232.216C319.736 232.216 319.736 232.216 319.697 232.216C319.43 232.216 316.809 232.444 313.734 232.711C313.694 232.711 313.694 232.746 313.734 232.785L325.012 239.47C325.087 239.505 325.126 239.47 325.087 239.431Z" fill="black"/>
<path opacity="0.3" d="M299.834 271.215C300.784 271.141 315.672 269.203 329.685 262.443C329.72 262.443 329.72 262.369 329.685 262.369C309.936 261.647 302.039 261.454 301.471 261.419C301.431 261.419 301.431 261.419 301.431 261.454L299.799 271.176L299.834 271.215Z" fill="black"/>
<path opacity="0.3" d="M215.078 336.227C215.038 336.267 215.003 336.227 215.003 336.188C215.266 332.771 216.066 327.797 216.976 323.732C217.733 320.088 218.761 316.479 219.028 315.608C219.142 315.188 219.369 314.051 219.404 313.862C219.404 313.862 219.404 313.823 219.444 313.823C226.05 313.329 233.037 312.493 239.153 311.316C243.139 310.555 246.788 309.759 249.483 309.116C249.522 309.116 249.483 309.151 249.483 309.19L250.62 315.529C250.62 315.569 250.62 315.643 250.585 315.643H243.218C228.938 321.834 216.141 335.09 215.078 336.227Z" fill="black"/>
<path opacity="0.3" d="M236.646 286.519C235.697 286.519 235.089 286.558 234.861 286.558C234.822 286.558 234.822 286.519 234.822 286.479C237.368 283.216 240.632 279.151 243.292 274.483C243.292 274.444 243.366 274.444 243.366 274.483L245.532 286.86C245.532 286.899 245.532 286.939 245.493 286.939C244.696 286.899 243.9 286.86 243.178 286.821C240.369 286.633 238.09 286.519 236.646 286.519Z" fill="black"/>
<path d="M245.571 286.939C252.217 287.429 260.569 288.571 266.873 291.379C275.724 295.137 293.114 308.582 286.394 308.923C285.178 308.923 281.761 307.331 280.09 306.495C279.898 306.416 279.709 306.644 279.863 306.797C282.024 309.19 287.948 316.216 282.483 316.479C281.494 316.479 280.545 316.251 280.357 316.216C280.318 316.216 280.318 316.216 280.318 316.251C279.329 320.39 274.053 318.076 272.911 316.859C272.876 316.824 272.836 316.859 272.836 316.899C272.836 318.189 271.204 319.099 269.494 319.025C265.889 318.758 254.724 308.468 254.19 307.899H254.151C253.963 307.974 252.178 308.468 249.404 309.116C246.709 309.759 243.104 310.594 239.114 311.316C239.079 311.316 239.079 311.316 239.079 311.277C239.039 310.747 238.584 304.482 239.608 298.445C240.558 292.749 242.99 287.241 243.139 286.86C243.139 286.86 243.139 286.86 243.178 286.86C243.939 286.821 244.736 286.899 245.571 286.939Z" fill="#A56250"/>
<path d="M243.292 274.518C240.369 279.191 238.204 282.306 234.747 286.558" stroke="black" stroke-width="4" stroke-linecap="round" stroke-linejoin="round"/>
<path d="M271.887 299.202C274.582 301.214 277.885 304.631 280.357 306.95" stroke="black" stroke-width="4" stroke-linecap="round" stroke-linejoin="round"/>
<path d="M266.532 302.277C266.532 302.277 277.242 312.799 280.317 316.251" stroke="black" stroke-width="4" stroke-linecap="round" stroke-linejoin="round"/>
<path d="M261.177 305.694L272.876 316.824" stroke="black" stroke-width="4" stroke-linecap="round" stroke-linejoin="round"/>
<path d="M324.479 461.694C319.964 454.178 309.976 452.279 309.897 437.089C309.897 436.253 309.897 435.339 309.976 434.389C310.164 431.655 310.925 428.05 312.255 423.797C319.163 401.201 338.719 360.951 324.785 344.391C318.214 336.569 306.139 330.19 293.762 325.251" stroke="#4A3E1B" stroke-width="4" stroke-linecap="round" stroke-linejoin="round"/>
<path d="M268.851 423.798H312.216" stroke="#362E16" stroke-width="4" stroke-linecap="round" stroke-linejoin="round"/>
<path d="M243.178 286.821C235.128 286.064 216.749 287.315 216.749 287.315" stroke="black" stroke-width="4" stroke-linecap="round" stroke-linejoin="round"/>
<path d="M239.114 311.242C231.519 312.987 219.404 313.862 219.404 313.862" stroke="black" stroke-width="4" stroke-linecap="round" stroke-linejoin="round"/>
<path d="M193.561 255.64C196.917 255.64 199.638 252.923 199.638 249.567C199.638 246.212 196.917 243.495 193.561 243.495C190.21 243.495 187.489 246.212 187.489 249.567C187.489 252.923 190.21 255.64 193.561 255.64Z" fill="#FFC930"/>
<path d="M177.238 232.063C176.779 232.063 176.315 231.862 176.035 231.503L172.448 227.172C171.883 226.503 171.984 225.505 172.653 224.967L172.728 224.914C173.012 224.683 173.371 224.556 173.729 224.556C174.189 224.556 174.653 224.761 174.933 225.12L178.52 229.451C178.778 229.784 178.905 230.195 178.879 230.606C178.826 231.013 178.647 231.398 178.314 231.683L178.24 231.731C177.956 231.936 177.597 232.063 177.238 232.063Z" fill="#2B2B2B"/>
<path d="M147.436 314.405V263.738L127.162 280.577C126.676 280.989 126.037 281.216 125.394 281.216C124.576 281.216 123.78 280.857 123.268 280.219L123.194 280.14C122.218 278.963 122.371 277.196 123.552 276.22L178.24 230.86L181.337 235.629L153.097 259.048V314.405H147.436Z" fill="#FE4F32"/>
<path opacity="0.2" d="M153.097 305.563L147.436 300.567V314.405H153.097V305.563Z" fill="#2B2B2B"/>
<path d="M150.126 263.69C153.381 263.69 156.019 261.048 156.019 257.793C156.019 254.542 153.381 251.899 150.126 251.899C146.871 251.899 144.233 254.542 144.233 257.793C144.233 261.048 146.871 263.69 150.126 263.69Z" fill="#2B2B2B"/>
<path d="M150.126 260.05C151.369 260.05 152.379 259.039 152.379 257.793C152.379 256.55 151.369 255.539 150.126 255.539C148.879 255.539 147.869 256.55 147.869 257.793C147.869 259.039 148.879 260.05 150.126 260.05Z" fill="#FE5033"/>
<path d="M198.431 246.133L189.283 253.693" stroke="#17151C" stroke-width="4" stroke-linecap="round" stroke-linejoin="round"/>
<path d="M180.108 259.074C178.083 255.898 177.111 252.079 177.365 248.312L177.903 240.573C178.034 238.884 177.496 237.243 176.42 235.935L174.294 233.371C172.727 231.503 172.986 228.708 174.88 227.146C175.676 226.481 176.674 226.118 177.702 226.118C179.032 226.118 180.261 226.708 181.11 227.71L183.236 230.269C184.312 231.578 185.848 232.4 187.515 232.601L195.228 233.498C198.969 233.936 202.534 235.603 205.273 238.188L206.196 239.037L180.826 260.103L180.108 259.074Z" fill="#FE4F32"/>
<path d="M177.75 238.626C177.523 237.65 177.085 236.753 176.42 235.961L174.652 233.835" stroke="#17151C" stroke-width="4" stroke-linecap="round" stroke-linejoin="round"/>
<path d="M133.93 319.043C133.93 315.761 136.135 312.865 139.285 312.021L147.409 309.789H153.071L161.274 312.021C164.424 312.891 166.629 315.761 166.629 319.043H133.93Z" fill="#FE4F32"/>
<path d="M201.353 235.344L178.135 254.542" stroke="#17151C" stroke-width="4" stroke-linecap="round" stroke-linejoin="round"/>
<path d="M147.436 309.768H153.097" stroke="#17151C" stroke-width="4" stroke-linecap="round" stroke-linejoin="round"/>
<path d="M375.671 263.708H386.901V304.903C386.901 307.921 384.469 310.354 381.454 310.354H381.117C378.099 310.354 375.671 307.921 375.671 304.903V263.708Z" fill="#BDBDBD"/>
<path opacity="0.2" d="M383.633 263.708V304.903C383.633 307.418 381.957 309.514 379.652 310.144C380.111 310.266 380.614 310.354 381.117 310.354H381.454C384.469 310.354 386.901 307.921 386.901 304.903V263.708H383.633Z" fill="#D7D7D7"/>
<path d="M375.671 295.684H386.901V304.902C386.901 307.921 384.469 310.354 381.454 310.354H381.117C378.099 310.354 375.671 307.921 375.671 304.902V295.684Z" fill="#FE4F32"/>
<path d="M395.953 263.708H407.184V304.903C407.184 307.921 404.756 310.354 401.737 310.354H401.4C398.386 310.354 395.953 307.921 395.953 304.903V263.708Z" fill="#BDBDBD"/>
<path opacity="0.2" d="M403.916 263.708V304.903C403.916 307.418 402.24 309.514 399.934 310.144C400.394 310.266 400.897 310.354 401.4 310.354H401.737C404.756 310.354 407.184 307.921 407.184 304.903V263.708H403.916Z" fill="#D7D7D7"/>
<path d="M395.953 281.435H407.184V304.903C407.184 307.921 404.756 310.354 401.737 310.354H401.4C398.386 310.354 395.953 307.921 395.953 304.903V281.435Z" fill="#FFC930"/>
<path d="M416.236 263.708H427.466V304.903C427.466 307.921 425.038 310.354 422.019 310.354H421.683C418.668 310.354 416.236 307.921 416.236 304.903V263.708Z" fill="#BDBDBD"/>
<path opacity="0.2" d="M424.198 263.708V304.903C424.198 307.418 422.522 309.514 420.217 310.144C420.676 310.266 421.179 310.354 421.683 310.354H422.019C425.038 310.354 427.466 307.921 427.466 304.903V263.708H424.198Z" fill="#D7D7D7"/>
<path d="M416.236 288.308H427.466V304.902C427.466 307.921 425.038 310.354 422.019 310.354H421.683C418.668 310.354 416.236 307.921 416.236 304.902V288.308Z" fill="#1C5F37"/>
<path d="M438.321 318.566V282.192C438.364 278.46 435.346 275.402 431.618 275.402H371.436C367.708 275.441 364.689 278.46 364.733 282.192V318.566" stroke="#231F20" stroke-width="4"/>
<path d="M374.415 263.708H388.244" stroke="#BDBDBD" stroke-width="4" stroke-linecap="round" stroke-linejoin="round"/>
<path d="M394.737 263.708H408.527" stroke="#BDBDBD" stroke-width="4" stroke-linecap="round" stroke-linejoin="round"/>
<path d="M415.019 263.708H428.849" stroke="#BDBDBD" stroke-width="4" stroke-linecap="round" stroke-linejoin="round"/>
<path d="M454.937 329.652H114.89C111.779 329.652 109.216 327.071 109.216 323.833C109.216 320.644 111.731 318.019 114.89 318.019H454.937C458.052 318.019 460.611 320.6 460.611 323.833C460.611 327.023 458.096 329.652 454.937 329.652Z" fill="#231F20"/>
</g>
<defs>
<clipPath id="clip0_170_88">
<rect width="546" height="470" fill="white"/>
</clipPath>
</defs>
</svg>
