<svg width="27" height="21" viewBox="0 0 27 21" fill="none" xmlns="http://www.w3.org/2000/svg">
<path d="M0 21V14.7607C0 12.989 0.340336 11.1788 1.02101 9.33012C1.70168 7.48143 2.59979 5.73865 3.71534 4.10179C4.83088 2.46492 6.04097 1.09766 7.34559 0L12.6775 3.20633C11.6187 4.90096 10.7489 6.67263 10.0683 8.52132C9.40651 10.37 9.07563 12.4305 9.07563 14.7029V21H0ZM14.3225 21V14.7607C14.3225 12.989 14.6628 11.1788 15.3435 9.33012C16.0242 7.48143 16.9223 5.73865 18.0378 4.10179C19.1534 2.46492 20.3634 1.09766 21.6681 0L27 3.20633C25.9412 4.90096 25.0714 6.67263 24.3908 8.52132C23.729 10.37 23.3981 12.4305 23.3981 14.7029V21H14.3225Z" fill="black"/>
</svg>
